<svg xmlns="http://www.w3.org/2000/svg" viewBox="0 0 963 846" role="img" aria-labelledby="title desc">
  <title id="title">MARLEΛU logo</title>
  <desc id="desc">MARLEΛU wordmark above traced mountain and vortex contour line art.</desc>
  <rect width="963" height="846" fill="#030303"/>
  <g id="contour-art" transform="translate(0.000000,846.000000) scale(0.100000,-0.100000)"
fill="#f7f2ea" stroke="none">
<path d="M5608 6036 c-56 -20 -88 -44 -106 -78 -31 -57 -65 -90 -116 -113 -54
-24 -89 -56 -125 -117 l-22 -37 -82 -41 c-103 -52 -104 -53 -134 -117 -25 -53
-55 -84 -123 -127 -19 -12 -44 -37 -55 -55 -11 -18 -36 -51 -55 -73 l-34 -40
-3 -71 c-4 -88 -27 -140 -88 -190 l-45 -38 -6 -38 c-3 -21 -10 -44 -14 -51
l-8 -13 -69 35 c-37 20 -86 39 -108 43 -22 4 -69 24 -105 46 -85 50 -111 59
-171 59 -59 0 -109 19 -154 59 -18 16 -64 39 -102 51 -57 19 -127 58 -189 105
-8 6 -31 5 -64 -1 -35 -7 -87 -8 -158 -2 -133 12 -192 6 -256 -27 -59 -30
-167 -57 -179 -46 -4 4 0 23 9 42 10 19 20 41 24 49 5 9 43 23 101 35 107 24
119 29 119 55 0 11 9 24 20 30 29 16 103 22 120 10 l15 -10 -15 -10 c-8 -5
-30 -10 -48 -10 -22 0 -32 -4 -30 -12 3 -9 39 -16 104 -21 l99 -8 39 18 39 17
23 -29 23 -30 13 13 c7 7 20 32 29 55 9 23 23 43 32 45 8 2 55 -17 104 -42
108 -54 234 -103 288 -111 68 -11 107 -26 186 -72 l76 -44 84 -9 c46 -6 97
-13 113 -16 l29 -7 -7 12 c-16 25 -75 45 -147 51 l-77 6 -63 42 c-77 50 -119
67 -181 76 -49 7 -236 74 -298 107 -19 10 -53 34 -75 53 l-40 34 18 30 c9 17
17 40 17 52 0 31 18 60 38 60 9 0 36 -16 60 -35 24 -18 64 -42 90 -51 74 -27
224 -95 253 -115 15 -11 58 -26 95 -35 38 -8 90 -27 117 -41 55 -30 71 -24 36
13 -33 35 -64 50 -133 63 -33 6 -80 24 -105 40 -52 33 -128 64 -216 87 -62 16
-99 37 -152 88 l-33 30 0 39 c0 45 15 77 35 77 8 0 47 -29 85 -65 48 -43 85
-68 113 -76 94 -26 109 -32 148 -65 23 -19 44 -32 47 -30 10 11 -35 71 -67 90
-19 11 -64 28 -100 38 l-66 18 -73 80 -74 80 -39 0 -39 0 -50 -34 c-28 -19
-74 -42 -103 -50 l-52 -15 -66 -59 -65 -58 -87 -33 -87 -33 -41 -60 -41 -60
-62 -28 c-74 -34 -106 -63 -106 -95 0 -15 -9 -29 -22 -36 -33 -17 -33 -17 -7
-39 l24 -20 -28 -25 c-34 -30 -46 -31 -94 -5 -41 22 -59 25 -67 11 -3 -5 21
-23 54 -40 71 -38 76 -44 56 -73 -9 -12 -16 -37 -16 -54 0 -17 -6 -37 -14 -43
l-15 -12 -21 11 c-12 6 -38 26 -58 44 -21 18 -59 40 -86 50 -47 15 -96 50 -96
67 0 4 10 9 22 11 l23 3 5 30 6 30 28 -3 c26 -3 45 10 46 31 0 4 -23 7 -51 7
l-51 0 -33 -35 c-55 -61 -95 -85 -139 -85 -76 0 -115 -19 -190 -89 -39 -37
-104 -87 -144 -110 l-74 -43 -15 -36 c-8 -21 -28 -51 -45 -69 -50 -52 -16 -71
57 -32 l39 21 13 -18 c7 -10 13 -23 13 -28 0 -15 -87 -73 -130 -87 -34 -12
-79 -53 -80 -75 0 -5 -16 -25 -35 -44 l-34 -33 -155 -8 -155 -8 -38 13 c-56
19 -51 32 17 44 34 6 76 20 93 30 18 11 43 23 57 27 28 8 138 57 190 84 l35
19 6 32 c4 18 25 51 50 76 24 24 38 44 31 44 -26 0 -117 -41 -141 -63 -14 -13
-66 -51 -116 -85 l-90 -61 -98 -32 -98 -33 -57 13 c-31 8 -113 17 -182 20
l-125 7 -40 21 c-22 12 -53 35 -70 53 -59 63 -160 95 -262 84 -35 -3 -63 -10
-63 -14 0 -10 46 -25 125 -40 86 -17 113 -31 179 -89 l59 -51 64 -20 c35 -11
76 -17 91 -14 41 8 95 -18 155 -75 55 -52 116 -81 171 -81 17 0 51 -9 75 -20
25 -12 65 -20 95 -20 l51 0 65 -31 c64 -31 121 -53 295 -113 86 -30 157 -68
302 -164 36 -24 76 -47 89 -52 25 -10 44 -45 44 -81 0 -21 -28 -26 -58 -10 -9
6 -55 21 -102 36 -46 14 -89 30 -95 35 -6 5 -23 13 -37 19 -52 20 -38 -8 26
-53 109 -79 115 -101 14 -65 -35 13 -65 22 -68 20 -3 -2 -4 -12 -2 -23 l3 -18
-31 0 -30 0 16 -26 c10 -14 42 -38 73 -54 52 -26 90 -65 77 -77 -24 -24 -277
98 -394 189 -160 125 -215 161 -289 189 -81 30 -95 40 -190 136 -43 44 -69 63
-87 63 -44 0 -75 18 -82 47 -11 53 -26 82 -50 98 -50 33 -54 17 -17 -80 l19
-50 57 -31 c33 -17 88 -62 130 -105 39 -41 92 -84 117 -96 25 -12 93 -44 151
-72 l107 -50 88 -97 89 -96 108 -55 c74 -37 128 -72 171 -112 36 -33 77 -62
94 -66 34 -7 82 -50 82 -72 l0 -15 -37 6 c-21 4 -62 11 -90 17 l-53 10 -52 58
c-66 72 -109 101 -222 146 -104 42 -172 88 -210 144 -30 43 -80 81 -139 106
-20 8 -61 30 -90 48 -52 33 -82 48 -168 85 -60 26 -168 127 -202 191 l-28 50
7 49 6 49 -16 32 c-23 44 -215 194 -311 243 -79 40 -205 88 -232 88 -8 0 -21
7 -29 15 l-15 15 -85 0 -84 0 0 -29 0 -28 73 -6 c98 -8 216 -40 312 -85 87
-40 253 -159 298 -211 l27 -33 0 -46 0 -47 45 -77 c65 -112 121 -163 252 -231
121 -63 156 -95 174 -160 22 -81 34 -102 92 -159 l59 -58 127 -62 126 -61 80
-82 c47 -48 101 -93 130 -108 28 -14 64 -39 80 -57 42 -44 182 -127 236 -139
24 -6 65 -11 90 -11 74 0 104 -14 230 -102 25 -18 55 -39 65 -46 l19 -13 -29
6 c-16 3 -75 26 -133 50 -57 25 -157 58 -222 74 l-118 29 -84 48 c-46 26 -103
59 -127 73 -24 14 -61 36 -82 49 -21 12 -59 51 -85 87 -53 72 -84 95 -205 153
-106 50 -227 129 -261 169 -25 30 -29 39 -64 137 -26 71 -80 124 -199 195
l-104 61 -56 61 c-55 62 -86 126 -86 181 0 71 -39 115 -185 211 -111 73 -316
137 -442 137 l-34 0 3 -37 3 -38 75 -7 c172 -17 356 -98 473 -207 l38 -36 16
-55 c39 -138 120 -230 271 -312 95 -52 134 -89 165 -159 58 -129 73 -155 114
-196 l42 -43 154 -75 c161 -79 194 -105 242 -188 39 -68 86 -103 237 -179 130
-65 222 -97 343 -119 33 -6 80 -21 105 -35 90 -47 379 -145 500 -169 47 -9
120 -27 162 -41 l77 -23 148 -2 c169 -2 181 0 284 52 111 55 273 93 179 42
-67 -37 -112 -75 -122 -104 l-10 -29 -71 -22 c-39 -11 -82 -32 -95 -45 l-24
-24 5 -32 c3 -18 9 -44 12 -59 l7 -28 -17 0 c-10 0 -47 15 -82 32 l-64 33 -10
38 c-7 25 -21 45 -42 58 l-32 20 -80 -5 c-105 -7 -185 11 -306 68 -53 24 -154
64 -225 87 -71 23 -156 55 -189 71 -33 15 -68 28 -79 28 l-18 0 12 -15 c14
-17 151 -96 195 -113 17 -6 59 -19 95 -27 36 -9 128 -48 204 -87 l139 -70 56
8 c65 9 118 6 146 -8 11 -6 43 -33 72 -59 62 -59 86 -69 162 -69 l58 0 27 -26
c29 -30 30 -32 16 -69 l-10 -27 16 -27 c23 -39 60 -58 143 -76 153 -32 384
-182 424 -276 13 -31 179 -267 244 -348 45 -56 11 -32 -94 65 -178 165 -204
183 -355 247 -152 65 -225 85 -408 113 -58 8 -125 35 -182 71 -25 16 -72 36
-104 45 -158 43 -205 59 -281 92 -45 20 -107 41 -137 46 -126 20 -530 206
-761 350 -77 48 -169 102 -205 120 -38 19 -89 58 -126 94 l-61 61 -52 109
c-58 120 -117 192 -215 258 -32 22 -91 71 -131 109 l-72 68 -67 120 -67 119
-57 53 c-32 30 -96 81 -142 114 -46 33 -130 104 -186 157 -56 53 -129 115
-164 137 -60 39 -255 111 -300 111 l-20 0 0 -89 0 -88 80 -6 c176 -14 282 -66
452 -222 37 -34 114 -94 171 -134 103 -71 142 -113 185 -196 11 -22 45 -74 76
-117 l56 -76 119 -91 c146 -111 183 -152 244 -274 27 -53 67 -119 90 -147 51
-63 146 -127 253 -173 43 -18 131 -65 194 -103 63 -38 153 -88 200 -111 94
-46 348 -144 450 -174 94 -27 167 -58 230 -95 30 -17 95 -44 144 -59 49 -15
124 -45 168 -67 80 -40 161 -59 313 -73 82 -8 333 -96 431 -150 81 -45 204
-143 315 -250 86 -82 111 -97 124 -75 11 17 23 11 29 -15 4 -14 33 -55 66 -91
l60 -66 0 -43 0 -43 -26 -31 c-31 -37 -122 -82 -229 -111 l-80 -23 -220 9
c-288 12 -626 9 -745 -5 -52 -6 -176 -25 -275 -40 -215 -35 -314 -48 -460 -61
-216 -19 -519 -8 -679 25 -166 35 -385 175 -925 593 -207 161 -464 289 -711
356 -36 9 -73 20 -82 22 l-18 5 0 -100 0 -100 43 -11 c293 -76 536 -189 852
-398 281 -185 497 -316 621 -374 163 -76 326 -98 729 -98 276 0 350 6 680 59
337 53 560 64 632 29 l28 -13 3 -33 c6 -60 -48 -121 -281 -316 -146 -122 -237
-217 -281 -290 l-36 -60 0 -42 c0 -25 7 -50 18 -63 l17 -22 218 3 219 3 -58
40 c-32 22 -69 55 -81 74 l-23 34 0 49 c0 93 54 168 248 340 175 157 297 253
351 279 52 24 169 63 221 74 19 3 49 12 65 20 17 7 60 18 96 25 114 20 219
101 219 167 0 39 -28 85 -83 136 l-52 48 25 -6 c45 -12 152 -88 181 -129 69
-94 10 -194 -141 -241 -30 -9 -62 -19 -70 -21 l-14 -5 14 -10 c18 -11 110 -1
164 18 84 29 146 98 146 162 0 54 -36 117 -87 152 -48 33 -164 89 -186 89 -22
0 -56 30 -51 45 3 7 19 18 35 24 16 5 29 14 29 19 0 17 196 111 277 133 l78
22 106 -5 105 -5 47 -21 c26 -12 78 -41 115 -66 37 -24 92 -54 122 -67 124
-51 170 -99 244 -253 47 -100 102 -178 192 -275 71 -77 140 -124 219 -147 l59
-17 106 6 c58 3 132 13 165 22 77 21 284 120 367 176 68 46 253 193 263 209
14 22 238 212 355 300 275 207 381 299 628 548 272 274 400 387 557 492 102
68 267 164 311 180 l24 10 0 33 c0 19 -3 36 -6 39 -19 20 -276 -132 -469 -276
-110 -82 -180 -143 -400 -351 -204 -193 -278 -259 -365 -321 -30 -22 -98 -72
-150 -110 -152 -110 -314 -243 -475 -389 -283 -256 -512 -378 -740 -392 l-90
-6 -65 17 c-78 20 -129 49 -239 135 -134 104 -160 130 -232 227 -37 51 -83
103 -101 117 -18 14 -101 53 -182 86 -136 55 -181 81 -156 89 5 2 39 -6 77
-17 37 -11 108 -30 157 -41 117 -27 165 -55 265 -151 90 -87 103 -94 271 -165
l115 -48 116 -4 116 -4 64 16 c93 24 248 104 376 195 206 145 372 273 463 357
191 176 239 212 377 286 148 79 255 156 472 339 214 180 529 399 713 496 l88
47 0 39 0 39 -72 -40 c-179 -98 -464 -290 -748 -502 -159 -118 -249 -173 -389
-233 -120 -53 -234 -132 -377 -263 -200 -184 -347 -295 -574 -430 -232 -139
-389 -203 -520 -211 l-86 -6 -79 21 c-129 32 -188 59 -300 133 -110 73 -202
112 -296 124 -30 3 -81 13 -114 20 -33 8 -78 16 -100 18 -22 2 -67 12 -99 22
l-59 17 -118 -4 -117 -4 -117 -60 c-153 -77 -185 -94 -222 -121 l-31 -23 -5
13 c-12 33 1 204 20 252 31 80 110 195 187 270 l71 71 95 39 c63 25 106 50
128 73 l33 34 112 23 c134 27 230 65 277 110 45 42 136 97 380 225 200 105
257 147 333 242 36 46 117 98 153 98 37 0 210 123 285 203 l77 80 18 -8 c43
-17 53 -15 107 30 31 25 81 54 111 64 29 11 75 36 101 56 65 49 177 104 305
150 110 39 168 66 210 95 29 20 263 110 287 110 l16 0 -18 -20 c-10 -11 -42
-29 -71 -39 -89 -34 -180 -78 -226 -109 -24 -16 -81 -46 -127 -66 -46 -20 -91
-42 -100 -50 -9 -8 -68 -43 -131 -79 -63 -35 -133 -74 -154 -86 -60 -34 -150
-97 -165 -115 -26 -31 7 -15 81 38 72 53 135 82 127 58 -4 -12 -162 -133 -247
-189 -30 -21 -50 -39 -43 -41 6 -2 33 12 59 32 130 99 478 310 559 339 39 14
122 52 185 83 62 31 140 67 173 79 33 13 94 39 135 59 72 35 120 46 120 27 0
-25 -91 -81 -269 -167 -305 -148 -340 -166 -382 -202 l-39 -34 0 -27 c0 -17
-11 -38 -30 -56 -16 -16 -28 -30 -25 -33 7 -7 126 68 195 123 69 56 158 104
277 150 40 15 92 46 120 69 61 53 105 79 174 101 30 9 88 34 129 55 112 56
270 123 410 174 69 24 187 74 263 110 l137 65 0 56 c0 30 -1 55 -3 55 -2 0
-40 -13 -85 -30 -45 -16 -117 -34 -160 -39 -50 -5 -101 -19 -146 -40 -103 -47
-152 -40 -77 11 68 46 43 61 -76 44 l-72 -10 -27 13 -27 12 19 19 c18 18 131
68 280 125 34 13 81 34 105 47 52 29 157 65 220 76 l44 7 3 59 3 59 -18 -8
c-10 -5 -63 -23 -117 -41 -54 -18 -117 -46 -140 -61 -67 -45 -264 -142 -373
-183 -56 -22 -155 -51 -220 -64 -65 -13 -131 -29 -146 -35 -41 -16 -107 -14
-107 2 0 8 22 32 50 54 l49 40 143 47 c132 44 180 67 166 81 -3 3 -18 0 -34
-6 -16 -6 -60 -20 -98 -30 -38 -11 -111 -40 -163 -64 -91 -44 -123 -53 -123
-36 0 4 50 54 111 110 l111 101 56 16 c83 24 127 49 159 91 29 38 114 83 157
83 13 0 79 13 146 29 84 20 129 36 146 52 l24 22 55 5 c30 2 55 8 55 13 0 21
-35 37 -99 43 l-70 7 -48 -22 -48 -22 -155 -6 -155 -6 -37 -23 c-21 -13 -38
-28 -38 -33 0 -11 3 -11 37 2 35 13 224 38 241 32 6 -3 12 -8 12 -12 0 -12
-85 -59 -139 -77 -38 -13 -69 -34 -101 -67 l-46 -48 -59 -15 c-54 -14 -184
-88 -200 -114 -3 -5 -15 -10 -27 -10 l-20 0 6 16 c3 9 6 22 6 31 0 24 111 133
162 159 83 42 79 65 -6 33 -32 -11 -60 -18 -63 -15 -3 3 8 21 25 41 33 37 66
94 59 101 -2 2 -16 -5 -31 -17 -15 -12 -28 -20 -30 -18 -2 2 9 32 25 67 l28
63 43 19 43 20 76 0 77 0 23 -20 24 -20 -15 -10 c-9 -6 -30 -8 -50 -4 -65 13
-105 9 -138 -15 -40 -28 -42 -46 -4 -37 27 7 214 26 286 29 45 2 59 22 22 31
-13 3 -43 22 -66 41 -74 62 -196 82 -276 46 -46 -21 -72 -51 -105 -117 -13
-28 -36 -55 -60 -70 l-39 -24 0 -28 c0 -16 -29 -87 -65 -158 -36 -71 -65 -141
-65 -155 0 -29 -30 -73 -62 -90 l-20 -11 -54 27 c-37 18 -77 51 -126 106 -84
93 -86 95 -105 163 -8 28 -17 59 -20 69 l-5 17 45 0 c25 0 64 -9 88 -20 24
-11 59 -20 77 -20 18 0 47 -7 65 -17 41 -21 96 -33 102 -23 8 12 -9 20 -77 36
-33 8 -87 31 -120 51 l-59 37 -45 -12 c-75 -20 -93 -16 -141 33 -26 26 -43 51
-40 59 5 14 -30 36 -58 36 -29 0 -9 -38 60 -110 59 -63 79 -97 89 -155 12 -63
44 -115 121 -195 78 -81 105 -117 105 -138 0 -19 -30 -8 -123 45 l-78 44 -15
-12 c-21 -17 -18 -21 41 -58 50 -32 72 -57 61 -69 -3 -2 -34 1 -69 7 -35 6
-91 11 -124 11 l-60 0 -43 33 c-23 17 -54 40 -69 49 l-26 18 -75 0 -75 0 -60
37 -60 36 -55 -1 -54 -1 -58 36 -58 36 -73 -7 -73 -6 -40 14 c-21 7 -84 35
-139 61 l-99 48 -66 7 c-75 9 -91 14 -143 48 -55 36 -58 18 -5 -31 l46 -42
214 -98 214 -98 87 -9 c90 -9 157 -34 226 -85 45 -33 105 -48 161 -41 51 7
117 -9 206 -47 32 -14 93 -36 134 -47 122 -35 118 -41 -45 -59 -49 -6 -117
-13 -150 -16 l-60 -6 -45 20 -45 21 -100 0 -100 0 -39 21 c-21 11 -78 27 -126
34 -47 8 -113 27 -145 41 -35 16 -86 30 -125 33 l-65 6 -50 31 c-64 39 -88 48
-83 32 11 -33 107 -89 203 -119 55 -17 134 -46 175 -64 50 -22 99 -36 145 -40
39 -4 104 -16 145 -27 41 -11 106 -23 144 -27 39 -3 71 -11 73 -18 11 -32
-252 -35 -417 -4 -144 27 -144 21 3 -33 26 -10 45 -22 41 -27 -8 -14 -73 -11
-128 6 -27 8 -69 15 -93 15 -44 0 -118 31 -175 73 -43 32 -53 11 -23 -45 14
-26 25 -55 25 -64 l0 -16 -26 5 -25 4 6 -16 c17 -41 23 -71 14 -76 -12 -8 -34
5 -113 68 -45 36 -88 61 -125 72 -99 29 -134 42 -216 79 l-81 36 -89 5 -90 6
-118 56 -119 57 -76 6 c-122 11 -207 36 -207 61 0 14 15 18 148 37 38 6 71 13
75 16 3 3 -3 15 -13 26 l-18 20 24 19 c53 45 158 39 289 -15 47 -20 135 -51
195 -70 61 -20 128 -45 150 -57 22 -11 51 -26 64 -31 14 -6 54 -26 89 -43 36
-18 69 -33 73 -33 17 0 9 29 -18 60 l-26 32 12 8 13 7 -16 31 c-8 16 -39 51
-68 76 l-52 45 -86 27 c-47 14 -116 43 -155 64 -48 26 -88 39 -126 43 -31 3
-72 14 -90 24 l-34 18 -87 -1 c-118 -2 -119 12 -5 46 34 10 76 24 93 31 l31
12 84 -26 c46 -14 96 -28 110 -31 14 -3 45 -21 69 -40 26 -21 61 -38 85 -41
22 -4 61 -20 86 -36 55 -35 59 -35 52 -8 -9 32 -77 76 -130 84 -29 4 -68 20
-98 40 -27 18 -75 38 -105 45 -81 16 -190 51 -190 60 0 5 19 15 43 22 27 10
43 22 46 34 9 48 40 54 174 30 51 -9 91 -23 115 -40 21 -14 42 -26 46 -26 14
0 -5 54 -26 78 l-21 22 -51 0 c-28 0 -75 9 -104 20 -66 25 -103 25 -152 0 -22
-11 -55 -20 -73 -20 -20 0 -46 -9 -62 -22 -15 -11 -50 -27 -79 -34 -68 -17
-236 -85 -236 -96 0 -4 27 -8 59 -8 98 0 92 -34 -12 -69 l-61 -21 -100 0 c-54
0 -127 5 -162 11 l-62 11 -79 -16 c-89 -17 -264 -39 -270 -33 -2 2 16 17 39
33 l43 28 105 7 c58 4 161 18 230 33 69 14 138 26 153 26 43 0 23 17 -36 30
l-52 12 -126 -26 c-70 -14 -144 -26 -165 -26 -21 0 -58 -7 -81 -16 -24 -9 -46
-14 -49 -11 -11 11 30 58 71 82 l42 25 128 0 128 0 103 35 103 35 93 -5 93 -6
115 25 c63 14 138 36 165 50 28 14 66 30 85 36 23 6 41 21 53 41 l18 31 47 -6
c26 -3 63 -9 83 -12 40 -7 54 5 44 36 -6 20 -62 40 -149 55 l-38 6 -27 -25
c-34 -32 -153 -82 -234 -97 -41 -7 -80 -23 -116 -48 l-55 -36 -60 1 c-34 0
-95 2 -136 3 -47 1 -111 -6 -170 -18 -52 -12 -110 -21 -130 -21 -34 0 -114
-18 -152 -35 l-18 -7 0 15 c0 22 51 61 127 97 l67 32 50 -6 c31 -4 80 0 126 9
41 9 111 22 155 29 89 16 115 24 115 36 0 29 -130 15 -210 -23 l-45 -21 -102
-2 -102 -2 -57 -31 c-92 -49 -113 -36 -46 28 45 43 85 57 206 70 91 11 221 38
338 72 44 13 97 19 162 19 l95 0 76 30 c82 32 100 36 110 19 12 -18 -25 -37
-155 -80 -124 -41 -165 -57 -158 -64 9 -10 211 29 266 50 34 14 69 25 76 25 8
0 28 12 45 26 17 14 49 28 71 31 53 7 47 24 -16 44 l-49 16 28 16 c15 9 38 24
52 32 38 23 80 18 154 -19 38 -19 99 -40 135 -47 39 -6 102 -29 148 -51 45
-22 119 -53 166 -69 l86 -29 69 0 70 0 111 -57 111 -56 71 -3 71 -2 74 -46
c40 -25 98 -53 129 -62 30 -9 70 -25 88 -36 69 -42 47 21 -26 73 -31 22 -63
35 -98 40 l-52 7 -54 40 c-79 59 -95 65 -193 73 l-90 7 -100 48 -100 48 -110
7 c-120 7 -151 17 -229 76 l-48 36 -82 7 c-50 5 -106 17 -146 33 -36 14 -78
29 -93 32 -16 3 -40 17 -53 30 -37 37 -72 32 -151 -21 -94 -65 -110 -70 -268
-89 -178 -21 -213 -29 -305 -70 -47 -21 -99 -36 -140 -40 -85 -9 -164 -31
-219 -61 -51 -28 -51 -28 -51 -9 0 8 33 37 73 64 39 27 89 62 110 79 21 17 54
36 73 42 l35 12 49 -12 c58 -14 95 -7 170 30 30 15 66 31 80 35 14 4 41 18 61
32 l37 24 138 14 139 14 59 27 58 26 10 29 c6 16 19 31 31 34 12 3 69 -3 127
-14 l105 -21 152 -76 152 -77 94 -12 95 -12 69 -47 70 -46 82 -7 81 -6 67 -39
c69 -40 283 -138 302 -138 6 0 11 6 11 13 0 30 -38 62 -124 101 -57 27 -119
67 -166 106 -94 79 -153 106 -282 125 -57 9 -137 28 -178 42 -41 14 -131 45
-200 69 -69 23 -143 50 -165 58 -22 8 -66 15 -97 16 -70 0 -207 35 -229 58
-21 23 -44 141 -30 155 7 7 34 -1 88 -25 43 -20 92 -38 109 -41 17 -3 108 -38
202 -76 103 -43 185 -71 207 -71 45 0 94 -20 143 -60 22 -17 72 -44 113 -59
41 -16 82 -32 92 -36 l17 -7 0 23 c0 35 -77 103 -136 119 l-49 14 -80 81 c-53
53 -95 87 -125 99 -129 51 -186 90 -215 146 -8 15 -54 54 -102 85 -52 35 -105
80 -130 111 -71 88 -198 133 -285 100z"/>
<path d="m139 -100 l82 -23 59 -54 c33 -30 89
-69 123 -88 70 -36 121 -79 113 -93 -8 -13 -54 1 -106 32 -50 30 -92 46 -148
55 -19 3 -69 23 -110 43 l-74 37 -29 42 c-29 41 -31 73 -5 73 7 0 50 -11 95
-24z"/>
<path d="m-170 -57 l-6 -49 24 0 25 0 0 -24 c0 -14 -10 -32 -22 -40 -24 -17 -21
-19 28 -16 l31 1 12 -45 c6 -25 11 -52 11 -61 0 -24 -59 -54 -123 -61 -36 -4
-72 -16 -93 -31 -47 -31 -130 -73 -146 -73 -7 0 -35 -11 -63 -25 -27 -13 -58
-25 -68 -25 -34 0 -82 -27 -127 -70 -48 -46 -130 -90 -168 -90 -35 0 -23 18
44 71 35 27 59 53 59 65 0 10 12 35 26 54 14 19 35 51 47 71 12 19 32 40 44
46 13 6 68 33 123 59 111 52 155 87 155 120 0 15 15 33 45 55 24 17 63 54 85
81 23 26 46 45 52 42 6 -4 8 -26 5 -55z"/>
<path d="m155 -105 c17 -9 49 -29 70 -44 26
-19 58 -31 93 -35 35 -5 71 -18 104 -40 28 -17 88 -44 133 -59 114 -37 252
-107 256 -128 5 -26 -20 -22 -83 11 -30 16 -86 36 -124 45 -38 9 -104 32 -146
51 -43 20 -108 43 -146 52 l-68 15 -68 47 -68 46 -3 28 c-4 31 6 34 50 11z"/>
<path d="m-1942 -33 c0 -35 -33 -61 -97 -76 -34 -8 -77 -24 -95 -35 -33 -20 -68 -27
-68 -13 0 23 61 66 120 83 36 11 79 28 95 39 38 25 45 25 45 2z"/>
<path d="m-47 -155 c5
-12 -6 -32 -41 -76 -2 -3 -43 -5 -90 -6 l-87 0 -35 -18 c-19 -10 -46 -29 -60
-41 -27 -25 -105 -45 -173 -45 l-42 0 51 50 50 51 65 9 c35 6 86 17 113 25 27
8 70 15 95 15 29 1 63 10 91 25 54 29 56 29 63 11z"/>
<path d="m1982 -56 c0 -8 -15 -25
-34 -37 l-34 -23 34 0 c19 0 41 -5 49 -10 l15 -10 -22 -19 c-12 -10 -43 -21
-68 -24 l-47 -7 -41 -35 c-49 -42 -87 -54 -153 -48 l-49 5 -60 -22 c-33 -13
-89 -33 -125 -45 -36 -13 -130 -55 -209 -94 -79 -39 -150 -71 -158 -71 -40 0
-15 62 31 76 34 10 116 64 176 116 86 74 159 97 180 58 l10 -20 53 21 c28 11
77 35 108 54 l56 35 74 6 c41 4 82 11 93 16 l18 10 -11 11 c-18 18 -13 26 37
51 51 27 77 29 77 6z"/>
<path d="m-565 -339 c0 -18 -30 -32 -62 -29 l-33 4 35 16 c40 19
60 22 60 9z"/>
<path d="m-1349 -110 c47 -15 100 -36 118 -46 18 -9 54 -23 80 -30 109 -33
252 -85 326 -120 l80 -37 73 -6 c50 -3 75 -9 79 -19 11 -29 -63 -166 -128
-235 l-37 -38 -32 0 c-18 0 -58 11 -89 24 -31 14 -77 27 -102 31 -26 3 -87 26
-135 52 l-89 46 -67 7 c-43 4 -87 17 -120 34 -98 52 -162 65 -419 86 l-247 21
-52 -26 -53 -27 -8 13 c-8 13 1 35 32 80 26 37 99 69 158 69 27 0 57 3 66 6
l17 7 -14 8 c-7 5 -40 9 -74 9 l-61 0 -41 -30 c-47 -34 -72 -38 -72 -12 0 34
58 90 116 111 l55 21 244 5 c134 3 254 9 267 14 34 14 36 14 129 -18z"/>
<path d="m-1220
-38 c24 -21 49 -43 54 -49 6 -7 37 -14 70 -16 l60 -4 65 -44 c36 -24 67 -45
69 -47 2 -1 -2 -9 -9 -18 -20 -24 -48 -18 -103 22 -28 20 -92 54 -144 75 -98
39 -163 81 -163 104 0 28 55 15 101 -23z"/>
<path d="m-36 -83 c44 -28 96 -53 115 -56 60
-11 203 -86 220 -116 l15 -28 -22 -21 -21 -22 -78 47 c-74 43 -134 59 -134 35
0 -5 17 -17 38 -25 133 -53 200 -103 186 -138 -12 -31 -38 -27 -97 14 -36 26
-85 49 -129 61 -84 23 -132 47 -216 105 -35 24 -71 44 -80 44 -19 0 -49 17
-42 23 12 11 70 37 82 37 7 0 42 -18 78 -40 70 -43 90 -49 90 -25 0 18 -65 67
-135 102 -60 31 -59 29 -50 42 3 6 27 11 53 11 l48 0 79 -50z"/>
<path d="m-140 -191 c81
-56 201 -115 250 -123 43 -8 170 -79 184 -103 13 -25 0 -62 -31 -88 -37 -31
-59 -31 -123 -1 -28 13 -72 26 -98 30 -28 4 -69 22 -104 45 -62 41 -103 58
-103 43 0 -12 50 -50 110 -84 42 -24 188 -78 253 -92 34 -8 35 -29 2 -61 -37
-38 -78 -33 -165 22 -41 25 -107 61 -146 79 -63 29 -107 55 -247 149 -42 28
-43 44 -6 62 l25 12 38 -10 c44 -12 55 -7 32 16 -19 19 -21 45 -3 45 6 0 32
-9 56 -20 59 -27 63 -18 9 19 -23 17 -52 37 -63 45 l-20 16 24 20 c34 29 59
25 126 -21z"/>
<path d="m738 30 l39 -10 -5 -19 -5 -18 42 -11 c76 -19 155 -22 230 -10
l75 13 82 -14 c58 -9 99 -23 138 -45 34 -20 77 -35 108 -39 28 -4 90 -24 137
-46 l86 -40 54 0 c67 0 191 -28 207 -46 6 -8 8 -25 5 -39 -9 -36 -86 -111
-122 -118 -38 -7 -174 28 -246 64 -37 19 -73 29 -102 29 -29 0 -62 10 -99 29
-30 16 -74 32 -98 36 -23 4 -56 13 -74 20 -59 25 -240 67 -320 75 -44 4 -110
15 -146 25 l-66 19 -51 -27 c-28 -15 -56 -27 -62 -27 -18 0 -11 35 20 97 32
65 52 86 90 102 33 13 38 13 83 0z"/>
<path d="m-22 -215 l64 -26 65 6 65 7 73 -47 73 -46
59 -7 c39 -5 71 -16 97 -34 22 -15 50 -27 63 -27 47 0 196 -31 244 -51 27 -12
83 -23 125 -26 87 -7 111 -16 111 -44 0 -23 -74 -100 -121 -125 -19 -10 -56
-18 -84 -18 l-50 0 -56 32 -56 32 -61 0 -61 0 -68 47 -68 46 -60 7 c-33 4 -85
19 -115 33 -30 14 -57 24 -60 21 -3 -4 15 -24 40 -45 31 -26 70 -47 123 -64
44 -14 108 -40 143 -56 35 -17 101 -39 147 -50 107 -25 177 -49 177 -59 0 -43
-240 -19 -357 36 -39 19 -76 34 -80 34 -4 0 -50 16 -102 35 -52 20 -112 35
-136 35 -28 0 -78 15 -149 46 l-106 46 -63 -11 c-89 -15 -87 -17 -70 31 33 97
77 123 199 116 41 -2 74 0 74 3 0 4 -20 17 -45 29 l-45 22 -60 -7 c-33 -4 -60
-4 -60 -1 0 14 34 62 59 83 33 29 53 29 132 -3z"/>
<path d="m-965 -60 c21 -15 57 -33 79
-41 23 -8 67 -40 105 -77 l65 -64 67 -26 c70 -27 168 -84 168 -96 0 -20 -32
-32 -68 -25 -20 4 -50 9 -67 11 l-30 5 48 -26 c48 -26 57 -41 35 -63 l-11 -11
-36 21 c-20 12 -82 52 -139 90 -97 64 -132 80 -132 59 0 -5 30 -27 68 -49 37
-22 75 -49 85 -60 45 -49 -42 -26 -117 32 -27 20 -72 49 -100 63 -28 14 -76
43 -107 65 -32 22 -90 52 -130 67 -46 16 -74 32 -74 41 l0 15 53 -3 52 -3 28
21 28 21 42 -14 42 -15 0 13 c0 7 -7 18 -15 25 -25 21 -17 45 16 49 3 1 24
-11 45 -25z"/>
<path d="m3011 -91 c6 -17 -58 -50 -112 -58 -74 -10 -95 -16 -89 -26 9 -15
78 -10 166 11 46 11 122 27 170 35 48 7 101 21 118 30 36 18 69 14 109 -14 14
-10 55 -25 91 -33 36 -9 119 -40 185 -71 66 -30 142 -63 170 -73 29 -10 69
-36 95 -62 l45 -44 -55 7 c-31 3 -77 18 -105 34 -27 15 -88 36 -134 46 -46 11
-99 29 -117 41 -70 48 -147 73 -290 95 l-81 12 -72 -16 c-73 -17 -261 -94
-261 -107 0 -4 -8 -10 -19 -13 l-19 -5 5 -24 5 -25 -33 -24 c-18 -13 -55 -30
-83 -39 l-51 -17 38 -7 c60 -11 46 -32 -39 -60 -28 -9 -60 -23 -70 -31 l-19
-14 23 -1 c50 0 15 -53 -48 -70 -46 -12 -58 -26 -30 -35 11 -3 20 -10 20 -14
0 -12 -31 -36 -65 -52 l-30 -15 3 -21 c2 -14 -5 -27 -17 -35 l-20 -12 11 -13
11 -13 -54 -53 c-30 -29 -65 -60 -79 -70 l-25 -16 34 11 c33 11 125 96 184
172 16 20 38 36 48 36 22 0 23 -4 7 -30 -18 -28 -6 -33 43 -20 64 18 137 6
279 -44 69 -24 133 -47 143 -51 9 -4 17 -3 17 3 0 10 -76 46 -124 58 -42 10
-180 69 -207 87 l-22 16 14 5 c8 3 23 6 34 8 12 2 21 12 23 26 6 42 51 47 137
17 l20 -7 -33 31 c-18 18 -43 31 -57 31 -42 0 -28 18 27 35 64 19 76 19 133
-1 26 -8 51 -14 57 -12 13 5 -104 68 -126 68 -23 0 -22 57 2 64 131 37 273 16
435 -63 l102 -51 85 -9 85 -10 100 -41 c55 -23 139 -55 186 -71 l87 -30 95
-79 c95 -78 117 -104 117 -134 0 -32 -55 -16 -136 39 -20 13 -52 28 -73 31
-20 4 -55 15 -79 25 -24 10 -70 23 -103 28 -33 6 -83 21 -112 34 -29 13 -81
27 -117 30 -70 7 -167 35 -227 65 -48 25 -183 65 -191 58 -3 -3 -3 -8 -1 -10
5 -4 159 -62 214 -81 129 -42 207 -65 227 -65 13 0 47 -11 77 -25 29 -14 79
-28 110 -31 33 -4 74 -17 101 -33 25 -14 65 -33 90 -41 62 -21 191 -93 187
-105 -7 -20 -50 -16 -110 9 -34 14 -81 30 -105 36 -23 6 -64 22 -89 35 -25 14
-57 25 -71 25 -13 0 -85 20 -158 45 l-133 44 -83 7 c-94 7 -183 32 -278 79
-68 34 -140 53 -140 37 0 -6 17 -13 37 -17 20 -4 60 -18 87 -32 107 -54 222
-94 296 -102 41 -5 93 -16 115 -26 22 -9 65 -23 95 -31 127 -31 228 -63 275
-86 43 -22 101 -39 213 -64 39 -8 25 -31 -28 -44 l-49 -12 -96 22 c-107 24
-141 21 -49 -5 99 -28 108 -31 111 -42 11 -31 -137 -42 -227 -18 -30 8 -82 18
-115 21 l-60 6 -40 -16 -40 -17 -90 16 c-172 31 -187 35 -256 66 -39 16 -82
29 -96 27 l-27 -3 -13 -65 c-25 -127 -34 -154 -68 -209 -19 -31 -35 -62 -35
-68 0 -7 -13 -22 -29 -34 -16 -12 -40 -42 -54 -68 -14 -25 -42 -62 -62 -81
-20 -19 -46 -52 -56 -73 -28 -53 -99 -119 -183 -169 -46 -27 -65 -44 -54 -46
51 -10 238 127 282 207 27 51 119 137 176 166 49 24 88 63 112 110 40 79 93
154 108 152 20 -3 24 -55 10 -119 -6 -28 -8 -54 -5 -57 10 -9 39 36 58 90 21
57 37 61 70 17 25 -33 26 -92 3 -137 -21 -39 -12 -55 13 -23 22 30 31 19 31
-36 l0 -45 19 17 c37 34 55 -4 24 -50 l-17 -26 16 -9 17 -9 -9 -28 c-31 -103
-89 -173 -186 -222 -63 -32 -126 -93 -119 -112 9 -24 -50 -55 -157 -83 -128
-33 -148 -43 -155 -77 -6 -31 -58 -77 -132 -118 -71 -39 -93 -80 -148 -275
l-28 -100 2 -135 2 -135 -26 80 -25 80 -8 160 c-4 88 -13 200 -20 248 l-12 88
11 13 11 13 -16 14 c-11 9 -14 23 -11 45 l5 32 -21 20 c-12 10 -30 22 -39 25
-10 4 -18 10 -18 15 0 5 -18 15 -40 22 -22 7 -45 19 -51 26 l-10 13 23 14 c13
8 39 18 58 21 37 6 80 31 80 45 0 10 -168 -45 -187 -61 -25 -21 -15 -48 25
-65 56 -23 111 -71 128 -112 l16 -36 -11 -31 -11 -32 10 -28 c19 -48 40 -174
50 -284 5 -65 18 -135 34 -185 15 -44 29 -100 32 -125 l5 -45 -39 42 c-22 24
-59 76 -83 115 -23 40 -58 92 -76 115 -19 23 -44 66 -57 95 -65 145 -248 285
-453 347 -91 27 -103 39 -103 102 0 54 -16 93 -49 123 -49 44 -11 108 72 121
41 7 89 27 115 48 l12 10 -11 13 -11 14 13 17 c8 9 51 33 97 54 45 21 101 51
125 67 38 26 158 72 189 72 6 0 -9 -14 -36 -30 -26 -17 -44 -34 -41 -39 5 -9
178 66 220 95 21 15 55 19 55 6 0 -5 -13 -21 -30 -37 -16 -16 -28 -30 -26 -32
7 -8 80 34 143 81 l62 47 -1 29 c-1 17 -3 30 -4 30 -2 0 -26 -13 -52 -30 -49
-30 -72 -37 -72 -22 0 4 5 13 12 20 16 16 -1 15 -32 -3 -14 -8 -34 -14 -44
-15 l-19 0 18 20 c28 31 9 36 -33 8 -47 -32 -138 -78 -152 -78 -18 0 -11 22
21 57 16 19 28 37 26 39 -2 2 -62 -25 -133 -60 -199 -99 -280 -112 -121 -20
49 29 110 76 152 118 39 39 95 84 125 100 72 38 98 62 106 100 7 32 57 107 93
140 49 44 15 33 -66 -23 -49 -32 -122 -75 -163 -94 l-75 -35 -113 -17 c-77
-12 -117 -14 -123 -8 -7 7 9 34 51 82 33 39 58 71 55 71 -3 0 -32 -18 -63 -39
-93 -65 -120 -64 -86 1 l16 31 -18 -8 c-37 -15 -54 -17 -54 -8 0 15 55 81 98
119 49 44 29 43 -33 -1 -28 -20 -70 -49 -94 -65 l-44 -30 -15 12 c-22 19 -7
63 45 127 94 115 123 154 123 164 0 11 -11 2 -98 -75 -30 -27 -58 -48 -63 -48
-5 0 -9 13 -9 29 l0 28 82 109 82 109 40 100 41 99 41 32 42 31 93 22 c52 13
121 27 154 31 33 5 89 14 125 20 60 11 172 8 275 -7 56 -8 35 11 -34 31 -30 9
-66 26 -79 39 l-24 22 -83 -2 c-108 -3 -171 -18 -207 -48 -28 -24 -85 -45
-120 -45 -36 0 -19 38 31 69 l49 30 -4 19 c-7 24 6 34 86 66 45 19 95 30 163
36 54 4 101 10 103 13 11 10 448 0 451 -10z"/>
<path d="m-2074 -333 c54 -22 114 -53 135
-69 44 -36 116 -63 146 -55 14 3 34 -4 56 -20 76 -56 96 -66 130 -66 37 0 80
-23 80 -42 0 -6 -7 -20 -17 -30 l-16 -18 -71 0 -71 0 31 -19 c47 -29 48 -37 6
-61 l-37 -23 -104 -9 c-57 -5 -111 -13 -120 -18 l-16 -10 23 -6 c27 -8 27 -13
5 -30 -42 -32 -252 -5 -298 38 l-20 19 22 5 c47 13 -24 54 -106 63 l-54 6 -18
25 c-11 14 -23 40 -28 58 l-10 33 30 30 c35 36 30 49 -16 49 -24 0 -39 7 -49
22 l-16 22 14 21 c14 21 236 123 271 124 12 1 65 -17 118 -39z"/>
<path d="m5277 -158 c0
-10 -171 -93 -240 -117 l-42 -15 4 13 c7 20 126 96 176 111 53 17 102 20 102
8z"/>
<path d="m-6732 -97 c17 -14 44 -47 62 -75 35 -54 126 -128 193 -157 23 -10 69 -31
101 -48 l60 -30 57 -70 56 -70 86 -47 c54 -29 108 -51 146 -57 34 -6 89 -16
122 -22 78 -13 218 -74 299 -129 65 -44 132 -70 181 -70 16 0 63 -14 105 -31
l77 -30 118 -6 c78 -4 133 -2 165 6 27 7 92 15 144 17 52 2 120 8 150 13 49 8
84 1 69 -14 -3 -3 -50 -16 -105 -30 -54 -13 -119 -35 -144 -47 l-45 -23 -103
-3 c-162 -6 -285 12 -431 62 l-129 43 -63 45 c-115 82 -163 100 -312 118 -107
13 -153 30 -232 85 -33 23 -78 51 -100 63 -22 11 -66 52 -100 92 l-59 72 -76
38 c-41 20 -92 43 -112 49 -48 16 -148 89 -177 130 -13 17 -31 55 -41 83 -26
74 -14 87 38 43z"/>
<path d="m6182 -4 c0 -12 -63 -41 -89 -41 -12 0 -21 5 -21 10 0 6 1
10 3 10 1 0 20 7 42 15 47 17 65 18 65 6z"/>
<path d="m-220 -110 c0 -9 -12 -14 -125 -56
-38 -14 -111 -48 -161 -75 -103 -55 -202 -95 -212 -85 -8 7 30 38 73 59 133
64 224 103 310 132 111 37 115 38 115 25z"/>
<path d="m-5167 -39 c52 -54 16 -60 -41 -7
l-37 34 26 1 c15 0 36 -11 52 -28z"/>
<path d="m162 -112 l18 -20 -17 -6 c-18 -7 -59 23
-50 37 9 15 30 10 49 -11z"/>
<path d="m4443 -97 c-3 -16 -52 -48 -191 -124 -32 -18 -84
-59 -115 -91 -31 -32 -66 -58 -77 -58 -24 -1 -44 -12 -115 -66 -30 -23 -63
-44 -72 -47 -29 -10 -31 12 -4 52 l26 37 -6 32 -7 33 19 20 c11 12 40 32 65
44 53 27 66 41 71 75 2 17 14 30 38 42 36 18 90 24 90 10 0 -4 -36 -45 -80
-90 -45 -45 -78 -82 -75 -82 14 0 65 32 110 69 27 22 65 48 85 57 19 10 49 27
65 39 53 40 109 65 143 65 l33 0 -3 -17z"/>
<path d="m-3475 -27 c3 -7 0 -19 -6 -26 l-12
-12 36 6 37 6 5 -14 c5 -13 -11 -33 -41 -50 -7 -4 -19 -2 -27 4 l-14 12 -49
-12 c-49 -13 -137 -7 -147 10 -3 4 -23 11 -45 15 -37 6 -57 25 -26 25 7 0 47
11 87 25 45 15 98 24 135 25 l62 0 5 -14z"/>
<path d="m-998 -41 c69 -43 122 -65 179 -76
30 -5 93 -23 140 -39 47 -16 120 -34 161 -40 84 -13 135 -31 155 -55 l13 -16
-114 7 -114 7 -92 33 c-51 18 -122 40 -159 49 -88 20 -264 115 -264 143 0 20
52 13 95 -13z"/>
<path d="m3532 -202 c3 -10 14 -27 25 -39 l19 -21 -3 -44 -3 -44 21 2 20
2 -4 -30 c-2 -16 1 -36 8 -44 l13 -15 -32 -51 c-20 -32 -29 -58 -26 -70 10
-31 -26 -78 -120 -155 -57 -47 -125 -91 -185 -120 -279 -135 -324 -158 -369
-189 l-49 -34 -122 -31 c-138 -34 -147 -38 -163 -70 -7 -13 -56 -45 -122 -80
l-110 -57 -73 -89 c-40 -49 -89 -122 -109 -161 l-36 -73 -4 -77 c-5 -94 -13
-120 -23 -78 -13 52 -10 167 5 232 20 87 82 239 122 300 l34 51 41 17 c58 23
118 73 134 111 17 41 28 47 134 74 114 29 138 43 160 94 l18 43 99 69 c54 37
117 84 141 103 63 52 132 139 132 167 0 36 101 128 185 169 40 19 98 60 135
94 67 62 96 74 107 44z"/>
<path d="m-2629 -50 c79 -6 98 -17 57 -33 -53 -20 -182 -9 -225
20 l-15 10 15 10 c8 6 33 8 55 5 22 -3 73 -8 113 -12z"/>
<path d="m492 -171 c0 -4 -54
-36 -120 -70 -110 -57 -170 -76 -170 -54 0 19 42 44 136 81 125 49 154 57 154
43z"/>
<path d="m-880 -107 c36 -12 63 -26 60 -31 -10 -19 -140 6 -204 38 l-19 10 14 9
c18 11 66 3 149 -26z"/>
<path d="m337 -61 l68 -16 80 7 c135 12 139 11 143 -7 5 -26 -57
-40 -176 -40 l-107 -1 -56 22 c-30 11 -64 28 -75 36 l-19 14 37 1 c20 0 67 -7
105 -16z"/>
<path d="M5501 5716 c-13 -14 -40 -32 -60 -41 -20 -10 -58 -28 -85 -42 -27
-14 -69 -31 -92 -38 -24 -7 -60 -26 -81 -43 -21 -16 -57 -39 -80 -51 -65 -32
-69 -51 -7 -32 16 5 40 12 54 15 14 3 46 26 73 50 l47 45 78 16 c42 9 95 22
116 28 l40 12 27 45 c15 25 28 48 28 53 2 17 -37 5 -58 -17z"/>
<path d="M3451 5013 c-19 -6 -52 -15 -73 -18 -21 -4 -40 -11 -43 -15 -11 -18
25 -25 145 -27 209 -4 230 -7 297 -41 62 -32 103 -41 103 -23 0 6 -46 38 -102
72 l-103 63 -94 1 c-52 0 -110 -5 -130 -12z"/>
<path d="M3496 4901 c-11 -17 109 -45 150 -35 l25 6 -17 19 -17 19 -68 0 c-37
0 -70 -4 -73 -9z"/>
<path d="M3980 4855 c0 -8 112 -77 155 -95 22 -9 74 -20 115 -24 41 -4 83 -12
93 -17 10 -6 23 -9 29 -7 23 8 -47 39 -152 68 -61 17 -133 41 -160 55 -45 23
-80 32 -80 20z"/>
<path d="M2580 4541 c0 -12 26 -21 58 -21 l27 1 -34 14 c-38 17 -51 19 -51 6z"/>
<path d="M3500 4687 c0 -14 64 -38 93 -35 l32 3 -21 12 c-24 14 -104 29 -104
20z"/>
<path d="M4635 4380 c-127 -20 -191 -33 -215 -46 l-25 -13 40 0 c22 -1 101 8
175 19 74 11 148 20 165 20 44 0 17 19 -35 24 -25 3 -72 1 -105 -4z"/>
<path d="M4490 4115 c-191 -38 -320 -84 -320 -115 0 -10 31 -1 67 19 10 5 54
22 98 37 l80 26 100 6 c55 2 124 5 153 6 28 0 52 4 52 7 0 11 -86 29 -127 28
-21 -1 -67 -7 -103 -14z"/>
<path d="M4477 3991 c-52 -27 -97 -41 -139 -46 -72 -8 -87 -15 -145 -64 -58
-48 -55 -60 5 -19 l47 33 145 39 c80 21 175 41 213 43 37 3 67 8 67 13 0 10
-74 40 -98 40 -10 0 -53 -18 -95 -39z"/>
<path d="M4385 3794 c-38 -19 -75 -34 -81 -34 -6 0 -18 -8 -25 -17 l-14 -17
20 8 c107 42 150 56 176 56 34 0 69 16 69 30 0 21 -78 7 -145 -26z"/>
<path d="M4981 3382 c-11 -21 -27 -44 -36 -52 -27 -23 -38 -50 -25 -65 l11
-14 -16 -25 c-21 -31 -7 -34 28 -6 35 28 75 116 74 163 -1 47 -12 47 -36 -1z"/>
<path d="M4383 2705 c-45 -24 -108 -49 -141 -55 l-60 -12 -45 -38 -46 -37 -49
-7 c-82 -11 -104 -59 -41 -92 l29 -15 0 -28 c0 -40 28 -60 101 -72 78 -14 109
-31 109 -64 l0 -24 45 -27 c25 -14 67 -51 94 -81 l49 -55 47 -136 c55 -162
106 -294 111 -289 3 2 -14 62 -35 133 -22 71 -50 166 -61 211 -26 98 -66 162
-132 211 -33 25 -48 43 -48 59 0 16 -8 27 -24 33 -13 5 -30 17 -37 28 -9 12
-32 21 -62 25 -64 9 -87 23 -87 52 0 26 -10 35 -55 50 -20 7 -30 17 -30 30 l0
20 50 9 c93 16 122 26 158 54 19 16 60 34 90 41 l54 12 54 46 c91 77 81 82
-38 18z"/>
<path d="M5037 2703 c-20 -16 -36 -32 -37 -36 0 -5 19 6 43 24 23 18 44 34 46
36 2 2 0 3 -6 3 -5 0 -26 -12 -46 -27z"/>
<path d="M4818 2544 c-73 -39 -80 -50 -81 -128 0 -33 -6 -58 -17 -71 -24 -28
-62 -106 -55 -113 16 -16 111 113 117 160 2 15 16 40 30 55 15 16 31 40 37 56
6 15 22 32 36 39 26 12 35 38 13 38 -7 0 -43 -17 -80 -36z"/>
<path d="M4592 1635 c0 -16 2 -22 5 -12 2 9 2 23 0 30 -3 6 -5 -1 -5 -18z"/>
<path d="M5954 3009 c-34 -21 -91 -96 -81 -106 7 -6 72 48 100 84 27 34 17 45
-19 22z"/>
<path d="M7310 4903 c1 -13 44 -60 65 -70 11 -6 44 -13 74 -17 62 -8 106 -28
115 -51 9 -25 8 -28 -10 -21 -8 3 -28 3 -42 -1 l-27 -6 55 -13 c115 -25 206
-56 260 -90 l55 -34 61 0 c38 0 67 5 80 15 l19 15 -18 14 c-9 7 -39 16 -66 19
-61 7 -111 32 -184 92 -73 59 -142 90 -253 115 -49 11 -105 24 -124 30 -41 12
-60 13 -60 3z"/>
<path d="M5990 4871 c0 -12 55 -58 93 -78 17 -8 59 -21 93 -28 33 -8 103 -35
155 -61 l94 -47 68 2 c72 1 88 -4 173 -62 30 -20 85 -43 131 -56 43 -11 112
-37 153 -57 l73 -36 47 5 48 6 103 -53 c57 -29 136 -70 174 -90 l70 -37 3 16
c6 27 -35 61 -101 86 -42 16 -82 42 -131 87 -39 35 -89 73 -110 84 l-40 20
-47 -5 -46 -6 -36 25 c-38 26 -73 31 -79 13 -5 -16 -119 24 -172 60 -22 16
-57 36 -76 47 l-35 18 -106 6 -106 5 -64 40 -63 39 -80 4 -80 5 -47 28 c-50
31 -59 34 -59 20z"/>
<path d="M8700 4841 c-30 -10 -48 -20 -40 -23 8 -3 38 -13 65 -23 28 -10 82
-19 120 -19 l70 -2 35 -21 c23 -13 59 -23 103 -26 l67 -5 0 29 c0 16 -3 29 -8
29 -51 0 -182 25 -228 44 -84 34 -120 37 -184 17z"/>
<path d="M9080 4680 c-8 -4 -40 -15 -70 -24 -31 -9 -65 -23 -75 -31 l-20 -16
35 4 c19 3 65 12 103 22 l67 18 0 18 c0 20 -15 23 -40 9z"/>
<path d="M9058 4605 c-31 -8 -76 -28 -100 -44 -25 -18 -76 -38 -123 -50 -44
-11 -105 -31 -135 -45 l-55 -25 33 0 c17 -1 32 -5 32 -10 0 -25 -206 -142
-327 -186 -40 -15 -73 -31 -73 -35 0 -8 49 2 70 15 5 3 38 11 72 16 62 10 103
29 204 95 28 18 74 42 103 54 28 11 62 26 74 34 12 8 49 20 82 26 33 7 93 26
133 43 l72 31 0 48 c0 26 -1 48 -2 47 -2 0 -28 -7 -60 -14z"/>
<path d="M370 4428 l0 -64 86 -12 c179 -26 324 -95 399 -189 74 -93 161 -175
250 -236 50 -34 114 -85 143 -114 l53 -52 49 -106 49 -105 45 -44 c25 -24 92
-72 148 -106 136 -83 176 -125 222 -236 68 -164 96 -197 224 -264 34 -18 93
-60 130 -93 101 -90 138 -112 300 -181 167 -72 280 -133 432 -235 97 -65 131
-79 113 -46 -27 48 -331 227 -537 316 -125 54 -159 76 -260 168 -49 44 -127
101 -173 127 -103 58 -131 89 -172 190 -17 44 -39 94 -49 113 -31 63 -108 136
-184 176 -82 43 -168 120 -203 180 -13 22 -35 70 -48 107 -35 97 -63 128 -195
215 -147 96 -220 169 -266 266 -22 46 -51 88 -79 114 -81 74 -272 151 -419
169 l-58 6 0 -64z"/>
<path d="M1491 4338 c0 -24 79 -78 113 -78 39 0 195 -52 240 -80 18 -11 39
-20 46 -20 l12 0 -13 17 c-22 26 -185 130 -225 143 -20 7 -49 9 -66 6 -18 -3
-41 0 -58 9 -35 18 -50 19 -49 3z"/>
<path d="M9058 4242 c-18 -16 -42 -34 -53 -40 -30 -17 0 -15 62 5 l53 17 0 23
c0 31 -22 29 -62 -5z"/>
<path d="M5400 4200 c20 -13 33 -13 25 0 -3 6 -14 10 -23 10 l-17 0 15 -10z"/>
<path d="M5580 4141 c0 -19 92 -57 205 -86 61 -15 131 -38 157 -51 26 -13 73
-31 104 -39 31 -8 72 -24 92 -35 19 -12 37 -19 40 -16 12 13 -64 66 -116 81
-31 9 -85 27 -119 41 -34 13 -72 24 -85 24 -33 0 -146 34 -193 57 -56 28 -85
36 -85 24z"/>
<path d="M370 3931 l0 -58 38 -7 c20 -3 54 -6 76 -6 53 0 208 -54 278 -96 75
-46 157 -121 226 -209 137 -172 245 -276 476 -460 127 -101 166 -141 232 -242
137 -208 352 -354 674 -460 148 -48 302 -120 450 -209 118 -70 340 -190 400
-216 94 -41 185 -59 344 -68 181 -11 262 -28 491 -101 184 -59 223 -77 360
-168 55 -36 107 -70 115 -75 l15 -10 -14 18 c-22 26 -206 163 -249 185 -117
59 -433 140 -607 156 -115 11 -185 24 -285 57 -109 36 -164 62 -258 122 -156
98 -321 178 -537 256 -175 64 -241 93 -332 147 -40 23 -120 62 -178 87 -58 24
-128 59 -155 76 -61 39 -129 113 -171 186 -68 120 -146 210 -295 341 -177 155
-278 259 -361 369 -124 164 -253 284 -380 354 -82 45 -243 90 -325 90 l-28 0
0 -59z"/>
<path d="M9045 3897 c-33 -18 -87 -49 -120 -69 -33 -21 -100 -55 -150 -77
-145 -63 -327 -138 -367 -151 -21 -6 -50 -27 -65 -45 -33 -40 -125 -97 -202
-126 -31 -11 -102 -43 -159 -70 l-103 -50 -80 -76 c-45 -43 -76 -79 -71 -81 5
-1 74 28 153 66 187 90 227 108 329 144 97 35 210 90 256 125 17 13 85 47 150
77 66 29 155 71 199 93 46 24 127 52 193 68 l112 28 0 89 c0 48 -3 88 -7 88
-5 0 -35 -15 -68 -33z"/>
<path d="M370 3681 l0 -68 78 -12 c269 -43 383 -104 563 -304 51 -56 168 -181
260 -277 l167 -175 84 -50 c170 -101 229 -155 322 -295 110 -165 270 -305 448
-390 46 -22 143 -56 216 -75 131 -35 196 -55 426 -134 141 -49 243 -75 350
-91 84 -13 537 -20 530 -9 -7 12 -134 29 -294 39 -278 17 -365 41 -675 185
-133 62 -235 101 -345 135 -185 56 -253 81 -330 122 -125 67 -224 157 -282
258 -43 75 -166 200 -263 268 -44 31 -111 82 -150 113 -112 91 -352 332 -481
483 -184 216 -276 277 -487 321 -64 14 -122 25 -127 25 -6 0 -10 -30 -10 -69z"/>
<path d="M8970 3566 c-301 -126 -441 -214 -640 -401 -67 -64 -158 -119 -367
-224 -162 -81 -221 -117 -392 -245 -80 -59 -190 -132 -245 -163 -407 -226
-453 -257 -581 -388 -149 -152 -206 -184 -457 -251 -70 -18 -149 -45 -176 -58
-69 -35 -144 -46 -233 -35 -40 5 -87 13 -104 19 -88 28 -229 44 -385 44 l-165
1 -55 -19 c-56 -20 -215 -110 -227 -129 -3 -6 38 13 91 42 54 28 128 59 164
67 l67 16 135 -5 c91 -3 163 -11 220 -25 47 -12 151 -30 231 -41 l146 -19 49
9 c27 5 69 16 94 24 25 8 92 23 150 34 136 25 261 71 347 128 37 25 118 94
179 153 131 128 206 179 403 272 155 75 306 167 462 285 134 101 253 174 404
248 175 86 232 124 356 241 l106 99 152 84 c83 46 212 111 286 144 l135 61 0
43 c0 28 -4 43 -12 42 -7 0 -69 -24 -138 -53z"/>
<path d="M372 3398 l3 -41 90 -22 c260 -64 431 -184 667 -466 126 -151 215
-232 346 -315 159 -101 207 -140 264 -213 77 -99 154 -176 243 -244 44 -33
125 -104 180 -157 113 -109 168 -145 264 -172 l66 -19 195 -9 195 -9 100 -26
c137 -36 262 -42 415 -20 84 12 155 16 224 12 113 -6 421 -63 578 -107 57 -15
104 -27 106 -25 2 1 -21 14 -50 28 -52 25 -136 49 -373 110 l-120 31 -315 1
c-173 0 -333 4 -355 9 -22 5 -91 21 -154 37 -63 16 -186 39 -275 50 -263 33
-316 52 -442 155 -43 35 -119 98 -169 138 -118 97 -168 149 -268 281 l-83 110
-107 70 c-58 39 -134 86 -168 105 -81 45 -175 138 -273 270 -153 205 -317 349
-454 400 -50 19 -200 56 -300 74 l-33 6 3 -42z"/>
<path d="M8978 3355 c-248 -136 -405 -247 -493 -351 -80 -94 -196 -174 -530
-369 -157 -92 -199 -120 -405 -269 -358 -258 -497 -352 -620 -417 -74 -40
-188 -103 -254 -142 -148 -88 -250 -132 -339 -148 l-69 -13 -102 17 c-55 9
-148 29 -206 46 -66 18 -142 31 -205 35 -54 4 -160 16 -235 26 -136 20 -288
25 -325 11 -11 -5 40 -10 123 -14 l142 -7 117 -29 c65 -16 156 -31 201 -35
l84 -6 166 -67 167 -68 115 0 115 0 80 33 c114 46 530 271 660 357 123 81 176
123 388 306 158 136 295 228 458 308 57 28 147 75 199 106 52 30 135 75 185
101 198 103 396 219 642 376 l82 53 0 33 c1 17 -2 32 -5 32 -12 0 -54 -26
-194 -119 -147 -99 -250 -161 -555 -336 -244 -141 -276 -158 -282 -152 -2 3 9
13 26 22 110 56 311 200 436 310 44 39 107 91 140 116 94 71 403 259 424 259
6 0 11 14 11 30 0 18 -5 30 -12 30 -7 -1 -66 -30 -130 -65z"/>
<path d="M1799 3352 c5 -10 18 -25 27 -33 10 -8 34 -50 55 -94 44 -94 88 -140
178 -185 38 -19 95 -61 140 -104 94 -89 124 -107 231 -141 109 -34 142 -49
207 -92 29 -19 87 -48 130 -64 79 -31 276 -131 342 -174 20 -14 87 -42 148
-64 133 -48 210 -89 277 -149 65 -57 88 -68 182 -87 163 -34 446 -129 489
-165 6 -5 24 -14 40 -20 l30 -11 -30 31 c-36 39 -198 119 -275 136 -143 32
-278 68 -311 81 -20 8 -60 41 -88 74 l-53 59 -101 49 c-56 27 -123 54 -149 60
-25 6 -120 47 -210 91 -90 45 -190 90 -222 101 -79 27 -120 49 -214 113 -44
29 -96 59 -117 66 -98 32 -224 102 -297 163 -42 36 -105 80 -140 99 -79 42
-120 83 -157 157 -16 32 -46 72 -66 89 -40 36 -61 42 -46 14z"/>
<path d="M7955 3154 c-164 -74 -225 -106 -330 -174 -49 -31 -110 -69 -135 -84
-110 -65 -173 -107 -246 -167 -159 -129 -201 -158 -314 -214 -196 -98 -239
-127 -357 -245 l-113 -111 -92 -43 c-106 -50 -339 -127 -452 -151 l-77 -15
-122 6 -122 7 -95 -17 c-52 -8 -150 -22 -218 -31 -75 -9 -145 -24 -180 -38
-58 -24 -197 -115 -188 -124 2 -3 40 18 84 46 44 28 110 62 148 75 l69 23 165
8 c201 10 286 8 412 -7 l96 -11 59 12 c32 6 91 25 130 41 38 16 126 45 194 65
184 52 217 71 344 200 115 116 164 154 255 200 93 46 211 131 293 209 112 107
195 167 332 237 66 34 157 86 203 116 46 29 120 72 165 94 87 43 247 137 247
145 0 13 -48 -3 -155 -52z"/>
<path d="M370 3101 l0 -49 102 -32 c132 -41 301 -125 395 -196 90 -67 215
-178 387 -342 72 -68 182 -163 245 -211 64 -49 151 -127 193 -174 l78 -85 122
-83 c74 -50 158 -118 212 -171 48 -49 108 -102 132 -119 60 -41 167 -85 271
-111 l88 -22 140 0 140 1 155 26 c225 37 230 37 520 27 257 -9 514 -34 660
-65 106 -22 116 -17 20 11 -98 28 -353 77 -488 95 l-94 12 -171 -9 c-189 -9
-430 -11 -547 -4 -41 2 -129 0 -195 -4 l-120 -9 -75 13 c-101 16 -184 45 -239
82 -25 17 -95 81 -156 143 -76 78 -142 134 -216 183 l-106 71 -94 101 c-63 68
-133 130 -214 188 -145 105 -231 180 -435 377 -158 153 -268 239 -376 293 -68
34 -240 96 -296 106 l-38 7 0 -50z"/>
<path d="M7185 3019 c-43 -27 -90 -60 -103 -72 -23 -21 -68 -97 -57 -97 3 0
59 45 124 100 164 137 172 153 36 69z"/>
<path d="M7512 3038 c-18 -11 -31 -23 -28 -25 5 -5 76 35 76 43 0 8 -15 2 -48
-18z"/>
<path d="M6805 2998 c-45 -32 -85 -71 -97 -92 l-11 -20 33 21 c43 28 120 94
120 105 0 13 -13 9 -45 -14z"/>
<path d="M7363 2921 c-45 -26 -115 -79 -157 -117 -112 -101 -89 -99 60 7 75
54 196 158 184 159 -3 0 -42 -22 -87 -49z"/>
<path d="M6624 2835 c-21 -20 -30 -32 -19 -26 20 9 73 61 63 61 -2 0 -22 -16
-44 -35z"/>
<path d="M372 2773 l3 -77 120 -41 c231 -79 408 -190 619 -387 281 -264 491
-434 669 -542 78 -47 155 -100 294 -203 97 -71 143 -91 358 -149 l180 -49 105
0 105 0 120 29 120 28 95 0 c52 -1 118 -5 145 -11 28 -5 149 -14 270 -20 358
-19 515 -31 605 -48 50 -9 144 -16 227 -17 l142 -1 13 13 13 13 -30 -8 c-48
-12 -161 -6 -293 16 -230 40 -346 51 -640 61 -161 5 -298 13 -304 16 -22 14
23 24 139 34 261 22 463 10 736 -41 147 -28 158 -18 17 15 -285 67 -629 90
-990 65 l-125 -8 -120 -36 -120 -35 -101 0 -102 0 -98 26 c-273 70 -358 110
-504 239 -41 36 -133 105 -204 153 -145 98 -434 340 -634 533 -215 208 -368
322 -537 404 -81 39 -261 105 -286 105 -6 0 -9 -31 -7 -77z"/>
<path d="M6885 2720 c-22 -22 -35 -40 -29 -40 13 0 79 68 73 75 -3 2 -23 -13
-44 -35z"/>
<path d="M6389 2657 c-65 -41 -90 -59 -206 -144 -91 -67 -182 -111 -289 -139
-116 -30 -181 -53 -284 -99 -47 -21 -112 -40 -169 -49 -53 -9 -109 -25 -129
-37 -20 -11 -77 -34 -127 -51 -127 -43 -200 -82 -263 -141 -117 -111 -213
-274 -211 -360 l0 -32 15 54 c8 30 28 77 44 105 59 103 195 241 280 285 62 32
381 129 485 147 l99 17 66 34 c36 19 135 63 220 98 85 34 173 73 195 86 55 33
180 124 251 184 33 28 71 58 84 67 53 36 2 15 -61 -25z"/>
<path d="M8995 2589 c-252 -139 -382 -250 -661 -559 -227 -251 -311 -332 -558
-540 -82 -69 -196 -165 -253 -215 -218 -188 -295 -246 -519 -393 -253 -166
-314 -198 -449 -237 l-90 -26 -115 -1 -115 -1 -80 22 c-146 39 -237 112 -305
242 -50 97 -80 209 -80 303 0 186 -51 250 -305 379 -133 68 -211 89 -330 90
l-90 1 -58 -27 c-31 -14 -57 -28 -57 -30 0 -2 23 2 52 9 72 19 222 18 289 -2
71 -21 274 -125 323 -166 21 -17 52 -52 67 -77 l29 -45 0 -47 c0 -26 -7 -76
-16 -111 l-17 -63 13 -140 c6 -77 17 -160 23 -185 l11 -45 55 -56 c87 -86 209
-137 385 -159 280 -35 533 28 786 195 36 24 103 66 150 93 184 109 256 160
344 246 149 144 283 264 421 376 196 159 318 274 488 458 300 325 459 459 672
568 l115 59 0 73 c0 39 -3 72 -8 72 -4 0 -57 -27 -117 -61z"/>
<path d="M6588 2461 c-257 -170 -324 -207 -603 -337 l-60 -28 23 -4 c57 -9
298 83 388 150 18 13 74 55 125 93 52 39 123 91 159 117 60 42 121 98 108 98
-3 0 -66 -40 -140 -89z"/>
<path d="M370 2337 l0 -84 88 -23 c288 -76 583 -249 841 -495 132 -125 180
-162 301 -230 93 -52 234 -149 320 -221 30 -25 82 -59 115 -75 l60 -28 130
-20 c72 -11 181 -29 244 -41 133 -24 234 -25 351 -5 47 8 125 21 174 29 49 9
181 23 295 33 l206 17 355 -3 c195 -1 434 -3 530 -4 l175 -2 58 18 c33 11 72
32 92 51 l35 33 0 44 -1 44 -13 -38 c-18 -48 -32 -64 -77 -88 -86 -43 -213
-47 -469 -13 l-125 16 -485 5 -485 5 -155 -33 -155 -32 -90 0 -91 1 -119 30
c-66 17 -162 38 -214 47 -110 19 -188 55 -281 130 -98 79 -153 115 -295 195
-158 89 -251 157 -364 265 -99 95 -319 271 -438 351 -126 85 -316 163 -480
199 l-33 7 0 -85z"/>
<path d="M6160 2319 c-80 -33 -192 -82 -250 -110 l-105 -50 -142 -35 c-78 -19
-152 -34 -164 -34 -12 0 -67 -11 -123 -25 -55 -13 -133 -28 -172 -33 -39 -6
-93 -21 -120 -35 -95 -48 -293 -243 -333 -327 l-12 -25 21 25 c11 14 34 42 51
63 17 21 76 75 131 121 115 97 163 119 313 141 56 8 121 22 145 31 31 11 100
19 225 24 99 4 180 8 181 9 78 73 176 138 317 209 91 46 171 90 177 98 16 18
27 22 -140 -47z"/>
<path d="M9005 2162 c-158 -84 -276 -172 -490 -368 -196 -179 -258 -232 -400
-339 -214 -162 -281 -220 -480 -415 -257 -252 -286 -273 -605 -438 -203 -105
-296 -143 -435 -177 -155 -38 -275 -48 -473 -42 -231 7 -406 46 -569 125 -74
35 -159 117 -171 165 l-11 38 13 38 c8 20 28 60 45 88 18 29 48 100 68 160 19
59 48 133 64 163 28 55 34 79 31 133 l-2 29 -62 62 -63 62 -105 51 c-58 28
-133 59 -166 67 -73 19 -279 20 -338 3 l-39 -12 129 -1 c214 -2 343 -42 474
-149 72 -58 100 -102 100 -160 0 -42 -11 -64 -87 -183 -72 -112 -80 -121 -196
-226 -104 -94 -127 -126 -127 -178 0 -71 64 -132 206 -199 242 -113 584 -170
934 -156 258 10 415 49 683 166 394 173 498 240 788 513 160 151 252 225 414
333 282 187 353 241 586 446 109 96 206 164 327 231 l72 40 0 89 0 89 -12 0
c-7 0 -53 -22 -103 -48z"/>
<path d="M4020 1760 c62 -18 168 -61 257 -105 159 -78 196 -92 128 -49 -136
86 -326 162 -445 178 -25 3 1 -8 60 -24z"/>
<path d="M9050 1668 c-30 -17 -107 -70 -170 -118 -166 -125 -249 -178 -395
-255 -278 -146 -359 -198 -571 -367 -321 -257 -545 -385 -983 -560 -300 -120
-448 -148 -775 -148 -336 0 -542 21 -823 85 -262 59 -441 133 -514 212 l-39
43 0 38 c0 82 95 180 247 256 110 55 263 157 307 207 78 86 96 177 51 256 -62
105 -265 204 -415 202 l-55 0 70 -18 c141 -37 198 -65 278 -140 60 -55 77 -88
79 -145 1 -54 -24 -107 -69 -147 -40 -34 -58 -43 -192 -95 -190 -72 -318 -148
-443 -263 -82 -76 -138 -151 -138 -185 0 -55 112 -135 258 -185 77 -26 328
-87 420 -101 288 -46 572 -72 867 -77 l250 -5 150 21 c267 37 433 89 745 231
74 34 153 69 175 78 50 20 359 182 440 230 33 19 139 86 236 148 195 125 337
200 507 268 212 85 238 101 511 306 l60 45 0 108 c1 59 -2 107 -6 107 -5 0
-33 -15 -63 -32z"/>
<path d="M372 1374 l3 -117 160 -42 c391 -104 668 -197 910 -308 188 -86 344
-145 415 -156 36 -6 115 -11 175 -11 110 0 361 -25 550 -55 55 -9 188 -20 295
-25 197 -9 235 -15 259 -44 l13 -16 -13 -32 c-7 -19 -95 -115 -200 -220 l-187
-188 128 0 128 0 30 53 c46 80 155 198 292 315 225 193 274 253 236 290 l-17
17 -82 3 c-45 2 -158 -6 -252 -18 -93 -12 -251 -24 -350 -27 l-180 -5 -160 16
c-88 8 -236 20 -330 26 -284 18 -273 14 -696 220 -190 93 -410 195 -490 228
-135 56 -409 150 -544 187 -33 9 -68 18 -78 21 l-18 6 3 -118z"/>
<path d="M4996 1424 c110 -66 164 -136 164 -214 0 -78 -51 -140 -148 -180 -21
-8 -82 -14 -165 -15 l-132 -1 -125 -43 c-201 -70 -329 -141 -463 -258 -127
-111 -187 -204 -187 -290 0 -108 99 -187 309 -247 l55 -16 365 1 c227 1 347 5
316 10 -27 4 -126 20 -218 34 -194 31 -241 42 -355 85 -258 99 -292 235 -100
396 135 112 248 178 452 263 l97 40 87 11 c127 16 166 28 213 68 49 42 69 84
69 145 l0 43 -29 46 c-31 49 -90 95 -173 133 -80 38 -101 31 -32 -11z"/>
<path d="M9035 1073 c-121 -85 -308 -192 -415 -235 -52 -22 -189 -68 -305
-103 -256 -78 -526 -171 -740 -254 -296 -116 -369 -142 -555 -196 -188 -54
-278 -76 -429 -100 -46 -8 -86 -16 -89 -19 -3 -3 35 -6 85 -6 140 0 289 33
818 180 354 99 458 122 760 175 432 75 588 127 868 287 l87 50 0 139 c0 77 -1
139 -3 139 -1 0 -38 -26 -82 -57z"/>
<path d="M370 785 c0 -69 2 -125 4 -125 3 0 85 -15 183 -34 98 -19 234 -44
303 -56 69 -12 229 -41 355 -66 l230 -45 155 -10 c293 -19 359 -34 394 -91
l10 -17 -24 -27 c-78 -83 -250 -120 -635 -136 -140 -5 208 -16 559 -17 l419
-1 83 46 c101 57 191 127 206 159 l11 25 -11 26 c-17 36 -75 58 -253 98 -238
53 -322 66 -556 81 -242 15 -300 27 -484 98 -169 66 -318 104 -569 148 -63 11
-170 31 -238 45 -68 13 -128 24 -133 24 -5 0 -9 -56 -9 -125z"/>
<path d="M9005 404 c-235 -72 -386 -91 -780 -99 -159 -3 -344 -12 -410 -19
-162 -18 -810 -105 -860 -115 -22 -5 449 -9 1063 -10 l1102 -1 0 140 c0 77 -1
140 -2 139 -2 0 -52 -16 -113 -35z"/>
</g>
  <text id="wordmark" x="112" y="192" fill="#f7f2ea" font-family="Arial Black, Arial, Helvetica, sans-serif" font-size="104" font-weight="900" letter-spacing="22">MARLEΛU</text>
</svg>
