<svg xmlns="http://www.w3.org/2000/svg" viewBox="0 0 963 641" role="img" aria-labelledby="title desc">
  <title id="title">MARLEΛU component line layers</title>
  <desc id="desc">Connected white ink components from the MARLEΛU mountain and vortex artwork.</desc>
  <rect width="963" height="641" fill="#030303"/>
<g id="component-layer-mountain" fill="#f7f2ea">
<path class="logo-component logo-component-mountain" data-component-index="20" data-area="2241" data-cx="610.8" data-cy="116.9" d="M 568.5 91.8 c -2.6 1.4 -2.7 1.7 -1 1.9 5.2 0.9 6.5 1.4 6.5 2.7 0 1.5 -3.6 3.1 -8.9 4 -1.8 0.3 -5.6 2.4 -8.3 4.6 -5 3.9 -5.2 4 -13.2 4 -6.5 -0 -9.3 0.6 -14.1 2.6 -3.3 1.4 -8.5 3.4 -11.5 4.3 -3 0.9 -8.3 3 -11.7 4.6 -4.8 2.3 -6.2 3.5 -6.2 5.2 -0.1 1.8 0.7 2.5 4.1 3.4 2.3 0.6 5.7 0.9 7.5 0.6 3.9 -0.7 20.4 -8 24.2 -10.7 2 -1.5 5.9 -2.3 16.6 -3.4 16.9 -1.8 25.9 -5 26.8 -9.6 0.7 -3.4 3.2 -4.1 10 -3 12.4 2 19 4.3 33 11.5 13.6 6.9 15.5 7.6 23.1 8.4 8.8 0.9 10.3 1.4 18.2 6.8 4.5 3 6.3 3.5 13.7 4.2 7.2 0.7 9.5 1.4 14.4 4.3 7 4.1 24.7 12.4 28.6 13.4 2.2 0.5 2.7 0.3 2.7 -1.3 0 -2.9 -3.6 -5.7 -13 -10.1 -5.4 -2.4 -11.3 -6.3 -16.1 -10.3 -9.3 -8 -14.9 -10.5 -28.1 -12.5 -11 -1.7 -12.8 -2.2 -37.3 -10.9 -20.6 -7.3 -24.9 -8.5 -30.6 -8.5 -7.3 -0 -17.1 -2.8 -19.6 -5.6 -2.5 -2.7 -5.4 -2.9 -9.8 -0.6 z m -52.5 30.2 c 0 1.4 -3.5 3 -6.7 3 l -2.8 -0.1 3.5 -1.9 c 3.9 -2.1 6 -2.5 6 -1 z"/>
<path class="logo-component logo-component-mountain" data-component-index="26" data-area="1493" data-cx="545.0" data-cy="186.4" d="M 560 166.6 c -2.9 1.3 -6.6 2.4 -8.4 2.4 -1.7 -0 -4.7 1.1 -6.7 2.4 -2 1.4 -5.3 2.8 -7.5 3.1 -3.5 0.7 -9.8 3.1 -20.9 8.1 l -4 1.8 6.9 0.6 c 4.3 0.3 7.1 1 7.4 1.8 0.2 0.7 -2 2.3 -5.5 4 -5.4 2.5 -6.7 2.7 -18.8 2.7 -7.1 -0 -14.5 -0.3 -16.2 -0.7 -2.8 -0.6 -3.3 -0.5 -3.3 1.2 0 1.5 1 2 5.7 2.6 3.1 0.4 10.4 0.4 16.2 0.2 10.7 -0.6 13.1 -0.3 13.1 1.2 0 1.7 -6.6 4.8 -11.5 5.5 -7.4 1 -9.5 1.6 -8.9 2.6 0.9 1.6 8.3 1 18.8 -1.5 5.5 -1.4 12.8 -2.8 16.1 -3.1 3.3 -0.4 8 -1.6 10.4 -2.7 l 4.5 -2 6 3.1 c 7 3.6 11.6 4.1 11.6 1.3 0 -1.4 -2 -2.5 -8.5 -4.6 -7.4 -2.5 -9.5 -2.8 -15 -2.2 -9.3 0.9 -8.5 -2.2 1 -4 2.2 -0.4 5.9 -1.6 8.3 -2.6 l 4.4 -2 8.3 2.6 c 4.6 1.4 9.2 2.6 10.3 2.6 1.1 -0 4.2 1.6 6.8 3.6 2.6 2 6.8 4.2 9.3 4.9 4.4 1.1 8.6 3.1 12.3 5.7 2.5 1.8 3.3 0.2 1.4 -2.7 -2.4 -3.6 -7.2 -6.3 -12.6 -7.1 -2.5 -0.4 -6.5 -2.1 -9.2 -4 -2.7 -1.8 -6.3 -3.5 -8 -3.9 -6.6 -1.2 -21.8 -5.9 -21.8 -6.6 0 -0.5 1.8 -1.3 4.1 -1.9 3.1 -0.9 4.3 -1.8 5.1 -4.1 1.2 -3.5 4.1 -4.4 10.6 -3.4 2.6 0.4 6.7 1 9.2 1.4 2.5 0.4 6.4 2 8.8 3.5 4.6 3.1 5.8 3 4.9 -0.6 -1.2 -4.8 -4.3 -6.8 -10.3 -6.8 -3 -0 -6.5 -0.5 -7.7 -1.1 -1.1 -0.7 -4.2 -1.8 -6.8 -2.4 -4.4 -1.2 -5.2 -1.1 -9.9 1.1 z"/>
<path class="logo-component logo-component-mountain" data-component-index="28" data-area="1455" data-cx="540.7" data-cy="135.8" d="M 576 116.1 c -1.4 0.6 -5.9 3.2 -10 5.9 -8.3 5.4 -11 6.2 -28.6 8 -13.3 1.4 -16.8 2.3 -26.4 6.5 -5.2 2.3 -10.3 3.6 -17 4.4 -5.9 0.8 -11.7 2.2 -15.3 3.8 -5.1 2.3 -5.8 2.9 -5.5 5.2 0.2 1.7 0.8 2.5 1.8 2.3 0.8 -0.2 6.2 -1 12 -1.7 11.9 -1.6 31.7 -5.8 37.3 -8 2.4 -1 7.3 -1.5 13.8 -1.5 8.9 -0 10.9 -0.4 17.9 -3.1 7.3 -2.9 11 -3.3 11 -1.1 0 1.3 -10 5.6 -19 8.2 -7.5 2.2 -13.5 4.8 -12.8 5.5 0.2 0.2 4.9 -0.2 10.3 -1 11.2 -1.6 25.6 -6.3 28.9 -9.4 1.1 -1.1 4 -2.3 6.4 -2.7 2.5 -0.4 4.2 -1.2 4.2 -2 0 -1.2 -5.7 -3.4 -8.8 -3.4 -2.2 -0 -0.5 -1.7 4.4 -4.4 5.3 -3 9.2 -3.3 13.5 -1 3 1.5 3 1.5 2.7 -0.7 -0.3 -2.2 -1.7 -2.9 -7.8 -4.3 -1.4 -0.3 -4 -1.9 -5.8 -3.6 -3.7 -3.3 -3.6 -3.3 -7.2 -1.9 z"/>
<path class="logo-component logo-component-mountain" data-component-index="31" data-area="1011" data-cx="379.1" data-cy="105.0" d="M 371 88.5 c -2.2 2.4 -2.9 2.5 -7.7 1.9 -7.2 -0.9 -14.3 1 -19 5.1 -2.1 1.8 -5 3.5 -6.3 3.7 -1.4 0.1 -2.6 1 -2.8 1.8 -0.2 1.2 0.7 1.5 3.7 1.5 2.2 -0 4.3 0.4 4.8 0.8 1.1 1.2 -1.8 2.7 -5.4 2.7 -2.1 -0 -3.3 0.5 -3.3 1.4 0 1 2.7 1.5 11 2 9.6 0.6 11.4 0.5 14.1 -1.1 l 3.1 -1.8 2.3 2.9 c 1.2 1.6 2.8 2.5 3.4 2.2 0.6 -0.4 2.1 -2.9 3.2 -5.7 1.2 -2.7 2.8 -4.9 3.5 -4.9 0.8 -0 5.1 1.9 9.7 4.1 12.7 6.5 21.5 9.9 29.5 11.4 4.9 1 10.4 3.1 16.7 6.5 7.8 4.2 10.6 5.2 17.1 6 4.4 0.5 9.5 1.2 11.4 1.6 3.1 0.7 3.4 0.6 2.2 -0.8 -2.3 -2.9 -7.9 -4.8 -15 -5.2 -5.9 -0.3 -7.8 -0.9 -11.7 -3.5 -7.4 -5 -11.8 -6.9 -19.3 -8.5 -3.8 -0.8 -10.1 -2.6 -13.8 -4.1 -3.8 -1.5 -9.3 -3.6 -12.2 -4.7 -5.6 -2.2 -15.2 -9.4 -15.2 -11.4 0 -0.6 0.7 -1.7 1.5 -2.4 0.8 -0.7 1.5 -1.9 1.5 -2.6 0 -2.3 -4.5 -1.6 -7 1.1 z"/>
<path class="logo-component logo-component-mountain" data-component-index="32" data-area="990" data-cx="91.7" data-cy="209.6" d="M 37 179.7 l 0 4 7.3 0.6 c 17.7 1.5 41 12 49.4 22.1 1.8 2.2 3.8 6.4 4.8 10.2 3.1 11.4 12.7 21.6 28.3 30 7.2 3.8 12.5 9.1 14.8 14.7 1.6 4 2.3 4.7 4.7 4.7 3.4 -0 3.5 -1.6 0.2 -7.9 -3.4 -6.7 -6.7 -9.8 -18.1 -16.6 -16.7 -10 -23.3 -17.8 -25.3 -30.2 -0.5 -3.4 -1.4 -7 -1.9 -8 -2.5 -4.6 -16.7 -14.8 -27.1 -19.5 -8.6 -3.8 -19.9 -6.7 -29.3 -7.5 l -7.8 -0.6 0 4 z"/>
<path class="logo-component logo-component-mountain" data-component-index="33" data-area="974" data-cx="550.5" data-cy="90.5" d="M 567.1 71.7 c 0.5 2.1 0.9 4.4 0.9 5.1 0 2.1 -5.9 4.9 -12 5.6 -3.7 0.4 -7.2 1.6 -9.5 3.2 -5.4 3.6 -12.5 7 -16.4 7.8 -1.9 0.3 -4.2 1.2 -5 2 -0.9 0.8 -4.2 1.9 -7.3 2.6 -6.8 1.3 -14.8 7.6 -14.8 11.6 0 1.3 0.2 2.4 0.5 2.4 0.3 -0 2.4 -1.3 4.6 -3 2.3 -1.6 5.7 -3.3 7.7 -3.6 2.9 -0.6 3.8 -0.3 5.1 1.5 l 1.7 2.2 5.4 -2.2 c 3 -1.3 7.8 -3.7 10.5 -5.5 4.1 -2.6 6.4 -3.3 13 -3.9 8.9 -0.8 10.7 -1.7 9.9 -4.9 -0.4 -1.8 0.3 -2.5 4 -4.4 4.7 -2.2 7.9 -2.1 6.9 0.4 -0.4 1 0.3 1.4 2.2 1.4 2.6 -0 2.7 -0.2 2.1 -3.8 -0.3 -2 -0.9 -4.7 -1.2 -5.9 -1 -3.7 2 -3.8 8 -0.4 3 1.6 8.1 3.7 11.3 4.4 3.2 0.8 7.5 2.2 9.6 3.1 3.5 1.6 3.7 1.5 3.7 -0.3 0 -2.2 -8.7 -6.4 -18.7 -8.8 -4.2 -1.1 -9.3 -3.3 -13.5 -6 -8.5 -5.5 -9.9 -5.6 -8.7 -0.6 z"/>
<path class="logo-component logo-component-mountain" data-component-index="34" data-area="914" data-cx="688.8" data-cy="185.1" d="M 633 167.8 c 0 2.5 0.7 3.2 5.1 5.3 3.9 1.8 6.9 2.4 12.3 2.4 6.9 -0 7.6 0.2 13.6 4.3 4 2.6 10 5.4 15.7 7.2 5.2 1.6 11.8 4.1 14.8 5.5 6.9 3.4 12.3 4.7 14.4 3.3 1.3 -0.8 4.2 0.3 12.6 4.5 6.1 3 13.9 7.1 17.5 9.1 3.6 1.9 6.8 3.6 7.3 3.6 0.4 -0 0.7 -0.9 0.7 -1.9 0 -2.7 -5 -6.6 -10.9 -8.6 -3.3 -1.1 -7.4 -3.8 -12.3 -8.2 -9.6 -8.6 -13.8 -10.7 -19.9 -10 -3.9 0.5 -5.2 0.2 -8 -1.9 -3.5 -2.6 -7.5 -3.2 -8.1 -1.2 -0.6 1.8 -11.5 -2.6 -20 -8 -7 -4.5 -7.1 -4.5 -18.2 -5.2 -6.1 -0.3 -12.1 -1.1 -13.3 -1.8 -3 -1.7 -3.3 -1.6 -3.3 1.6 z"/>
<path class="logo-component logo-component-mountain" data-component-index="35" data-area="899" data-cx="363.1" data-cy="168.0" d="M 309 158.1 c 0 2.1 0.5 2.5 3.3 2.7 5.3 0.4 6.9 1.2 6.4 3.2 -0.4 1.4 0.4 2 3.7 2.9 7.9 2 14.8 2.3 22.7 1 10.8 -1.7 21.1 -0.1 29 4.6 3.5 2 7.8 3.6 11 4 3 0.4 9 2.3 13.4 4.3 6.1 2.8 9.9 3.8 16 4.3 4.4 0.3 8.8 1 9.8 1.4 1.4 0.6 1.7 0.2 1.7 -1.9 0 -2 -0.6 -2.7 -2.7 -3.1 -9.2 -1.8 -12.7 -3 -20.8 -7 -6.7 -3.4 -10.1 -4.5 -13.5 -4.5 -3 -0 -6.7 -1 -11 -3.1 -12.3 -5.9 -16.7 -6.9 -35.5 -8.4 -9.9 -0.9 -21.5 -1.8 -25.7 -2.1 -7.8 -0.7 -7.8 -0.7 -7.8 1.7 z"/>
<path class="logo-component logo-component-mountain" data-component-index="37" data-area="888" data-cx="70.5" data-cy="211.1" d="M 37 198.2 l 0 6.5 8.5 1.2 c 10.8 1.5 24.1 6.1 31.2 10.9 3 2 7.9 6.7 10.8 10.4 5.7 7.4 17.9 18.8 20.1 18.8 0.9 -0 1.4 -1.1 1.4 -2.9 0 -2.2 -0.9 -3.7 -3.4 -5.6 -4.9 -3.7 -11.4 -12.4 -13.2 -17.8 -4.1 -12 -27.2 -24.8 -49.5 -27.3 l -5.9 -0.7 0 6.5 z"/>
<path class="logo-component logo-component-mountain" data-component-index="38" data-area="867" data-cx="373.4" data-cy="85.0" d="M 378.5 69 c -0.9 2.8 -4.1 4.7 -9.5 5.5 -2.5 0.4 -6.4 1.8 -8.7 3.1 -4.2 2.5 -7.3 3.1 -7.3 1.5 0 -0.5 0.7 -1.4 1.5 -2.1 1.8 -1.5 1.9 -3.2 0.3 -4.8 -0.9 -0.9 -2 -0.3 -4.8 2.2 -2.1 1.8 -6.2 4.1 -9.1 5.1 -8.8 2.9 -12.4 5.1 -15.2 9.4 -3.2 4.8 -3.2 5 -1 6.6 1.4 1.1 2.1 0.8 4.3 -1.5 1.7 -1.8 4.1 -3.1 6.6 -3.5 2.1 -0.3 7.6 -1.4 12.2 -2.5 4.5 -1.1 10.1 -2 12.4 -2 2.6 -0 5.7 -0.9 8.3 -2.5 4.4 -2.5 5.5 -2.4 5.5 0.7 0 3.2 3.6 2.1 4.6 -1.4 0.6 -1.8 1.7 -3.4 2.7 -3.6 0.9 -0.2 3.7 1.3 6.3 3.2 2.5 1.9 7.1 4.5 10.1 5.6 3.1 1.1 11 4.7 17.7 7.9 6.6 3.2 14.5 6.3 17.5 7 2.9 0.6 7.5 2.4 10.2 3.8 5.5 3.1 7.4 2.5 3.8 -1.3 -3.1 -3.4 -6.2 -4.9 -12.7 -6.3 -2.9 -0.6 -8.6 -2.9 -12.8 -5.1 -4.1 -2.2 -12.1 -5.4 -17.6 -7.1 -7.5 -2.4 -11.2 -4.1 -15.1 -7.3 -4.6 -3.7 -5.2 -4.7 -5.5 -8.4 -0.3 -3.3 -0.7 -4.2 -2.2 -4.2 -1 -0 -2.2 0.9 -2.5 2 z"/>
<path class="logo-component logo-component-mountain" data-component-index="39" data-area="866" data-cx="632.0" data-cy="88.4" d="M 601.6 59.2 c -0.2 0.7 -0.7 2.1 -1 3 -0.3 1.1 0.2 1.9 1.3 2.3 3.2 1 10.1 6.4 10.1 7.9 0 1.1 -0.8 1.2 -3.6 0.6 -2 -0.5 -4.1 -1.3 -4.7 -1.9 -2 -2 -3.7 -1.2 -3.7 1.8 0 3.4 2.4 5.3 10 7.5 7.4 2.2 24 9.4 27 11.6 2 1.5 2.3 2.1 1.2 3.2 -1 1 -2.2 0.8 -6.1 -1.5 -3.6 -1.9 -21.2 -7.7 -23.8 -7.7 -0.2 -0 -0.3 0.7 -0.3 1.5 0 0.9 0.8 1.8 1.8 2.2 0.9 0.3 6.4 2.5 12 4.9 5.7 2.4 11.8 4.4 13.6 4.4 5.2 -0 9.5 1.7 15.1 5.9 2.9 2.2 8.6 5.1 12.6 6.6 12.1 4.2 11.2 4.1 10.4 1.4 -1.1 -3.9 -8.7 -10.6 -13.5 -11.9 -5.8 -1.6 -8.3 -3.3 -13.1 -9.3 -4.9 -6.2 -8.5 -8.7 -16.8 -11.7 -7.3 -2.7 -15.3 -8.6 -17.6 -13 -1.9 -3.6 -10.3 -9.7 -10.9 -7.8 z"/>
<path class="logo-component logo-component-mountain" data-component-index="45" data-area="718" data-cx="365.9" data-cy="193.1" d="M 317.2 181.3 l 0.3 3.2 8 -0 c 7.8 -0 8.2 0.1 15.4 4.7 6.1 4 8.3 4.8 12.1 4.8 3.5 -0 5.8 0.8 10 3.5 4 2.6 6.5 3.5 9.7 3.5 5.5 -0 17.6 2.6 21.4 4.5 1.6 0.9 6.8 1.9 11.5 2.2 8 0.6 8.4 0.5 8.4 -1.5 0 -1.6 -1 -2.2 -5.2 -3.2 -2.9 -0.6 -7.3 -2.2 -9.8 -3.6 -2.6 -1.5 -7.2 -2.9 -10.8 -3.4 -3.4 -0.4 -8.5 -2 -11.2 -3.4 -2.7 -1.4 -6.8 -2.9 -9.2 -3.2 -2.4 -0.4 -5.4 -1.2 -6.8 -1.9 -4.4 -2.2 -28 -7.5 -33.5 -7.5 -3 -0 -6.6 -0.4 -8 -1 -2.5 -1 -2.6 -0.9 -2.3 2.3 z"/>
<path class="logo-component logo-component-mountain" data-component-index="47" data-area="664" data-cx="570.2" data-cy="49.1" d="M 560.1 37.4 c -5.2 1.7 -8.3 4.5 -11.7 10.5 -2.2 4 -2.3 4.6 -0.9 6 1.4 1.4 1.8 1.2 4.6 -2.2 1.7 -2 3.7 -3.7 4.6 -3.7 1.3 -0 1.4 0.9 0.9 5 -0.7 4.9 -0.6 5 1.9 5 2 -0 2.5 0.5 2.5 2.4 0 1.4 -1 3.2 -2.2 4 -2.4 1.7 -2 1.9 2.4 1.6 1.4 -0.1 2.9 0.3 3.3 0.9 1.4 2.4 3.2 1.1 2.7 -2.1 -0.5 -3.3 0 -3.4 5.1 -1.3 1.3 0.6 1.7 0.2 1.7 -1.6 0 -1.7 -0.9 -2.8 -3 -3.7 -5.3 -2.4 -10.8 -11.6 -7.7 -12.8 0.8 -0.3 5.4 0.6 10.3 2 7.3 2.2 9.6 3.4 13.4 6.9 5.7 5.6 9.9 8.7 11.5 8.7 0.7 -0 1.5 -1.1 1.7 -2.5 0.4 -2 -0.1 -2.9 -2.8 -4.6 -1.9 -1.1 -5.7 -4.7 -8.4 -7.8 -8.8 -10.1 -19.7 -14 -29.9 -10.7 z"/>
<path class="logo-component logo-component-mountain" data-component-index="49" data-area="637" data-cx="552.4" data-cy="158.4" d="M 566 147.9 c -4.3 3.5 -14.5 7.6 -23.5 9.5 -4.4 0.9 -8.3 2.5 -11.3 4.7 -3.6 2.6 -5.8 3.4 -10.4 3.7 -5.3 0.4 -5.9 0.7 -5.6 2.5 0.5 3.2 6.4 4 15.1 2.2 4 -0.9 9.9 -2.1 13.2 -2.7 3.3 -0.6 8.5 -2.3 11.5 -3.8 3 -1.5 7.1 -3.3 9.1 -3.9 2.1 -0.7 4.1 -2.2 4.7 -3.6 1.4 -3.1 5.1 -4 10.7 -2.6 6.6 1.7 9.5 1.4 9.5 -0.7 0 -3.5 -2.5 -5.2 -9.5 -6.7 -9.1 -1.9 -9.4 -1.9 -13.5 1.4 z"/>
<path class="logo-component logo-component-mountain" data-component-index="51" data-area="591" data-cx="880.4" data-cy="196.3" d="M 905.1 180.6 c -2.9 0.8 -6.8 2.5 -8.5 3.8 -3.7 2.7 -7.3 4.1 -14.1 5.5 -4.3 0.8 -18.5 6.6 -18.5 7.4 0 0.2 1.6 0.1 3.5 -0.1 5 -0.6 3.8 1.4 -3.7 6.3 -7.3 4.7 -17.9 10.5 -19.3 10.5 -2 -0 -13 4.9 -13.3 5.9 -0.5 1.4 -0.6 1.4 6.1 -0.9 3.1 -1.1 6.9 -2 8.4 -2 3.3 -0 11.6 -3.7 17.7 -8 6.8 -4.6 22.5 -11.6 31.3 -13.8 4.3 -1.1 9.9 -3 12.6 -4.2 4.7 -2.1 4.7 -2.1 4.7 -7 0 -2.8 -0.3 -5 -0.7 -4.9 -0.5 -0 -3.2 0.7 -6.2 1.5 z"/>
<path class="logo-component logo-component-mountain" data-component-index="52" data-area="584" data-cx="765.4" data-cy="165.7" d="M 731 150.4 c 0 0.6 1.5 2.8 3.3 4.8 2.9 3.1 4 3.6 9.7 4.3 6.9 0.8 9.8 1.9 11.7 4.4 1.8 2.3 1.6 3.3 -0.6 2.6 -1.1 -0.3 -3.2 -0.3 -4.8 0.1 -2.5 0.7 -2.2 0.9 3.2 2 10.3 2.1 20.9 5.4 23.5 7.3 3.9 2.8 8.2 4.8 11.9 5.5 3.7 0.7 10.6 -0.8 11.7 -2.6 1.1 -1.7 -2.3 -3.6 -7.5 -4.3 -6.3 -0.8 -11.5 -3.4 -18.7 -9.2 -7.3 -5.9 -13.7 -8.8 -25.2 -11.3 -4.8 -1.1 -10.8 -2.6 -13.4 -3.4 -3.8 -1.2 -4.8 -1.2 -4.8 -0.2 z"/>
<path class="logo-component logo-component-mountain" data-component-index="54" data-area="524" data-cx="867.9" data-cy="176.1" d="M 877.5 169.5 c -5.3 2.1 -7.6 2.4 -19.3 2.4 -13.6 0.1 -18.3 1.1 -21.3 4.7 -1.9 2.3 -0.7 2.4 5.1 0.9 6.8 -1.8 23 -3.1 23 -1.9 -0.1 1.4 -6.2 4.9 -13 7.5 -4.5 1.7 -7.7 3.8 -11.2 7.4 -2.6 2.7 -4.8 5.6 -4.8 6.3 0 1.9 2.8 0.1 7.6 -5 4.6 -4.7 9.5 -7 19.4 -8.7 13.7 -2.3 20.6 -4.3 24.3 -6.8 2.3 -1.6 5.6 -2.8 8.7 -3.1 5.3 -0.5 5.7 -0.9 3.8 -3.4 -0.9 -1.2 -3.6 -1.8 -8.8 -2.2 -6.4 -0.5 -8.4 -0.2 -13.5 1.9 z"/>
<path class="logo-component logo-component-mountain" data-component-index="56" data-area="475" data-cx="593.9" data-cy="217.4" d="M 565 201.4 c 0 1.4 0.5 2.6 1.1 2.6 0.6 -0 7 2.6 14.3 5.9 7.2 3.2 15.3 6.6 18.1 7.6 2.9 1.1 6.9 3.7 9.5 6.3 l 4.5 4.3 -5 -0.6 c -2.7 -0.3 -7.2 -1.8 -10 -3.2 -2.7 -1.4 -7.4 -3.2 -10.2 -3.9 -5 -1.1 -5.3 -1.1 -5.3 0.7 0 1.3 1.3 2.2 4.9 3.3 2.8 0.8 7.6 2.8 10.8 4.4 3.2 1.6 9.1 4.6 13.1 6.6 6.6 3.4 7.2 3.6 7.2 1.7 0 -1.1 -1.2 -3.4 -2.7 -5.1 -1.9 -2.4 -2.3 -3.4 -1.4 -4 1.9 -1.1 -0.8 -5.7 -6.6 -11.1 -4 -3.8 -6.7 -5.2 -14.8 -7.9 -5.5 -1.8 -12.1 -4.6 -14.7 -6.2 -2.6 -1.6 -6.6 -3.2 -8.8 -3.5 -3.8 -0.5 -4 -0.4 -4 2.1 z"/>
<path class="logo-component logo-component-mountain" data-component-index="57" data-area="474" data-cx="484.1" data-cy="123.6" d="M 499.5 110 c -1.6 1.1 -4.7 2.5 -6.8 3.1 -3.5 0.9 -4.1 0.8 -6.2 -1.5 -1.3 -1.4 -2.6 -2.6 -2.9 -2.6 -0.3 -0 -2.3 1.9 -4.5 4.2 -3.7 4 -3.9 4.6 -4 10.9 -0.1 7.4 -1.2 11.3 -4.2 14.5 -1.9 2 -1.9 2.1 0 3.8 2.1 1.9 1.3 2.3 20.5 -11.1 1.7 -1.2 4.3 -2.4 5.9 -2.8 1.8 -0.4 2.7 -1.3 2.7 -2.6 0 -1 -0.2 -1.9 -0.5 -1.9 -0.2 -0 -3.3 1.5 -6.7 3.4 -8 4.3 -11.6 5.2 -12.4 3.1 -0.9 -2.2 1.1 -4.2 6.3 -6.5 2.5 -1.1 7.3 -4 10.8 -6.5 5.4 -3.8 6.2 -4.8 5.8 -7 -0.3 -1.4 -0.6 -2.5 -0.7 -2.5 0 -0 -1.4 0.9 -3.1 2 z"/>
<path class="logo-component logo-component-mountain" data-component-index="63" data-area="404" data-cx="488.0" data-cy="170.7" d="M 501 164.7 c -1.4 0.2 -6.7 1.3 -11.7 2.4 -5.1 1 -11 1.9 -13.1 1.9 -2.1 -0 -6.1 0.7 -8.9 1.5 -4.5 1.4 -5 1.7 -4.5 4 0.4 2.4 0.6 2.5 10.1 2.7 14.9 0.2 16.3 -0 30.3 -5.1 3.2 -1.2 7.1 -2.1 8.8 -2.1 2.5 -0 3 -0.4 3 -2.4 0 -1.9 -0.6 -2.4 -3.7 -3 -4 -0.6 -6.2 -0.6 -10.3 0.1 z"/>
<path class="logo-component logo-component-mountain" data-component-index="68" data-area="376" data-cx="106.9" data-cy="203.5" d="M 85 179.8 c 0 2.4 1.3 3.8 8.3 9 12.5 9.2 14 11.1 14.8 18.6 0.5 5.6 1.4 7.6 6.3 15 3.1 4.6 7 9.6 8.8 11.1 2.8 2.4 3.2 2.5 4.7 1.1 1.4 -1.5 1.1 -2.1 -3.6 -6.9 -2.8 -2.8 -6.5 -7.4 -8.2 -10.2 -2.9 -4.6 -3.1 -5.4 -2.5 -11.1 l 0.7 -6.3 -5.4 -5.3 c -5.7 -5.7 -21.4 -17.8 -23 -17.8 -0.5 -0 -0.9 1.3 -0.9 2.8 z"/>
<path class="logo-component logo-component-mountain" data-component-index="69" data-area="374" data-cx="315.8" data-cy="105.8" d="M 320.5 95.7 c -1.1 0.8 -4.3 2.5 -7.2 3.8 -6.3 2.8 -9.3 5.7 -9.3 9 0 1.8 -0.7 2.8 -2.5 3.5 -3.1 1.2 -3.1 1.7 -0.2 4.1 2.8 2.3 3.9 2.4 5.4 -0 0.9 -1.4 3.3 -2.3 8.5 -3.1 9.9 -1.7 13.8 -3.4 13.8 -6 0 -1.5 1 -2.5 3 -3.3 1.7 -0.6 3 -1.7 3 -2.4 0 -0.9 -1.7 -1.1 -6.7 -0.6 l -6.8 0.6 2.3 -2.6 c 2.3 -2.4 2.3 -2.6 0.5 -3.5 -1.3 -0.7 -2.4 -0.6 -3.8 0.5 z"/>
<path class="logo-component logo-component-mountain" data-component-index="73" data-area="326" data-cx="458.2" data-cy="215.5" d="M 454.2 211.1 c -5.9 0.7 -8.5 1.6 -13.2 4.6 -7.3 4.7 -8 7.4 -1.8 6.3 20.4 -3.8 25.4 -4.1 40.6 -2.7 9.1 0.8 10.2 -0.2 2.5 -2.3 -2.7 -0.7 -6.3 -2.4 -8.2 -3.8 -3.9 -2.9 -9 -3.5 -19.9 -2.1 z"/>
<path class="logo-component logo-component-mountain" data-component-index="75" data-area="320" data-cx="360.0" data-cy="143.3" d="M 345.1 139.6 c -1.5 0.6 -4.7 1.5 -6.9 1.9 -2.3 0.4 -4.4 1.1 -4.7 1.5 -1.1 1.8 2.5 2.5 15 2.8 20.6 0.4 21.6 0.5 28.9 4 13.3 6.3 14.3 3.3 1.4 -4.3 -4.7 -2.8 -9.1 -5.5 -9.9 -6.2 -1.8 -1.5 -20.1 -1.3 -23.8 0.3 z"/>
<path class="logo-component logo-component-mountain" data-component-index="76" data-area="310" data-cx="529.4" data-cy="67.7" d="M 544.6 52.9 c -0.4 0.5 -3 2.1 -5.9 3.4 -5.8 2.7 -9 5.4 -11.1 9.5 -2.3 4.4 -6.7 7.9 -14 11.2 -6.6 3 -6.8 3.2 -5.1 5 1 1.1 2 1.8 2.4 1.6 0.3 -0.2 5.6 -2.7 11.6 -5.6 11.9 -5.6 16.5 -9.1 16.5 -12.5 0 -1.4 1.6 -3.3 4.5 -5.4 5.6 -4 5.9 -4.5 3.6 -6.5 -1.2 -1.1 -2.1 -1.3 -2.5 -0.7 z"/>
<path class="logo-component logo-component-mountain" data-component-index="77" data-area="299" data-cx="60.5" data-cy="169.8" d="M 37 165.9 c 0 2.8 0.1 2.8 7.3 3.4 10.3 0.8 21.8 4.1 32 9 l 8.8 4.3 -0.3 -3.5 c -0.3 -3.4 -0.6 -3.6 -8.8 -7.1 -4.7 -2 -10.7 -4.3 -13.5 -5 -2.7 -0.7 -5.7 -1.9 -6.6 -2.7 -1 -0.9 -4.4 -1.3 -10.2 -1.3 l -8.7 -0 0 2.9 z"/>
<path class="logo-component logo-component-mountain" data-component-index="78" data-area="296" data-cx="395.7" data-cy="67.8" d="M 376.4 58.3 c -2.3 2 -2.5 2.6 -1.5 4.5 0.6 1.2 1.8 2.2 2.6 2.2 0.8 -0 1.5 0.4 1.5 1 0 1.8 3.9 1 5 -1 0.6 -1.1 1.7 -2 2.4 -2 0.7 -0 4.6 2.9 8.6 6.5 5.7 5.1 8.5 6.9 12.9 8.1 8 2.2 9.4 2.8 13.5 6.5 4.3 3.7 5.4 3.4 3.1 -1.1 -2 -3.9 -6.2 -6.5 -15 -9.1 -6.4 -1.9 -7.5 -2.7 -14.3 -10 -7.1 -7.5 -7.7 -7.9 -11.8 -7.9 -3 -0 -5.1 0.7 -7 2.3 z"/>
<path class="logo-component logo-component-mountain" data-component-index="79" data-area="283" data-cx="183.7" data-cy="168.0" d="M 196.4 156.1 c -1.8 0.5 -5.2 2.4 -7.7 4.2 -2.5 1.7 -8.3 5.9 -13 9.2 -8.2 5.8 -8.4 6.1 -6.9 8.3 0.8 1.2 1.9 2.2 2.4 2.2 0.9 -0 11 -4.5 17.7 -7.8 2.4 -1.2 3.7 -2.8 4.7 -5.6 0.7 -2.1 3 -5.6 5 -7.7 3.9 -4 3.5 -4.5 -2.2 -2.8 z"/>
<path class="logo-component logo-component-mountain" data-component-index="82" data-area="252" data-cx="690.9" data-cy="154.8" d="M 673.2 149.7 c 0.3 2.4 1.4 3.3 7.3 6.3 5.6 2.8 8.3 3.5 13.8 3.6 4.8 0.2 7.7 0.8 10.3 2.3 1.9 1.2 3.7 2.1 4 2.1 0.2 -0 0.4 -1.3 0.4 -2.8 0 -2.3 -0.9 -3.3 -5.2 -5.9 -6.7 -3.9 -7.8 -4.2 -17.1 -4.8 -4.2 -0.2 -8.9 -1.1 -10.7 -2 l -3.1 -1.6 0.3 2.8 z"/>
<path class="logo-component logo-component-mountain" data-component-index="83" data-area="245" data-cx="652.5" data-cy="143.5" d="M 632 139.3 c 0 2 1.3 2.7 9.8 5.5 6.9 2.3 11.6 3.2 16.2 3.2 4.3 -0 8 0.7 10.8 2 l 4.2 1.9 0 -2.5 c 0 -2.1 -1.1 -3 -6.7 -5.7 -5.8 -2.7 -8.4 -3.2 -17.3 -3.8 -5.8 -0.4 -12 -1.1 -13.7 -1.7 -3.1 -1 -3.3 -0.9 -3.3 1.1 z"/>
<path class="logo-component logo-component-mountain" data-component-index="86" data-area="217" data-cx="167.2" data-cy="213.5" d="M 149 207.4 c 0 2.2 8 7.6 11.3 7.6 3.5 -0 19.6 5.4 24 8 1.7 1.1 3.8 2 4.6 2 2.2 -0 -0.3 -2.4 -7.8 -7.7 -9.3 -6.5 -15.9 -9.4 -21.2 -9.2 -2.5 0.1 -5.4 -0.3 -6.6 -0.9 -2.9 -1.6 -4.3 -1.5 -4.3 0.2 z"/>
<path class="logo-component logo-component-mountain" data-component-index="88" data-area="205" data-cx="495.6" data-cy="97.9" d="M 504.7 83.2 c -0.8 1.3 -2.5 4.3 -3.8 6.8 -1.6 3 -4.4 5.8 -8.3 8.5 -3.2 2.2 -6.8 5.3 -8 6.8 l -2.1 2.8 2.4 1.9 c 2.4 1.8 2.5 1.8 8.5 -3 3.7 -2.8 6.1 -5.4 6.1 -6.6 0 -1 1.3 -3.7 2.9 -5.9 8 -10.8 7.8 -10.5 6.6 -12 -1.7 -2.1 -2.7 -1.9 -4.3 0.7 z"/>
<path class="logo-component logo-component-mountain" data-component-index="91" data-area="194" data-cx="614.8" data-cy="131.2" d="M 597 126.4 c 0 1.9 1 2.7 5.6 4.5 3.1 1.1 6.6 2.1 7.7 2.1 3.5 -0 11.7 2.8 16.3 5.5 5.1 3 5.4 3 5.4 0.7 0 -2.1 -3.8 -5.9 -9.3 -9.1 -2.7 -1.7 -5.7 -2.4 -11.1 -2.6 -4 -0.2 -8.9 -1 -10.9 -1.9 -3.6 -1.5 -3.7 -1.5 -3.7 0.8 z"/>
<path class="logo-component logo-component-mountain" data-component-index="92" data-area="186" data-cx="847.4" data-cy="164.3" d="M 850.4 158.5 c -0.4 0.8 -0.1 2.2 0.6 3 2.3 2.8 -0.7 3.4 -10 2 -3.8 -0.6 -5.1 -0.3 -7.9 1.7 -4.9 3.3 -5.4 5.4 -1 4.3 1.9 -0.5 6.6 -1 10.4 -1.1 17.7 -0.7 27 -2.9 20.3 -4.9 -1.3 -0.4 -4 -2 -6 -3.6 -4.2 -3.3 -5.6 -3.6 -6.4 -1.4 z"/>
<path class="logo-component logo-component-mountain" data-component-index="93" data-area="185" data-cx="144.4" data-cy="223.7" d="M 133 214.8 c 0 2.3 14.5 17.4 18.8 19.6 3.2 1.7 3.2 1.7 4.3 -1.1 0.9 -2.4 0.7 -2.9 -2.3 -5.2 -1.8 -1.4 -6.1 -5.3 -9.4 -8.8 -4.5 -4.6 -6.9 -6.3 -8.8 -6.3 -1.8 -0 -2.6 0.5 -2.6 1.8 z"/>
<path class="logo-component logo-component-mountain" data-component-index="94" data-area="184" data-cx="419.3" data-cy="143.4" d="M 405 139.9 c 0 2.2 0 2.2 14 7.1 5.8 2 11.3 4 12.3 4.5 1.6 0.7 1.8 0.3 1.5 -2.5 -0.3 -2.9 -1 -3.7 -6.3 -6.6 -4.7 -2.5 -7.7 -3.3 -13.7 -3.8 -7.2 -0.5 -7.8 -0.4 -7.8 1.3 z"/>
<path class="logo-component logo-component-mountain" data-component-index="95" data-area="178" data-cx="834.4" data-cy="157.1" d="M 828.5 154.8 c -2.3 1.1 -5.3 3.4 -6.9 5.2 -2.4 2.9 -2.5 3.5 -1.3 4.7 1.3 1.3 1.8 1.1 4 -1 3.3 -3.4 9.7 -5 18.3 -4.5 5.9 0.3 7.4 -0 8.2 -1.3 1.5 -2.4 -2.7 -4.1 -11.3 -4.6 -5.4 -0.3 -7.9 -0 -11 1.5 z"/>
<path class="logo-component logo-component-mountain" data-component-index="96" data-area="178" data-cx="348.8" data-cy="212.8" d="M 331.9 206.3 c 3.9 4.2 9.6 7.7 14.7 9.1 2.7 0.8 7.5 2.5 10.8 4 3.2 1.4 6 2.6 6.2 2.6 0.2 -0 0.4 -1 0.4 -2.3 0 -2.4 -5 -7 -9.5 -8.7 -1.5 -0.6 -4.4 -1 -6.6 -1 -2.2 -0 -6.1 -1.1 -8.7 -2.4 -2.6 -1.3 -5.8 -2.7 -7.2 -3.1 l -2.5 -0.7 2.4 2.5 z"/>
<path class="logo-component logo-component-mountain" data-component-index="97" data-area="176" data-cx="618.0" data-cy="161.4" d="M 599 153.9 c 0 1.3 5.6 5.9 9.9 8 2 1 5.6 2.2 8.1 2.6 2.5 0.4 6.9 1.8 9.9 3.1 2.9 1.3 5.5 2.4 5.8 2.4 0.2 -0 0.3 -1.4 0.1 -3.2 -0.4 -4.6 -6.8 -7.8 -15.6 -7.8 -5.4 -0 -7.5 -0.5 -11.9 -3 -5.7 -3.3 -6.3 -3.5 -6.3 -2.1 z"/>
<path class="logo-component logo-component-mountain" data-component-index="99" data-area="172" data-cx="262.2" data-cy="171.6" d="M 248 165.8 c 0 2.4 0.9 3.2 7.3 6.4 3.9 2 9 3.9 11.2 4.3 2.2 0.3 5.5 1.5 7.3 2.5 l 3.2 1.9 0 -2.9 c 0 -3.8 -2.5 -5.4 -12 -8.1 -3.9 -1.1 -9.4 -3.1 -12.1 -4.4 l -4.9 -2.5 0 2.8 z"/>
<path class="logo-component logo-component-mountain" data-component-index="100" data-area="171" data-cx="83.6" data-cy="166.3" d="M 69 162.8 c -3.4 0.7 -3.4 0.8 -1.2 2 1.2 0.7 6.2 2.1 11.1 3.2 5.2 1.1 10.7 3 13.1 4.5 2.3 1.5 4.3 2.5 4.5 2.3 0.2 -0.2 0.5 -1.7 0.7 -3.3 0.3 -2.8 -0.2 -3.2 -5.3 -5.8 -5.9 -3 -16.1 -4.2 -22.9 -2.9 z"/>
<path class="logo-component logo-component-mountain" data-component-index="101" data-area="164" data-cx="587.4" data-cy="67.1" d="M 575.1 62.2 c 0.1 4.2 9.4 9.7 16.5 9.8 1.6 -0 3.9 0.7 5 1.5 2.7 2.1 3.1 1.9 3.6 -1.6 0.4 -2.5 0 -3.3 -2.4 -4.5 -1.5 -0.8 -5.1 -1.9 -8 -2.4 -2.9 -0.6 -7.1 -1.9 -9.3 -3 -5.2 -2.5 -5.5 -2.5 -5.4 0.2 z"/>
<path class="logo-component logo-component-mountain" data-component-index="102" data-area="162" data-cx="721.4" data-cy="167.0" d="M 709 162 c 0 3.2 4.1 6.1 11.2 8.1 2.4 0.6 6.4 2.2 9.1 3.6 2.7 1.3 5.3 2.3 5.8 2.1 0.5 -0.2 0 -1.7 -1 -3.4 -2.5 -4.1 -10.7 -9.4 -14.6 -9.4 -1.7 -0 -4.7 -0.9 -6.8 -1.9 l -3.7 -1.9 0 2.8 z"/>
<path class="logo-component logo-component-mountain" data-component-index="104" data-area="156" data-cx="879.6" data-cy="159.3" d="M 870.2 156.8 c -5.1 1.6 -6.1 3.2 -2 3.2 1 -0 3.6 0.9 5.7 2 5.1 2.5 19.1 2.5 19.1 -0.1 0 -1.9 -8.3 -5.7 -13.9 -6.4 -2 -0.3 -6 0.3 -8.9 1.3 z"/>
<path class="logo-component logo-component-mountain" data-component-index="109" data-area="143" data-cx="376.4" data-cy="222.9" d="M 364 220.3 c 0 2.9 1.4 3.5 14 6.3 4.1 0.9 8.3 2.1 9.3 2.6 1.4 0.7 1.7 0.4 1.7 -1.6 0 -4 -5 -6.8 -13.9 -7.6 -4.2 -0.4 -8.4 -1.1 -9.3 -1.5 -1.4 -0.6 -1.8 -0.2 -1.8 1.8 z"/>
<path class="logo-component logo-component-mountain" data-component-index="110" data-area="141" data-cx="364.9" data-cy="67.2" d="M 365.8 63.9 c -3.7 1.4 -8 3.5 -9.5 4.7 -2.5 1.9 -2.6 2.2 -1.2 4.2 1.3 1.9 1.8 2 3.5 0.8 1 -0.7 4 -1.8 6.6 -2.4 2.6 -0.7 6.3 -2.1 8.2 -3.3 3.4 -2 3.5 -2.1 2 -4.5 -1.9 -2.8 -1.2 -2.9 -9.6 0.5 z"/>
<path class="logo-component logo-component-mountain" data-component-index="112" data-area="120" data-cx="467.2" data-cy="186.6" d="M 469.5 184.2 c -11.5 1.4 -14 2.2 -14.3 4 -0.3 1.6 0.6 1.8 8.5 1.7 12.5 -0.2 14.7 -0.8 15.1 -4.2 0.2 -1.8 -0.1 -2.6 -1 -2.5 -0.7 -0 -4.4 0.5 -8.3 1 z"/>
<path class="logo-component logo-component-mountain" data-component-index="113" data-area="120" data-cx="489.6" data-cy="183.0" d="M 484.5 181.4 c -4.3 1 -5 1.6 -5.3 3.9 -0.2 1.5 -0.1 2.7 0.2 2.7 0.3 -0 5.1 -0.9 10.8 -1.9 5.7 -1.1 11.4 -2.2 12.8 -2.4 l 2.5 -0.3 -3 -1.4 c -4.2 -1.8 -12.1 -2.1 -18 -0.6 z"/>
<path class="logo-component logo-component-mountain" data-component-index="114" data-area="119" data-cx="124.0" data-cy="206.1" d="M 118 197.8 c 0 1 1 4.5 2.3 7.7 2 5.4 2.9 6.3 7.5 8.8 l 5.2 2.8 0 -2.4 c 0 -1.8 -0.7 -2.7 -2.4 -3.1 -1.8 -0.4 -2.6 -1.7 -3.5 -5.2 -1.6 -6.4 -9.1 -13.5 -9.1 -8.6 z"/>
<path class="logo-component logo-component-mountain" data-component-index="115" data-area="116" data-cx="442.0" data-cy="152.2" d="M 433 149.7 c 0 2.6 0.6 3.2 4.3 4.7 2.3 1 6.8 2 10.1 2.3 5.2 0.5 5.8 0.4 5.5 -1.2 -0.5 -2.2 -6 -5.2 -11.9 -6.4 -2.5 -0.5 -5.3 -1.2 -6.2 -1.6 -1.5 -0.6 -1.8 -0.2 -1.8 2.2 z"/>
<path class="logo-component logo-component-mountain" data-component-index="116" data-area="112" data-cx="902.2" data-cy="164.3" d="M 893 162.6 c 0 3.2 3.9 5 12.3 5.7 l 6.7 0.6 0 -2.9 c 0 -2.7 -0.3 -2.9 -4.7 -3.5 -2.7 -0.3 -6.9 -0.9 -9.5 -1.4 -4.6 -0.8 -4.8 -0.7 -4.8 1.5 z"/>
<path class="logo-component logo-component-mountain" data-component-index="118" data-area="88" data-cx="268.7" data-cy="117.8" d="M 264.8 116.9 c -3.2 2.9 -3.3 2.9 -1.4 5 3.2 3.5 7.5 2.2 6.8 -2.2 -0.3 -1.3 0.4 -1.7 3.1 -1.7 3 -0 4.7 -1.3 4.7 -3.6 0 -0.2 -2.2 -0.4 -5 -0.4 -4.1 -0 -5.6 0.5 -8.2 2.9 z"/>
</g>
<g id="component-layer-left" fill="#f7f2ea">
<path class="logo-component logo-component-left" data-component-index="0" data-area="29506" data-cx="311.4" data-cy="255.4" d="M 364.5 117.1 c -1.6 0.5 -10.6 0.8 -20 0.6 l -17 -0.2 -6.9 3.3 c -10.1 4.8 -21.4 5.6 -16.1 1.2 1.7 -1.5 2 -4 0.4 -4 -0.6 -0 -2.4 1.1 -4.1 2.5 -3.6 3 -4.3 3.1 -9.1 0.5 -4.2 -2.3 -8.1 -2.7 -7.5 -0.8 0.3 0.7 2.9 2.5 5.9 4.1 7.1 3.7 7.6 4.3 5.6 6.5 -0.9 1 -1.7 3.2 -1.7 4.8 0 1.7 -0.6 3.8 -1.3 4.8 -1.2 1.6 -1.7 1.7 -3.6 0.6 -1.3 -0.6 -3.9 -2.6 -5.9 -4.4 -2.1 -1.8 -5.5 -3.9 -7.7 -4.6 -4.4 -1.4 -10.5 -5.7 -10.5 -7.3 0 -0.6 -0.7 -1.9 -1.6 -2.9 -1.6 -1.7 -1.8 -1.6 -5.1 1.2 -2.6 2.3 -4.3 3 -7.6 3 -7.7 -0 -11.7 1.8 -18.5 8.3 -3.5 3.4 -9.8 8.2 -14 10.7 -6.2 3.6 -8.1 5.4 -9.7 8.7 -1.1 2.3 -3.3 5.5 -4.9 7.2 -4.7 4.9 -1.3 6.8 5.9 3.1 2.2 -1.1 4 -2 4.2 -2 0.1 -0 0.7 0.9 1.3 2.1 1.6 2.9 -0.9 5.5 -9.5 9.5 -5.8 2.7 -7.6 4.1 -10.3 8.3 -5.1 7.9 -6.2 8.3 -23 9.2 -12.3 0.7 -15.4 0.5 -18.9 -0.8 -2.4 -0.9 -4.3 -1.9 -4.3 -2.3 0 -0.4 2.1 -1.1 4.7 -1.5 4.9 -0.7 16.3 -5.2 16.3 -6.4 0 -0.4 -0.6 -1.6 -1.4 -2.7 -1.4 -1.9 -1.7 -1.8 -11.5 1.6 -9.9 3.3 -10.2 3.4 -15.9 2 -3.1 -0.7 -11.3 -1.6 -18.2 -1.9 -13.2 -0.7 -18.1 -2.2 -22.4 -7 -2.6 -2.8 -3.3 -2.7 -3.8 1 -0.4 2.4 0.1 3.5 2.6 5.6 4.9 4.1 11.5 6.5 18.6 6.7 5.1 0.2 7.4 0.8 10.7 2.9 2.3 1.5 5 3.8 5.9 5.1 2 3.2 8.5 6.3 15.9 7.7 3.3 0.6 7.2 1.7 8.7 2.5 1.5 0.8 5.3 1.4 8.5 1.4 4.4 -0 7.4 0.8 13.3 3.5 9.6 4.4 25.2 10.4 31.1 11.9 4.4 1.2 11.1 4.9 25.7 14.4 3.7 2.4 8.3 5.2 10.4 6.3 2.6 1.3 3.8 2.7 4.3 5 0.4 1.7 0.3 3.5 -0.2 4 -1.2 1.2 -18.9 -4.1 -25.4 -7.6 -9.1 -4.9 -9.4 -2.4 -0.5 4 6.6 4.7 9.2 7.2 8.4 8 -0.4 0.4 -7.5 -1.7 -13.1 -4 -1.5 -0.6 -1.7 -0.4 -1.1 1.9 0.6 2.4 0.4 2.6 -2.6 2.6 -3.1 -0 -3.2 0.1 -1.8 2.3 0.8 1.2 3.7 3.4 6.4 4.9 5.4 2.9 10.4 8 8.5 8.6 -3.6 1.2 -28.4 -10.6 -36.8 -17.6 -7.4 -6.2 -14.4 -11.2 -15.5 -11.2 -0.4 -0 -0.8 1 -0.8 2.3 0 1.5 3.4 5.7 10.3 12.8 9.4 9.8 11 11 20 15.2 6.8 3.2 11.5 6.2 15.5 10 3.1 3 7.8 6.4 10.4 7.5 4.3 1.9 8.8 6.5 7.5 7.8 -0.6 0.7 -12.1 -1.4 -16 -2.8 -1.6 -0.6 -5.1 -3.8 -8 -7 -4.2 -4.9 -6.8 -6.8 -14.2 -10.3 -4.9 -2.3 -10.8 -4.9 -13 -5.6 -2.7 -0.9 -6.9 -4.3 -13.3 -10.6 -5 -5.1 -9.7 -9.3 -10.2 -9.3 -1.5 -0 -2.5 3.1 -1.4 4.5 0.5 0.7 2.6 3.8 4.6 6.9 4.7 7 14.3 14.2 24.8 18.5 7.9 3.2 12.5 6.9 20.1 16.2 5.6 6.7 19.7 13.5 31 14.9 12.8 1.5 25.2 6.4 37.7 14.6 6.5 4.3 11.4 6.3 15.9 6.4 1.7 -0 6.9 1.4 11.5 3.1 7.8 3 9.1 3.2 22.3 3.2 13.8 -0 34.1 -1.4 44.2 -3.1 5.1 -0.9 6.3 -0.7 6.3 0.9 0 0.4 -4.1 1.7 -9.1 2.8 -5 1.2 -12.3 3.5 -16.2 5.2 l -7.2 3.2 -16 -0.6 c -16.6 -0.7 -23.3 -2 -37.3 -7 -9.1 -3.4 -11.6 -4.6 -19.7 -10.3 -7.6 -5.3 -14.9 -7.9 -26.7 -9.4 -10.7 -1.3 -16.6 -3.3 -23.1 -7.8 -2.8 -2 -7.3 -4.8 -9.9 -6.2 -2.8 -1.5 -7.5 -5.8 -11.2 -10.1 -3.5 -4.1 -8.2 -8.4 -10.5 -9.7 l -4.1 -2.3 0.1 2.8 c 0 2.2 1.2 3.7 5 6.6 2.7 2 6 5.4 7.3 7.5 1.6 2.6 4.4 4.9 8.7 7.1 3.5 1.9 8.4 5.2 10.9 7.6 5.4 5 17 11.9 22.5 13.4 2.2 0.6 6.3 1.1 9.1 1.1 7 -0 10.8 1.4 18.6 7.1 3.7 2.6 8.2 5.6 10 6.5 1.8 1 2.8 1.9 2.2 2.1 -1.2 0.4 -5.4 -1.1 -17.9 -6.5 -10.8 -4.6 -11.5 -4.7 -11.5 -2 0 2.7 4.3 4.9 25.5 12.8 17.7 6.6 20.8 7.5 33 10 5.5 1 12.5 2.8 15.6 3.9 4.6 1.6 8.7 2.1 22 2.3 l 16.4 0.3 10 -4.8 c 9.4 -4.6 21.5 -8.4 21.5 -6.8 0 0.4 -1.1 1.4 -2.5 2.1 -1.5 0.8 -2.4 1.9 -2 2.8 0.3 0.7 0.5 1.8 0.5 2.3 0 1.2 13.8 -5.2 19.2 -8.9 3.9 -2.6 15.9 -7.2 19 -7.2 0.6 -0 -0.9 1.3 -3.5 3 -4.8 3 -6.4 5.7 -2.7 4.5 1.2 -0.4 6.9 -3.1 12.8 -6.1 5.9 -3 11.3 -5.4 12 -5.4 2.1 -0 1.3 1.7 -1.9 4.5 -1.7 1.4 -2.9 2.8 -2.6 3.1 0.9 0.9 9.6 -4.1 15.8 -9.1 4.7 -3.7 5.6 -4.9 5.1 -7 -0.2 -1.4 -0.6 -2.5 -0.8 -2.5 -0.2 -0 -2.6 1.4 -5.4 3 -2.8 1.7 -5.5 3 -6 3 -1.4 -0 -1.2 -1.4 0.2 -2.8 1.6 -1.6 0.5 -1.5 -3.9 0.3 -4.8 2 -6 1.9 -3.8 -0.5 3.3 -3.7 0.6 -3.3 -6.2 0.8 -8.3 5 -12 6.5 -12.8 5.1 -0.4 -0.5 0.8 -2.6 2.5 -4.5 1.7 -2 2.9 -3.8 2.6 -4.1 -0.3 -0.3 -2.9 0.8 -5.8 2.4 -10.8 6.1 -27.8 13.1 -27.8 11.5 0 -0.4 4.1 -3.2 9 -6.2 5.3 -3.1 11.6 -8.1 15 -11.7 3.3 -3.4 8.9 -7.8 12.5 -9.8 6.7 -3.8 10.5 -7.5 10.5 -10.5 0 -2.1 4 -8.3 8.3 -12.7 1.7 -1.8 2.9 -3.5 2.6 -3.7 -0.2 -0.3 -4 2 -8.4 5 -8.9 6.2 -23.3 13.4 -26.6 13.4 -1.2 -0 -6.2 0.8 -11.1 1.7 -5.9 1.1 -9.1 1.4 -9.8 0.7 -0.7 -0.7 1 -3.4 5 -8.2 3.4 -4 5.8 -7.2 5.3 -7.2 -0.4 -0 -3.2 1.7 -6.3 3.8 -3 2.1 -6.3 4.2 -7.2 4.5 -2.6 0.9 -3.2 -1 -1.3 -3.9 2 -3 1.5 -4 -1.3 -2.5 -1.2 0.6 -2.5 1.1 -3.1 1.1 -2.3 -0 -0.8 -2.5 5.6 -9.1 3.6 -3.8 6.2 -6.9 5.6 -6.9 -0.6 -0 -4.8 2.7 -9.4 6 -9.4 6.7 -12.5 7.4 -12.3 2.5 0.1 -2.2 2.5 -6 8.8 -13.9 4.7 -5.9 8.6 -11.2 8.6 -11.8 0 -1.2 -4.7 2.2 -8.5 6.2 -1.6 1.7 -4.2 3.8 -5.7 4.6 -2.7 1.4 -2.8 1.4 -2.8 -1.4 0 -1.9 2 -5.5 6.3 -11.1 10.5 -14.1 11.3 -15.4 14.1 -23.3 4.4 -12.3 7.7 -15.3 20.4 -18.3 5.7 -1.4 7.2 -2.1 7.2 -3.6 0 -1.5 -0.5 -1.7 -2.9 -1.3 -6.3 1.3 -4.3 -3.6 3.1 -7.8 2.6 -1.5 3.4 -2.4 2.6 -3 -2.2 -1.3 0.4 -4.1 5.3 -5.9 2.4 -0.9 5.7 -2.1 7.4 -2.8 1.6 -0.7 7.5 -1.7 13 -2.3 5.5 -0.5 12.1 -1.2 14.8 -1.5 3.8 -0.4 4.7 -0.9 4.7 -2.4 0 -2.2 -3 -2.5 -9.5 -0.9 -5.5 1.4 -27.7 4.2 -28.2 3.6 -0.3 -0.3 1.8 -1.7 4.6 -3.3 2.9 -1.6 5.1 -3.5 5.1 -4.5 0 -1.1 -0.6 -1.5 -2 -1.1 -1.1 0.3 -2 0.1 -2 -0.4 0 -1.6 7.3 -8.3 9.7 -8.9 2.7 -0.7 3.4 -5.4 0.8 -5.4 -2.6 -0 -1.7 -2.8 1.8 -5.4 1.7 -1.3 6.1 -3.8 9.7 -5.5 5.6 -2.7 7.3 -3 12 -2.6 3.4 0.4 8.4 -0 13 -1 4.1 -0.9 11.3 -2.3 16 -3.1 8.8 -1.5 10.7 -2.4 9.5 -4.4 -1.2 -1.9 -11.5 -0.3 -20.8 3.2 -7.2 2.6 -9.1 2.9 -15.4 2.5 -6.7 -0.5 -7.7 -0.3 -14.3 2.9 -4 1.9 -7.4 3.4 -7.6 3.4 -0.2 -0 -0.4 -0.8 -0.4 -1.8 0 -2 3.1 -5.2 6.6 -7 1.6 -0.9 2 -1.8 1.6 -3.7 -0.3 -1.7 -0.9 -2.4 -1.8 -2.1 -1.8 0.7 -1.8 -0.9 0.1 -2.7 1.2 -1.3 1.2 -1.7 -0.6 -3.3 -2 -1.8 -2.1 -1.8 -6 2.3 -2.6 2.8 -3.9 5.2 -3.9 7 0 4.8 -1.3 5.7 -4.9 3.9 -3.6 -1.9 -4.3 -0.4 -0.9 2.3 2 1.7 2.1 2.1 0.8 5 -0.7 1.8 -3 6 -5.2 9.2 -2.1 3.3 -3.8 6.3 -3.8 6.7 0 1.7 -5.7 6.2 -8.5 6.7 -1.7 0.4 -4.9 -0.1 -7.4 -0.9 -5.4 -2 -5.1 -2 -5.1 0.2 0 1.2 1.4 2.2 4.3 3.2 5.4 1.9 5.8 4.2 1.7 9.9 -4 5.4 -10.3 8.5 -14.8 7.1 -2.9 -0.8 -3.2 -0.6 -3.2 1.2 0 1.1 0.8 2.7 1.8 3.4 1.6 1.2 1.6 1.5 -0.4 5.1 -3.1 5.5 -11.8 11.3 -17.4 11.6 -2.5 0.1 -5.5 -0.2 -6.7 -0.6 -2 -0.7 -2.3 -0.5 -2.3 1.7 0 1.9 0.7 2.7 2.5 3.2 1.4 0.3 2.5 1 2.5 1.4 0 3.7 -24.5 1.8 -33.2 -2.6 -7.9 -4 -30 -11.4 -34 -11.4 -2.3 -0 -8.3 -1.9 -14.9 -4.6 l -11.1 -4.7 -7 1.3 c -3.8 0.6 -7.1 1 -7.3 0.8 -0.2 -0.2 1 -3.3 2.8 -6.8 2.8 -5.6 3.7 -6.7 7.2 -7.8 2.5 -0.9 6.7 -1.2 11.3 -0.9 3.9 0.2 7.2 0.1 7.2 -0.4 0 -0.4 -2.1 -1.7 -4.6 -2.9 -3.7 -1.8 -5.6 -2.1 -10 -1.6 -6.1 0.7 -6.6 -0 -3.6 -4.7 3.8 -5.6 7.8 -7 13 -4.3 1.5 0.7 3.7 1.7 5 2 1.9 0.7 2.2 0.4 2.2 -2.2 0 -2.5 -0.6 -3.2 -3.1 -4.1 -4.7 -1.6 -7.1 -1.4 -12.3 1.4 -2.6 1.4 -5.1 2.5 -5.7 2.5 -1.7 -0 -0.9 -3.6 2.2 -9.8 3 -6.1 6.9 -10.2 9.5 -10.2 0.8 -0 1.4 -0.9 1.4 -2 0 -2.5 -0.2 -2.5 -5.1 -0 -3.6 1.9 -4 1.9 -4.6 0.4 -1 -2.8 3 -8.7 7.8 -11.4 3 -1.6 6.6 -2.6 11.4 -3 3.8 -0.3 7 -1 7 -1.5 0 -0.6 -3.1 -1.1 -6.8 -1.3 -6.2 -0.3 -7.3 -0 -11.6 2.8 -2.6 1.6 -5.3 3 -5.9 3 -2.4 -0 -1.1 -4 2.6 -7.9 5.8 -6.1 10.4 -7 39 -7.6 14.7 -0.3 25.1 -0.9 26.4 -1.6 1.6 -0.8 3.9 -0.5 10.6 1.6 4.7 1.5 10.6 3.7 13.1 5 2.6 1.3 6.3 2.6 8.4 2.9 3.1 0.6 3.7 0.4 3.6 -1.1 -0.1 -2.6 -8.3 -8.3 -16.8 -11.4 -4.1 -1.6 -9.9 -4.5 -13 -6.6 -3.1 -2.1 -6 -4.1 -6.6 -4.4 -0.5 -0.3 -2.3 -0.2 -4 0.2 z m -104.4 20.8 c 4.8 4.3 6 4.9 11 5.3 4.2 0.3 7.1 1.3 11 3.8 8 5 9.1 6.1 7.8 7.7 -1.8 2.1 -4.8 1.5 -8.8 -1.5 -5 -4 -8.4 -5.7 -17.2 -9.1 -11.7 -4.4 -19 -11.1 -12.1 -11.1 1.9 -0 4.5 1.5 8.3 4.9 z m -5.8 6.5 c 3.6 2.5 9.6 5.4 13.4 6.6 10.6 3.3 19.6 8.1 21.2 11.4 1.2 2.5 1.1 3 -0.7 4.9 l -2 2 -4.8 -2.9 c -9.2 -5.6 -10.9 -6.4 -13.6 -6.4 -4.2 -0 -3.3 1.9 2 4.2 2.6 1.1 6.6 2.9 9 4 7.3 3.5 10.1 7.9 6.7 10.8 -1.2 1 -2.1 0.8 -5 -1 l -3.5 -2.2 0 2.9 c 0 2.2 0.8 3.3 4 5.1 3.3 1.9 4 2.8 4 5.3 0 3.6 -5 8.9 -8.3 8.9 -1.2 -0 -4.4 -1.1 -7.2 -2.4 -2.7 -1.4 -7.1 -2.7 -9.6 -3.1 -3.1 -0.4 -6.9 -2.1 -11.4 -5 -6.8 -4.5 -10 -5.6 -9.3 -3.3 0.7 2 12.1 9.4 17.4 11.3 9.8 3.5 15 5.2 17.8 6.1 3.9 1.2 4.2 2.5 1.2 5.7 -3.7 4 -7.9 3.6 -15.7 -1.5 -3.5 -2.2 -9.8 -5.7 -13.9 -7.6 -4.1 -2 -10 -5.2 -13 -7.2 -3 -2 -8.1 -5.3 -11.2 -7.3 -3.2 -2.1 -5.8 -4.1 -5.8 -4.6 0 -2.3 3.2 -3.4 8.5 -2.8 5.6 0.6 6.7 -0.1 4 -2.3 -1.9 -1.5 -2 -4 -0.2 -4 0.8 -0 3.5 1.1 6 2.4 2.6 1.3 4.7 2 4.7 1.6 0 -1.1 -4.3 -4.6 -7.7 -6.4 -4.5 -2.2 -5 -3.6 -2.2 -5.7 3.5 -2.7 5.7 -2.3 12 2.1 3.2 2.2 6 4 6.3 4 0.3 -0 0.6 -1.2 0.6 -2.8 -0.1 -2.1 -1.2 -3.5 -5.3 -6.3 -2.9 -2 -6.7 -4 -8.5 -4.3 -1.7 -0.4 -3.2 -1.1 -3.2 -1.6 0 -0.5 2 -1.6 4.5 -2.5 l 4.5 -1.8 6.8 4.2 c 7.2 4.3 9.2 4.9 9.2 2.8 0 -2.4 -8.7 -8.8 -15.7 -11.6 -5.5 -2.2 -4.2 -4.1 2.8 -4.1 4 -0 5.8 0.7 11.2 4.4 z m -37 44.6 c 1.4 1.1 4.5 2.7 6.9 3.6 2.7 0.9 6.7 3.8 10.8 7.9 4.5 4.4 8.2 7 12 8.5 6.8 2.7 18 8.8 18 9.9 0 2.1 -3.2 3.3 -6.8 2.6 -9.8 -1.9 -10 -1.8 -4.9 1.1 4.8 2.8 5.6 4.1 3.6 6.1 -1.1 1.1 -3.4 -0.1 -22.4 -12.2 -3.8 -2.5 -7.5 -4.5 -8.2 -4.5 -2.9 -0 -0.9 2.1 5.6 6 3.8 2.3 7.7 5 8.6 6 1.8 1.9 1.7 2 -1.1 2 -2 -0 -5.6 -1.9 -10.9 -5.6 -4.4 -3.1 -9.1 -6 -10.5 -6.5 -1.4 -0.6 -5.6 -3.1 -9.4 -5.7 -3.7 -2.6 -10 -5.8 -14 -7.2 -4.5 -1.6 -7.1 -3 -7.1 -4 0 -1.2 1.1 -1.4 5.3 -1.2 4 0.3 5.8 -0.1 7.7 -1.6 2.6 -2 5 -2 9.2 0.1 3.2 1.5 3.7 0.5 1.3 -2.6 -1.1 -1.4 -2 -3 -2 -3.6 0 -1.8 5.6 -1.2 8.3 0.9 z m 87.9 40.1 c 2.3 1.2 6.2 2.7 8.8 3.5 2.5 0.7 6.6 2.9 9.1 4.9 5.1 3.9 11.6 6.5 16.4 6.5 2.4 -0 4.7 1.1 8.1 4 3.9 3.2 5.7 4 8.9 4 4.3 -0 8.5 2.2 8.5 4.5 0 2.8 -4.2 4.5 -11 4.5 l -6.5 -0 3.3 2 c 1.7 1.1 3.2 2.6 3.2 3.3 0 1.9 -8.2 5.8 -11.6 5.5 -4.4 -0.4 -17.4 1.3 -18 2.4 -0.3 0.5 0.3 1.2 1.5 1.5 2.6 0.7 2.6 1.2 0.4 2.9 -4.2 3.2 -25.2 0.5 -29.8 -3.8 -2 -1.9 -2 -1.9 0.2 -2.4 1.3 -0.4 2 -1.1 1.7 -1.6 -1.1 -1.8 -8.8 -4.8 -12.2 -4.8 -4.4 -0 -6.9 -1.4 -8.7 -5 -2.3 -4.4 -1.9 -8.1 1.2 -10.5 3.2 -2.7 2.4 -4.5 -2.2 -4.5 -2.4 -0 -3.8 -0.6 -4.5 -1.9 -2.5 -4.8 -1.4 -5.7 15.5 -12.7 5.5 -2.3 10.8 -4.3 11.8 -4.3 1 -0.1 3.6 0.8 5.9 2 z m -60.9 42.7 c 5.1 5.4 2 5.9 -3.9 0.7 -3.8 -3.3 -3.8 -3.4 -1.3 -3.5 1.5 -0 3.6 1.1 5.2 2.8 z m 15.8 11.1 c 2.2 1.8 2.2 2 0.6 2.6 -1.9 0.8 -4.7 -1 -4.7 -3.1 0 -1.9 1.4 -1.7 4.1 0.5 z m 96.6 14.1 c -0.6 2.8 -0.5 2.9 1.9 2 4.7 -1.8 6.2 1.8 1.9 4.6 -2.2 1.4 -2.6 1.4 -4.6 -0 -2 -1.3 -2.5 -1.3 -5.2 0.1 -3.6 1.8 -11.6 1.3 -16.2 -1.1 -1.6 -0.9 -4 -1.6 -5.2 -1.6 -3.9 -0 -2.5 -1.5 2.5 -2.8 2.6 -0.6 7 -1.8 9.7 -2.6 2.8 -0.8 7.4 -1.5 10.4 -1.5 l 5.4 -0.1 -0.6 3 z m -95.9 4.4 c 5 3 9.3 4.8 14 5.6 3.7 0.7 10.1 2.5 14.2 4 4.1 1.5 10.9 3.3 15 3.9 10 1.6 14.6 3 16.7 5.3 1.7 1.8 1.4 1.9 -9.3 1.2 -8.9 -0.5 -12.9 -1.3 -21.9 -4.4 -6 -2 -12.8 -4.1 -15 -4.5 -4.2 -0.7 -19.7 -8.3 -24 -11.7 -7 -5.5 0.9 -5 10.3 0.6 z m 87.7 23.5 c 10.4 0.9 8.2 3.8 -3.1 4 -5.4 0.1 -15.4 -2.4 -15.4 -3.9 0 -1.5 2.4 -1.9 7 -1.3 2.5 0.3 7.7 0.9 11.5 1.2 z m 47.5 17.5 c -2.7 2.6 -22.9 12.6 -25.5 12.6 -7.9 -0 3.3 -6.5 22 -12.8 4.3 -1.5 5.1 -1.4 3.5 0.2 z m -93.2 8.2 c 4.8 1 13.2 4.6 12.7 5.4 -0.9 1.4 -12.2 -0.7 -19 -3.5 -2.9 -1.3 -3.5 -1.9 -2.4 -2.5 0.7 -0.5 2.5 -0.7 3.9 -0.4 1.4 0.3 3.5 0.7 4.8 1 z m 39.9 8 c 4.8 1.1 9 1.4 14.3 1 14.4 -1.2 14.4 -1.2 14.8 0.6 0.5 2.7 -6.7 4.1 -19.8 3.6 -9.3 -0.3 -12.5 -0.8 -16.7 -2.7 -2.9 -1.3 -5.3 -2.7 -5.3 -3.2 0 -1.4 5.1 -1.1 12.7 0.7 z"/>
<path class="logo-component logo-component-left" data-component-index="2" data-area="6910" data-cx="258.4" data-cy="532.2" d="M 37.2 452.1 l 0.3 10.2 5.5 1.4 c 27.7 6.9 52.3 18.6 85.9 40.8 23.8 15.7 46.8 29.5 58.5 35.1 17.4 8.4 32.3 10.5 74.4 10.5 27.5 -0 34 -0.5 59.2 -4.6 23.9 -3.8 29.3 -4.5 43.9 -5.6 11.7 -0.9 17.2 -0.9 22 -0.1 7.3 1.3 9.1 2.5 9.1 5.9 0 6.2 -6.5 13.3 -31.1 33.9 -11.2 9.4 -19.4 17.9 -24.8 25.6 -3.8 5.3 -5.1 12.1 -3.1 16.8 l 1.2 3 23.2 -0.1 c 18.3 -0 22.7 -0.3 21.2 -1.2 -12.5 -7.9 -14.7 -10.3 -15.4 -17.5 -0.9 -9.4 5.1 -18 24.4 -35.3 27.4 -24.4 33.9 -28.6 51.4 -33.4 5.2 -1.5 11.1 -3.3 13 -4 1.9 -0.8 6.2 -1.9 9.5 -2.6 3.3 -0.6 8.2 -2.3 10.8 -3.7 4.7 -2.5 4.8 -2.6 2.8 -4.5 -1.9 -1.9 -2 -1.9 -4.8 -0 -4.5 3 -9.7 5.1 -18.5 7.4 -7.8 2 -9.5 2.1 -27.8 1.3 -26.4 -1.2 -65.4 -0.9 -77 0.5 -5.2 0.6 -17.6 2.5 -27.5 4.1 -39.7 6.5 -65.3 8.2 -91.4 6.1 -29.9 -2.4 -36.4 -5.2 -74.1 -32.1 -12.3 -8.8 -18.7 -13.6 -43 -32.4 -9.1 -7 -22.8 -15.2 -35.3 -21.1 -9 -4.2 -32.9 -12.7 -39.5 -14 l -3.3 -0.7 0.3 10.3 z"/>
<path class="logo-component logo-component-left" data-component-index="3" data-area="6259" data-cx="204.4" data-cy="553.3" d="M 37.2 503.6 l 0.3 11.8 4.5 1.2 c 12.8 3.3 43.3 11.8 49 13.6 14.2 4.4 38.1 13.3 48.5 18 20.2 9.1 37.5 15.9 44.3 17.3 3.7 0.8 11.5 1.5 17.4 1.5 12.4 -0 36 2.3 53.3 5.1 6.6 1.1 21 2.4 32 2.9 22.9 1.1 24.6 1.4 27.1 4.1 1.7 1.9 1.7 2.1 -0.1 5.7 -1.1 2 -10.2 11.9 -20.2 22 l -18.2 18.3 13.1 -0.3 13.1 -0.3 2.8 -5 c 4.4 -8 14.3 -18.5 31.8 -33.7 16.3 -14.2 22.1 -20.5 22.1 -23.9 0 -5.5 -10.3 -6.2 -38.2 -2.7 -20 2.5 -56.2 3.1 -71.3 1.1 -4.9 -0.7 -17.5 -1.7 -28 -2.3 -10.4 -0.7 -21.9 -1.8 -25.5 -2.5 -7.6 -1.5 -17.6 -5.9 -50.9 -22.4 -13.4 -6.6 -31.4 -15 -40 -18.6 -14 -6 -47.7 -17.7 -59.1 -20.5 -2.5 -0.6 -5.3 -1.4 -6.3 -1.6 -1.6 -0.5 -1.7 0.3 -1.5 11.2 z"/>
<path class="logo-component logo-component-left" data-component-index="5" data-area="5894" data-cx="153.5" data-cy="588.6" d="M 37 562.5 c 0 12.1 0.1 12.5 2.3 13 1.2 0.3 18.4 3.4 38.2 7 19.8 3.7 41.4 7.7 48 9 17.7 3.4 25.2 4.4 43.5 5.5 9.1 0.6 18.1 1.5 20.1 2 4 1.1 10 4.9 10.6 6.6 0.7 2.1 -3.9 6.4 -10 9.3 -11 5.1 -20.4 6.5 -57.7 8.2 -1.9 0.1 0.6 0.5 5.5 1 5 0.4 28.3 0.7 51.9 0.8 l 42.9 0.1 7.6 -4.2 c 18.4 -10 25.7 -18.3 20.3 -23 -3.5 -3.1 -8.1 -4.7 -25.7 -8.6 -23.4 -5.3 -28.9 -6 -54 -7.7 -23.3 -1.5 -29.6 -2.8 -48.4 -9.9 -17.6 -6.6 -31.1 -10.1 -56.1 -14.6 -12.4 -2.2 -25.5 -4.7 -29.2 -5.5 -10.6 -2.4 -9.8 -3.2 -9.8 11 z"/>
<path class="logo-component logo-component-left" data-component-index="8" data-area="4824" data-cx="202.5" data-cy="482.3" d="M 37 407.5 l 0 8.4 4.3 1.1 c 31.9 7.9 62.4 25.4 89.8 51.6 11.4 11 18.1 16.1 29.4 22.4 9.8 5.4 22.2 13.8 28.8 19.6 9.7 8.4 17.2 11.9 30.2 13.9 6.1 0.9 17 2.8 24.3 4.1 16.3 2.9 26.4 3 41.9 0.3 6.5 -1.1 14.2 -2.4 17.2 -2.9 2.9 -0.5 19.4 -1.9 36.5 -3.1 31.5 -2.2 56.6 -2.2 89.6 -0 21 1.4 34.9 -1.1 41.5 -7.4 3 -2.8 3.5 -3.9 3.5 -7.6 l -0.1 -4.4 -1.3 3.8 c -0.8 2 -2 4.4 -2.7 5.3 -2.4 3 -8.9 5.4 -17.1 6.5 -8.7 1.2 -9.7 1.2 -39.3 -2 -16.1 -1.8 -25.6 -2.1 -62 -2.1 -23.6 -0 -45.5 0.4 -48.5 1 -3 0.5 -9.9 1.8 -15.3 3 -13.8 2.8 -25.5 2.6 -38.7 -0.6 -5.8 -1.4 -15.8 -3.6 -22.2 -4.9 -12.7 -2.5 -20.8 -6.1 -28.1 -12.5 -6.9 -6 -16.5 -12.4 -29 -19.4 -18.2 -10.2 -21.5 -12.5 -37 -26.9 -21.4 -19.7 -44.1 -36.4 -60.2 -44.2 -9.3 -4.5 -30 -11.5 -34.2 -11.5 -1 -0 -1.3 2.4 -1.3 8.5 z"/>
<path class="logo-component logo-component-left" data-component-index="9" data-area="4172" data-cx="197.2" data-cy="448.3" d="M 37 363.7 l 0 7.9 9.3 2.8 c 12.5 3.8 31.3 13 42.1 20.7 5 3.5 14.6 11.6 21.4 17.9 34 31.4 51.1 45.2 70.2 56.5 7.5 4.5 13.2 8.4 25 17.4 4.7 3.5 11.2 7.7 14.5 9.2 3.3 1.6 15 5.1 26 8 19 4.8 20.5 5.1 29.5 4.6 5.2 -0.3 13.3 -1.6 18 -2.8 10.7 -2.9 25.2 -3 57 -0.6 12.4 0.9 30.6 2.1 40.5 2.7 9.9 0.6 21.6 1.8 26 2.6 4.4 0.8 14.1 1.7 21.5 2 10.7 0.5 14.2 0.3 17 -0.8 3.3 -1.4 3.1 -1.5 -6.1 -1 -6.9 0.3 -13.1 -0.1 -22.5 -1.7 -26 -4.3 -34.8 -5.1 -64.5 -6.1 -16.6 -0.6 -30.6 -1.3 -31.2 -1.7 -2.1 -1.3 2.8 -2.3 15.9 -3.3 27.1 -1.9 43.6 -1 70.7 4.1 15.7 2.9 16.4 1.8 1.2 -1.8 -21.3 -5.2 -42.8 -7.3 -73 -7.3 -24.2 0.1 -34.9 1.3 -49.5 5.5 -11.9 3.5 -13.1 3.6 -24 3.2 -10.1 -0.3 -13.5 -1 -27.3 -5.1 -22.3 -6.5 -26.7 -8.9 -42.9 -23.2 -2.6 -2.3 -10.7 -8.2 -18 -13.2 -7.3 -5 -17.3 -12.5 -22.3 -16.8 -4.9 -4.2 -12.8 -10.9 -17.5 -14.8 -4.7 -3.9 -14.6 -13 -22 -20.2 -20.8 -20.2 -37.8 -33.2 -53.5 -41.1 -6.8 -3.4 -23.3 -9.7 -28.2 -10.8 l -3.3 -0.7 0 7.9 z"/>
<path class="logo-component logo-component-left" data-component-index="14" data-area="3335" data-cx="196.4" data-cy="402.9" d="M 37 301.2 l 0 4.3 9.8 2.3 c 23.6 5.5 41.4 17.2 60.3 39.5 16.3 19.4 27.2 29.6 40.4 38.2 17.5 11.3 20.9 14.1 28 23 7.5 9.5 15.4 17.2 25 24.5 3.9 3 11.1 9.3 16 14.1 17.1 16.5 22.9 18.7 52 20 16.6 0.7 21.6 1.3 29.5 3.4 12.8 3.5 27.8 4.2 42.8 2.1 6.2 -0.9 14.3 -1.6 18.1 -1.6 10.9 -0 54.5 8.3 67.5 12.9 7.6 2.7 7.1 1 -0.6 -2.3 -9 -3.8 -37.8 -11.6 -49.9 -13.5 -3.7 -0.6 -19.2 -1 -35.5 -0.9 l -28.9 0.2 -16 -4.1 c -9.5 -2.5 -21.7 -4.8 -30 -5.7 -25.7 -3 -32.2 -5.5 -47.1 -18.4 -4.9 -4.3 -11.9 -10.1 -15.5 -13 -8.3 -6.5 -15.5 -14.2 -24.6 -26.4 -3.9 -5.2 -8.9 -10.8 -11 -12.5 -3.4 -2.6 -16.9 -11.2 -27.7 -17.5 -6 -3.5 -15.2 -13 -24.7 -25.8 -16 -21.5 -31.3 -34.4 -47.4 -40.1 -4.6 -1.6 -27.5 -6.9 -29.9 -6.9 -0.3 -0 -0.6 1.9 -0.6 4.2 z"/>
<path class="logo-component logo-component-left" data-component-index="18" data-area="2814" data-cx="167.4" data-cy="417.2" d="M 37 330.9 c 0 3.3 0.5 5.3 1.3 5.5 19.3 5.6 38 14.3 49.7 23.2 8.6 6.6 19.9 16.7 38.5 34.3 7.1 6.8 17.3 15.5 22.5 19.4 5.2 3.9 14.2 11.9 20 17.8 7.2 7.3 13.8 12.9 21.1 17.7 6.7 4.4 14.6 11 21.4 17.7 8.9 8.8 12.2 11.2 19 14.6 4.5 2.2 12.7 5.1 18.1 6.6 14.1 3.7 32.6 3.7 54.7 -0 8.7 -1.5 17.3 -2.7 19.2 -2.7 2.3 -0 3.5 -0.5 3.5 -1.4 0 -1 -3.7 -1.5 -16.2 -2.1 -21.3 -1 -23.3 -1 -36.8 -0.1 -15.1 1.1 -27.4 -0.9 -37.9 -6 -6.1 -3 -9.5 -5.8 -20 -16.4 -9.1 -9.2 -15.3 -14.5 -22.6 -19.2 -7.5 -4.8 -12.4 -9 -19.8 -17 -5.4 -5.8 -13.4 -13.1 -18 -16.4 -14.8 -10.6 -23.9 -18.3 -41.7 -35.5 -20.6 -19.8 -30.3 -27.5 -42.1 -33.5 -8.6 -4.2 -23.5 -9.7 -30.4 -11 l -3.5 -0.6 0 5.1 z"/>
<path class="logo-component logo-component-left" data-component-index="19" data-area="2563" data-cx="431.0" data-cy="588.9" d="M 468.5 541 c -17.8 4.6 -36.5 13.4 -48.9 22.8 -24.5 18.8 -31.4 34.8 -20.3 46.9 4.9 5.3 8 7 20.5 11.2 l 9.3 3.1 37.7 -0.1 c 37.3 -0.1 39.8 -0.5 19.8 -2.9 -26.5 -3.2 -50.2 -10.1 -59.9 -17.5 -13.7 -10.4 -9.1 -23 14.5 -39.8 13.7 -9.8 41.6 -22.3 51.9 -23.4 3.2 -0.3 5.9 -0.9 5.9 -1.3 0 -0.4 -5.3 -0.7 -11.7 -0.8 -8.4 -0 -13.8 0.5 -18.8 1.8 z"/>
<path class="logo-component logo-component-left" data-component-index="25" data-area="1530" data-cx="101.4" data-cy="287.2" d="M 37 247.9 c 0 6.7 0.5 7.1 9.4 7.1 5.7 -0 17 3.2 24.1 6.7 12.4 6.2 17.1 10.6 36.8 34.2 7.3 8.7 20.9 21.2 34.7 32 12.2 9.5 21.7 18.8 25.7 25.1 2 3 5.1 7.4 7 9.8 2.7 3.3 3.8 4 4.8 3.2 1.1 -0.9 0 -3.3 -5.8 -12.2 -8.3 -13 -14 -19.5 -25.6 -29.2 -14.5 -12.1 -27.9 -25.6 -36.3 -36.5 -15.5 -20.2 -31.5 -34.2 -45.8 -40.2 -7 -3 -19.8 -5.9 -25.5 -5.9 l -3.5 -0 0 5.9 z"/>
<path class="logo-component logo-component-left" data-component-index="27" data-area="1465" data-cx="252.0" data-cy="429.5" d="M 183.8 385.7 l -2.8 0.4 5.2 7.7 c 6.8 10.1 18 20.9 29.8 28.7 11.3 7.6 20 11.4 33.5 14.8 11.7 3 26.6 7.7 45.4 14.2 14 4.9 28.3 8.4 33.8 8.5 2.2 -0 3.6 -0.6 4.3 -1.9 1.4 -2.8 1.3 -3.1 -1.2 -3.1 -3.5 -0 -20 -4.6 -27 -7.6 -3.5 -1.4 -13.5 -5.9 -22.3 -9.9 -8.8 -4 -20.9 -8.8 -27 -10.8 -6 -1.9 -15.5 -5 -21 -6.7 -5.5 -1.8 -12.5 -4.5 -15.5 -6 -10.8 -5.4 -24.1 -16.9 -28.7 -24.8 -1.4 -2.3 -2.8 -4.1 -3.1 -4.1 -0.4 0.1 -1.9 0.4 -3.4 0.6 z"/>
<path class="logo-component logo-component-left" data-component-index="29" data-area="1297" data-cx="81.9" data-cy="244.7" d="M 37 222 l 0 9 3.8 -0 c 5.7 -0 15.9 1.9 22.1 4 7.1 2.5 13.7 7 24.6 16.5 4.8 4.1 13.1 10.7 18.5 14.5 11 7.8 15.9 12.9 20 21 1.5 3 3.6 6.6 4.7 7.9 1.7 2 2.2 2.2 4.1 1.2 1.2 -0.6 2.2 -1.5 2.2 -2 0 -1.7 -12.1 -22.4 -15.1 -26 -1.8 -2 -6.4 -6 -10.3 -8.9 -15.3 -11.4 -21.8 -16.7 -25 -20.2 -5.2 -5.8 -16.1 -14.7 -20.8 -17.1 -5.6 -2.9 -23.6 -8.9 -26.5 -8.9 -2.2 -0 -2.3 0.3 -2.3 9 z"/>
<path class="logo-component logo-component-left" data-component-index="30" data-area="1293" data-cx="188.0" data-cy="322.0" d="M 108.8 243.9 c -0.4 2.7 0.3 3.5 7.8 9 9.7 7 12.7 10.9 19.4 24.7 5.6 11.6 9.6 15.6 23.9 24 12.5 7.3 17.1 12.2 21 22.4 3.8 10.1 8.7 17.9 13.3 21.3 1.8 1.3 6.5 4.1 10.3 6.2 3.9 2.1 9.3 6 12 8.5 9.2 8.5 14.5 11.8 29.3 18.1 8.1 3.4 17.2 7.6 20.2 9.3 7.9 4.3 25.5 15.3 30.3 18.7 4.5 3.3 5.7 3.6 5.7 1.4 0 -2 -12.8 -11.4 -22.5 -16.5 -4.4 -2.3 -11.2 -6 -15.1 -8.1 -3.9 -2.2 -11.8 -5.9 -17.4 -8.4 -12.1 -5.2 -15.7 -7.6 -26.2 -17.2 -4.3 -3.9 -11.2 -9 -15.3 -11.3 -12.7 -7 -14.8 -9.5 -19.8 -23.2 -4.7 -13 -10.7 -19.5 -24.5 -26.8 -3.8 -2 -8.6 -5.8 -12.1 -9.6 -4.8 -5.1 -6.6 -8 -9.6 -15.9 -2.1 -5.3 -4.9 -11 -6.3 -12.7 -2.3 -2.7 -11.1 -9 -20.3 -14.6 l -3.7 -2.2 -0.4 2.9 z"/>
<path class="logo-component logo-component-left" data-component-index="36" data-area="891" data-cx="71.0" data-cy="285.5" d="M 37 272.9 l 0 7 4.8 0.7 c 14 1.9 24.2 4.6 31.7 8.4 10.4 5.1 17.2 10.6 27.6 22.1 8.2 9.2 9.4 10 13.7 8.4 2 -0.7 -27.5 -33.3 -35.5 -39.3 -3.8 -2.8 -9.3 -6 -12.3 -7.2 -5.3 -2.1 -25.2 -7 -28.4 -7 -1.3 -0 -1.6 1.3 -1.6 6.9 z"/>
<path class="logo-component logo-component-left" data-component-index="41" data-area="794" data-cx="198.7" data-cy="308.0" d="M 144 267 c 0 2.2 3.9 8.6 7.6 12.7 4.2 4.6 12.2 9.5 25.4 15.4 10.4 4.6 15.3 8.6 18.5 14.8 1.3 2.7 4.4 6.6 6.8 8.7 6.6 5.8 29.4 16.9 40.7 19.8 15.9 4.1 15 4 15 1.2 0 -2.1 -0.7 -2.7 -4.3 -3.6 -2.3 -0.6 -6.7 -1.8 -9.7 -2.7 -8.1 -2.2 -32.7 -15.8 -39 -21.6 -0.8 -0.7 -3.6 -4 -6.1 -7.3 -4.1 -5.4 -5.8 -6.5 -18.9 -13.4 -17.5 -9.1 -25 -14.4 -28.5 -20.4 -2 -3.4 -3.3 -4.6 -5.1 -4.6 -1.3 -0 -2.4 0.5 -2.4 1 z"/>
<path class="logo-component logo-component-left" data-component-index="46" data-area="672" data-cx="308.4" data-cy="431.3" d="M 249.2 404.5 c 0.2 0.9 3.8 3.1 8 4.9 4.3 1.9 13.5 6.8 20.6 10.9 22.8 13.4 44.5 24.5 53.1 27.2 6.7 2 11.9 2.8 25 3.6 10.5 0.6 19.6 1.7 24.9 3 7.9 2.1 10 2.1 8.8 0.1 -0.5 -0.9 -7.8 -2.1 -28.6 -4.7 -17.2 -2.1 -33.2 -7.7 -46 -15.9 -9.6 -6.2 -34.5 -19 -42.5 -21.9 -3.8 -1.4 -10.7 -3.9 -15.3 -5.6 -6.6 -2.5 -8.3 -2.8 -8 -1.6 z"/>
<path class="logo-component logo-component-left" data-component-index="48" data-area="640" data-cx="147.9" data-cy="352.5" d="M 113.5 319.8 c -1.1 0.2 -2.3 0.7 -2.7 1.1 -0.4 0.3 7.5 9 17.5 19.2 16 16.2 19.4 19.2 27.6 23.9 6.4 3.7 12.2 8.2 17.9 13.7 7.8 7.8 11.2 9.7 12.7 7.3 1.5 -2.4 -12.8 -17 -25.2 -25.7 -9.1 -6.3 -23.1 -18.3 -34.9 -29.8 -9.5 -9.3 -10.7 -10.2 -12.9 -9.7 z"/>
<path class="logo-component logo-component-left" data-component-index="50" data-area="635" data-cx="228.4" data-cy="347.0" d="M 179 304.4 c 0 0.2 1.4 2.1 3.1 4.2 1.7 2.1 4.5 7 6.3 10.9 4 8.6 7.9 12.6 16.7 17.1 4.3 2.1 10 6.3 15.2 11.3 9.8 9.2 11.3 10.1 25.4 14.7 6.5 2 13.2 5.1 17.2 7.6 3.5 2.4 9 5.2 12 6.4 3.1 1.2 6.4 2.5 7.4 2.9 1.5 0.6 1.8 0.4 1.5 -1.4 -0.2 -1.6 -1.8 -2.8 -6.1 -4.6 -3.2 -1.3 -7.7 -3.6 -9.9 -5.2 -9.6 -6.6 -11.8 -7.9 -24.5 -13.3 -10.6 -4.6 -14.8 -7.1 -20.8 -12.2 -4.2 -3.4 -10.7 -8.1 -14.5 -10.3 -9 -5.1 -12 -8.1 -16.4 -15.9 -3.3 -6 -9.5 -12.6 -11.6 -12.6 -0.6 -0 -1 0.2 -1 0.4 z"/>
<path class="logo-component logo-component-left" data-component-index="53" data-area="583" data-cx="217.1" data-cy="374.0" d="M 177.9 347.8 c 3.3 6.5 10.7 14.7 16.8 18.8 3.2 2.1 9.7 5.5 14.5 7.6 4.9 2.1 12.7 6.2 17.5 9.1 13 8 25 14.3 32.6 17.2 3.7 1.4 7 2.5 7.3 2.5 1.2 -0 -0.2 -4.3 -1.6 -5.1 -0.8 -0.5 -8.3 -4.2 -16.6 -8.3 -8.2 -4.1 -20.1 -10.6 -26.3 -14.5 -6.2 -3.9 -14.4 -8.7 -18.2 -10.7 -8.2 -4.3 -15.4 -10.5 -18.9 -16.3 -2.1 -3.4 -3 -4.1 -5.8 -4.1 l -3.2 -0 1.9 3.8 z"/>
<path class="logo-component logo-component-left" data-component-index="58" data-area="466" data-cx="158.3" data-cy="258.8" d="M 128 234.3 c -0.6 1.1 -1 2 -0.8 2.1 1.7 1.3 8.7 5.1 14.7 8.2 8.2 4.2 12.7 9.3 13.7 15.6 0.4 2.1 1.9 5.8 3.5 8.2 4.7 7.5 12.5 12.8 33.2 22.4 0.4 0.2 0.7 -0.7 0.7 -2.1 0 -1.8 -0.9 -2.8 -3.7 -4 -2.1 -0.9 -5.8 -2.4 -8.3 -3.5 -7.6 -3.3 -14.5 -9.6 -17.9 -16.4 -2.8 -5.5 -4 -10.8 -2.5 -10.8 0.3 -0 1.4 0.5 2.5 1 1.5 0.8 1.9 0.7 2.1 -0.5 0 -0.8 0.1 -1.9 0.2 -2.4 0.1 -1 -5.7 -4.2 -25.1 -14 -10.5 -5.3 -11.2 -5.5 -12.3 -3.8 z"/>
<path class="logo-component logo-component-left" data-component-index="61" data-area="429" data-cx="157.7" data-cy="317.3" d="M 135.1 295.9 l -2.5 1.9 3.8 4.6 c 2 2.5 8.8 8.4 15 13 12.7 9.5 17.5 14.5 21.7 22.9 2.6 5 3.3 5.7 5.9 5.7 l 2.9 -0 -1.6 -3.8 c -5.7 -13.7 -10.5 -19.6 -23.3 -29 -4.1 -3 -10.2 -8.1 -13.5 -11.3 l -6 -5.8 -2.4 1.8 z"/>
<path class="logo-component logo-component-left" data-component-index="64" data-area="404" data-cx="295.4" data-cy="366.5" d="M 258.2 352.4 c 4.9 4.4 17.2 10.4 26.7 13.1 5.3 1.5 15 5.5 22.1 9.1 6.9 3.5 13.8 6.4 15.2 6.4 5.4 -0 8.8 -1.2 8.8 -3.1 0 -1.9 -0.8 -2.2 -8.5 -3.4 -2.2 -0.4 -8.8 -2.8 -14.6 -5.5 -5.8 -2.7 -16.8 -7 -24.4 -9.5 -7.5 -2.5 -15.9 -5.7 -18.6 -7 -2.6 -1.4 -5.9 -2.5 -7.1 -2.5 -2.3 0.1 -2.3 0.1 0.4 2.4 z"/>
<path class="logo-component logo-component-left" data-component-index="70" data-area="365" data-cx="211.8" data-cy="387.2" d="M 179.3 366.7 c -1.4 3.6 15 16 33.6 25.4 12.5 6.3 36.4 14.5 35.9 12.3 -0.2 -0.8 -2.9 -2.6 -6 -3.8 -3.2 -1.3 -10.1 -4.9 -15.6 -7.9 -5.4 -3.1 -13.8 -7.2 -18.7 -9.2 -11.3 -4.5 -15.6 -7.1 -22.4 -13.5 -2.9 -2.7 -5.5 -5 -5.7 -5 -0.3 -0 -0.8 0.8 -1.1 1.7 z"/>
<path class="logo-component logo-component-left" data-component-index="108" data-area="147" data-cx="166.6" data-cy="237.5" d="M 156.1 233.2 c -1.1 2.9 -0.8 3.2 5.9 5.8 3 1.2 7.8 3.4 10.7 4.9 l 5.1 2.8 0.4 -2.7 c 0.4 -2.3 -0.3 -3.2 -4.1 -5.8 -4.8 -3.2 -9.6 -5.5 -14.4 -6.6 -2.3 -0.5 -2.9 -0.2 -3.6 1.6 z"/>
</g>
<g id="component-layer-right" fill="#f7f2ea">
<path class="logo-component logo-component-right" data-component-index="1" data-area="23188" data-cx="702.0" data-cy="273.0" d="M 817 167.8 c -1.3 2.2 -3.8 4.8 -5.6 5.8 -2.7 1.5 -3.4 2.5 -3.4 4.9 0 1.7 -2.7 8.4 -6.3 15.6 -3.5 6.9 -6.7 14.2 -7 16.3 -0.8 5.1 -4.2 8.6 -8.1 8.6 -4.5 -0 -9.1 -3.2 -17.8 -12.3 -7 -7.2 -8 -8.8 -10.3 -15.8 -1.4 -4.3 -2.5 -8.1 -2.5 -8.4 0 -1.3 8.9 -0.3 12.5 1.5 2.2 1.1 5.7 1.9 7.8 2 2.1 -0 5.5 0.9 7.6 1.9 4.5 2.4 9.2 3 9.8 1.4 0.3 -0.7 -2.3 -1.7 -6.9 -2.8 -4.1 -0.9 -9.2 -2.9 -11.8 -4.6 -5.6 -3.8 -8.2 -4.4 -12.1 -3 -4.9 1.7 -7.9 1.3 -11.6 -1.5 -3.2 -2.4 -6.7 -7.7 -5.8 -8.6 0.3 -0.2 -1.1 -1.2 -3 -2.1 -6.9 -3.3 -5.4 1.2 3.7 11.2 3.7 4.1 6.2 7.9 6.9 10.5 3.4 12.6 4 13.5 12.9 23 9.1 9.7 11.5 13 10.5 14.6 -0.7 1.2 -2.3 0.5 -11.7 -4.7 -6.8 -3.8 -8 -4.2 -10 -3.2 l -2.2 1.2 2.4 1.6 c 5.4 3.5 10.4 7.7 10.8 9 0.4 1.1 -0.3 1.2 -3.4 0.6 -2.2 -0.4 -8 -1 -13 -1.4 -7.9 -0.5 -9.6 -1 -13.4 -3.6 -9.4 -6.6 -9.2 -6.5 -17 -6.5 -6.9 -0 -7.9 -0.3 -13.5 -3.8 -5.2 -3.2 -6.7 -3.7 -11.4 -3.5 -4.7 0.2 -6.3 -0.3 -11.3 -3.4 -5.7 -3.5 -6 -3.6 -13.2 -3 -8.5 0.8 -10.1 0.3 -25 -6.8 -7.3 -3.5 -11.6 -4.9 -16.7 -5.5 -4.8 -0.5 -8.4 -1.7 -12.5 -3.9 -3.1 -1.8 -5.9 -2.9 -6.3 -2.6 -0.3 0.4 1.5 2.6 4.1 4.9 3.3 2.9 11 7 25.9 13.9 19.6 9 22 9.8 29.9 10.7 9.9 1 14.2 2.5 20.9 7.4 5.7 4.2 10.6 5.6 19.6 5.5 6.6 -0 17 2.6 19.9 5 0.6 0.5 5.4 2.1 10.6 3.6 15.8 4.5 15.8 4.5 -13.3 7.5 -8.5 0.9 -10.3 0.8 -13.5 -0.7 -2.5 -1.2 -7.5 -1.9 -15.5 -2.3 -11.5 -0.5 -11.7 -0.5 -11.7 1.7 0 1.8 1 2.5 5.7 3.8 3.2 0.9 8.3 1.9 11.3 2.2 12.9 1.1 13.4 2.6 1.1 4.2 -9.5 1.2 -20.8 0.4 -35.5 -2.4 -7.1 -1.4 -9.8 -1.4 -8.5 -0 0.3 0.2 3.6 1.5 7.4 2.7 3.8 1.3 7 2.9 7.3 3.6 0.5 1.7 -6.5 1.6 -11.8 -0.3 -2.3 -0.8 -6.5 -1.5 -9.2 -1.5 -5 -0 -9.6 -1.8 -17.1 -6.8 -5.2 -3.4 -6.3 -1.9 -3.2 4.3 3.2 6.6 3.2 7.9 -0.1 7.2 -2.2 -0.4 -2.5 -0.2 -1.9 1.7 1.3 4.1 1.7 7.6 0.8 7.6 -1.2 -0 -4.8 -2.5 -10.8 -7.6 -5.4 -4.5 -10.3 -6.9 -17.5 -8.5 -2.5 -0.6 -8.4 -2.8 -13.1 -5 -4.7 -2.1 -10.7 -4.3 -13.2 -4.8 -4.3 -0.8 -4.7 -0.7 -4.7 1.1 0 1 0.8 2.1 1.7 2.4 1 0.4 7.9 3 15.3 5.9 7.4 2.9 14.6 5.6 16 6 5.3 1.6 10.8 5.1 19.2 12.2 4.7 4.1 8.9 8.1 9.2 8.9 2.2 5.6 -1.9 5.8 -10.1 0.5 -3.3 -2.1 -7.6 -4.2 -9.4 -4.6 -1.9 -0.4 -6.3 -1.8 -9.8 -3.1 -3.5 -1.3 -7.7 -2.4 -9.3 -2.4 -1.6 -0 -6 -1.4 -9.8 -3 -3.8 -1.7 -8.4 -3 -10.2 -3 -4.4 -0 -20.3 -4.2 -24.7 -6.5 -4.7 -2.4 -17 -6.5 -19.5 -6.5 -3.2 -0 -0.7 1.6 6.9 4.3 3.9 1.4 9.3 3.4 12 4.5 8.4 3.3 17.8 6.1 22.5 6.8 2.5 0.4 7 1.8 9.9 3.1 3 1.3 8.4 2.8 11.9 3.3 4 0.5 7.8 1.8 10.1 3.4 2 1.4 5 2.8 6.6 3.2 4.4 1 20.5 9.7 20.2 10.9 -0.7 1.9 -4.1 1.7 -10.6 -0.8 -3.6 -1.4 -8.5 -3.1 -10.8 -3.7 -2.3 -0.6 -6.1 -2.2 -8.5 -3.5 -2.4 -1.4 -5.3 -2.5 -6.5 -2.5 -1.3 -0 -8.5 -2 -16.2 -4.5 -9.7 -3.1 -16.5 -4.6 -22.3 -5.1 -9.7 -0.7 -15.1 -2.2 -26.7 -7.6 -8.5 -3.9 -17 -6.1 -15.8 -4.1 0.4 0.6 2.4 1.4 4.4 1.8 2.1 0.3 5.4 1.6 7.3 2.7 7.3 4.2 23.6 9.9 31.2 10.8 4.2 0.5 9.1 1.6 10.7 2.5 1.7 0.8 5.6 2.1 8.8 2.9 14.7 3.6 21.3 5.6 27.2 8.5 3.5 1.6 10.6 4 15.8 5.1 5.5 1.3 9.3 2.7 9.3 3.4 0 0.7 -2.2 1.8 -4.9 2.5 -4.3 1.1 -6 1 -14 -0.9 -11.3 -2.7 -14.2 -2 -4.1 0.9 10.2 3 10 2.9 10 3.9 0 1.3 -7.9 3.2 -12.7 3.2 -2.1 -0 -6.3 -0.7 -9.3 -1.5 -9.5 -2.6 -18.3 -3 -23 -1.1 -3.2 1.3 -5 1.4 -7.8 0.7 -2 -0.6 -8 -1.7 -13.4 -2.4 -6.3 -1 -12 -2.5 -16.6 -4.7 -4.1 -1.9 -8.1 -3 -9.8 -2.8 -2.8 0.3 -3 0.6 -5 10.3 -1.9 9.3 -5.1 17.6 -7.3 18.9 -0.5 0.4 -1.2 2 -1.6 3.6 -0.4 1.7 -1.8 3.8 -3.1 4.6 -1.3 0.9 -3.9 4.2 -5.8 7.3 -1.9 3.1 -4.9 6.9 -6.6 8.6 -1.8 1.6 -4 4.6 -5 6.5 -2.4 4.8 -11.4 13.1 -18.3 17 -6.3 3.5 -7.8 5 -5 5 6.4 -0.1 23.4 -13 28.2 -21.4 3.1 -5.5 11.3 -13.1 17.6 -16.4 4.7 -2.4 8.6 -6.4 11 -11.2 3.7 -7.4 9 -14.9 10.5 -14.7 2 0.3 2.4 5.5 1 11.9 -0.6 2.8 -0.8 5.3 -0.5 5.6 1.1 1.1 3.4 -2.2 5.4 -7.8 1.2 -3.4 2.8 -6 3.6 -6 0.7 -0 2.3 1.2 3.4 2.6 2.5 3.2 2.7 8.9 0.6 14.1 -1.7 4 -1.1 5.8 0.9 3 2.2 -2.9 3.8 -2 3.6 2.1 -0.3 5.3 -0.2 5.4 2.4 3.7 2.1 -1.4 2.4 -1.4 3 -0 0.3 0.9 -0.1 3 -1 4.8 -1.2 2.1 -1.3 3.2 -0.5 3.5 3.3 1.1 -1.8 14.1 -7.7 19.4 -2 1.8 -6.7 5 -10.4 7.1 -7.1 4 -12 8.9 -11.2 11.2 0.8 1.9 -7.8 6.1 -16.3 8 -10.4 2.4 -14.3 4.4 -15 7.7 -0.3 1.6 -1.8 3.7 -3.3 4.8 -2 1.4 -2.7 2.6 -2.3 4 0.3 1.1 0.8 2 1 2 1.7 -0 8.8 -6.9 9.9 -9.6 1.7 -4.1 2.9 -4.7 13.3 -7.3 11.5 -2.9 13.3 -3.9 15.8 -9.1 1.7 -3.7 4 -5.9 12 -11.5 5.4 -3.8 12 -8.7 14.7 -10.9 6.3 -5.2 12.6 -13.2 12.6 -16 0 -3.4 11.4 -13.8 19 -17.3 3.6 -1.7 9.5 -5.8 13.4 -9.2 6.9 -6.3 9.8 -7.2 10.5 -3.6 0.2 1.1 1.2 2.6 2.2 3.3 1.7 1.1 1.8 2.1 1.3 6.4 -0.7 4.9 -0.6 5.1 1.5 4.5 1.8 -0.4 2.1 -0.1 2.1 2.8 0 1.9 0.4 3.6 1 4 1.2 0.7 -0.3 4.8 -3.1 8.3 -1.3 1.7 -1.8 3.4 -1.4 5.1 0.4 1.8 -0.2 3.7 -1.7 5.9 -2.9 4 -15.6 14.5 -22.5 18.4 -2.9 1.6 -5.3 3.7 -5.3 4.5 0 1 2.3 0.2 8.3 -3 4.5 -2.5 12.3 -6.6 17.3 -9.1 9.2 -4.7 16.2 -10.5 22.3 -18.4 3.5 -4.5 12.2 -10.2 15.5 -10.2 2.2 -0 20.7 -11.3 23.6 -14.4 1.1 -1.2 4.1 -4.5 6.7 -7.4 4.7 -5.3 4.8 -5.4 9.3 -4.8 4.3 0.6 4.8 0.4 9.7 -3.9 3 -2.7 7.5 -5.4 10.7 -6.5 3.1 -1 7.7 -3.5 10.3 -5.5 6.3 -4.8 20.3 -11.6 33.3 -16 5.8 -2 13.1 -5.2 16.3 -7.2 5.8 -3.5 27.6 -12.3 30.5 -12.3 3.6 -0 -2.4 4 -11.1 7.4 -5.1 2 -11.4 5 -14.2 6.6 -2.7 1.6 -9.9 5.4 -16 8.4 -6 3.1 -13.8 7.2 -17.2 9.3 -3.4 2.1 -8.5 5.1 -11.5 6.8 -16.7 9.4 -24.4 14.3 -27.3 17.5 -2.2 2.5 -0.9 2.6 2.6 0.2 1.4 -0.9 5.4 -3.6 8.9 -6 3.5 -2.3 6.7 -4.2 7.2 -4.2 3.4 -0 -4 6.4 -19.7 17.2 -4.9 3.4 -8.4 6.3 -7.8 6.5 1.7 0.6 4.3 -1 10.2 -6 2.8 -2.4 6.8 -5.3 8.8 -6.3 2 -1 10.3 -6 18.4 -11.1 17.5 -10.9 18.8 -11.6 27.8 -14.8 3.8 -1.4 10.7 -4.5 15.3 -6.9 4.6 -2.5 12.5 -6.1 17.6 -8.1 5.1 -2 11.8 -5 14.8 -6.6 5.8 -3 10.9 -3.9 10.2 -1.7 -0.3 0.7 -2.3 2.6 -4.6 4.3 -2.6 1.9 -4.1 3.8 -4.1 5.2 -0.1 2.7 0.1 2.8 4.1 0.7 1.7 -0.9 5.8 -2.5 9.2 -3.6 3.4 -1.1 8.4 -3.3 11.1 -4.8 6.4 -3.6 30.6 -13.9 41 -17.4 4.4 -1.4 15 -5.9 23.5 -9.9 l 15.5 -7.3 0.3 -5.7 c 0.2 -3.1 0.1 -5.7 0 -5.7 -0.2 -0 -4.3 1.4 -9.1 3 -4.8 1.7 -11.7 3.3 -15.4 3.7 -4.6 0.4 -9.2 1.7 -14.2 3.9 -7 3.2 -12.1 4.3 -12.1 2.6 0.1 -0.4 1.9 -1.9 4 -3.4 2.2 -1.5 4 -3.2 4 -3.7 0 -1.6 -4.8 -2.2 -9.2 -1.1 -9 2 -15.4 0.8 -13.2 -2.7 1 -1.6 7.1 -4.4 26.9 -12.3 3.9 -1.5 10.5 -4.4 14.8 -6.4 4.3 -2 10.8 -4.4 14.5 -5.3 3.7 -0.8 7.3 -1.7 8 -1.9 0.8 -0.2 1.2 -2.3 1.2 -6 0 -5 -0.2 -5.5 -1.7 -4.8 -1 0.4 -4.5 1.6 -7.8 2.7 -11.9 3.8 -14.6 4.9 -19.3 8.1 -5.2 3.5 -24.2 13 -33.9 16.9 -7 2.8 -13.8 4.8 -22.8 6.7 -3.3 0.6 -9 2.1 -12.7 3.1 -8 2.3 -14.1 2.5 -13.6 0.5 0.2 -0.8 2.5 -3.2 5.2 -5.5 4 -3.2 7.8 -4.9 19.2 -8.7 7.9 -2.5 15 -5.4 16 -6.5 1.1 -1.2 1.3 -1.9 0.5 -1.9 -2.7 -0 -25.4 8.1 -32 11.5 -12.1 6 -13.3 4.5 -3.4 -4.2 3.7 -3.2 7.6 -6.8 8.7 -8.1 2.9 -3.6 8.6 -6.8 15.4 -8.7 4.8 -1.4 6.2 -2.2 6.2 -3.6 0 -1.1 -0.1 -1.9 -0.2 -1.9 -0.2 -0 -2.7 0.7 -5.5 1.4 -4.9 1.3 -18.3 9.2 -19.8 11.6 -0.3 0.5 -1.4 1 -2.5 1 -1.5 -0 -1.7 -0.5 -1 -3.6 1.1 -4.6 8.5 -12.5 15.7 -16.6 8.8 -5 8.6 -6.8 -0.2 -3.8 -3.2 1.1 -6.1 1.8 -6.3 1.5 -0.3 -0.3 0.8 -2 2.5 -3.8 1.7 -1.7 4.1 -5.2 5.3 -7.7 l 2.3 -4.4 -3.7 2.7 c -4 3.1 -4.3 2.7 -2 -2.8 1.3 -3.3 1.4 -4 0.1 -5.2 -1.3 -1.3 -1.7 -1 -3.7 2.5 z m 21 79.1 c 0 1.3 -24.7 12.3 -26.7 11.9 -2.6 -0.6 11.6 -9.8 17.5 -11.4 5.6 -1.5 9.2 -1.7 9.2 -0.5 z m -55 9.9 c 0 1.2 -6.7 4.2 -9.2 4.2 -1.8 -0 -1.9 -0.3 -1 -1.3 2.4 -2.3 10.2 -4.6 10.2 -2.9 z m -22 11.1 c 0 0.5 -2.1 1.7 -4.7 2.7 -12.3 4.4 -18 6.9 -24.2 10.4 -7 4 -18.6 9 -20.5 9 -2.5 -0.1 7 -7.1 11.8 -8.6 2.8 -0.9 7.4 -2.9 10.2 -4.5 4.2 -2.4 24 -9.7 26.7 -9.9 0.4 -0 0.7 0.4 0.7 0.9 z m -56.5 24.9 c 0 0.8 -5.6 4.7 -12.5 8.6 -8 4.6 -14.6 9.3 -18.2 12.9 -3.1 3.2 -6.5 5.7 -7.6 5.7 -1.1 -0 -4.2 1.6 -6.8 3.5 -8.3 6 -10.8 7.5 -12.6 7.5 -2.3 -0 -2.3 -0.3 0.7 -4.8 1.9 -3 2.4 -4.6 1.9 -7 -0.8 -3.9 1.1 -6.4 7.1 -9.4 5.6 -2.8 7.5 -4.7 7.5 -7.5 0 -1.9 1 -2.8 4.3 -4.3 4.4 -2 8.7 -2.6 8.7 -1.2 0 0.5 -1.7 2.5 -3.7 4.5 -8.2 7.8 -12.7 12.7 -11.8 12.7 1.2 -0 6.6 -3.4 12.6 -7.8 15.4 -11.5 30.4 -18.1 30.4 -13.4 z"/>
<path class="logo-component logo-component-right" data-component-index="4" data-area="6182" data-cx="709.2" data-cy="536.2" d="M 900.2 424.8 c -14.2 7.9 -25.6 16.2 -40.2 29.3 -28.4 25.3 -37.2 32.8 -48.6 41.4 -20.6 15.5 -27.4 21.4 -46.9 40.5 -18.8 18.5 -25.6 24.3 -36.7 31.4 -8 5.1 -48 24.9 -55.4 27.4 -27.5 9.4 -64.8 10.8 -92.9 3.7 -19.7 -5 -34.5 -12.9 -39.6 -21.1 -3.1 -5 -2.3 -11.3 2.4 -19 2 -3.2 5.5 -11.5 7.9 -18.3 4 -11.9 4.1 -12.4 2.3 -13.7 -1 -0.8 -2.1 -1.4 -2.4 -1.4 -0.3 -0 -3.7 4.7 -7.4 10.5 -5.2 8 -9.4 12.8 -17.8 20.7 -11.7 10.8 -13.9 13.8 -13.9 18.8 0 7.3 5.7 12.9 20.3 19.9 23.7 11.4 56.4 17 92.7 15.8 25.8 -0.9 40.9 -4.3 66.9 -15.4 36.5 -15.5 52.1 -25.2 74.1 -45.8 23.6 -22 31.6 -28.6 48.5 -39.8 22.6 -15 34.4 -23.8 49.3 -36.7 22.7 -19.6 27.9 -23.5 43 -31.7 l 6.2 -3.5 0 -9.4 c 0 -5.2 -0.3 -9.4 -0.7 -9.4 -0.5 -0 -5.4 2.6 -11.1 5.8 z"/>
<path class="logo-component logo-component-right" data-component-index="6" data-area="5825" data-cx="713.4" data-cy="510.5" d="M 901.4 380.9 c -26 14 -37.7 23.9 -70.7 59.6 -25.8 28 -34.2 35.9 -65.2 61.5 -8.2 6.8 -17.5 14.7 -20.5 17.5 -9.5 8.9 -25.1 20.5 -45.1 33.6 -24.4 15.9 -28.2 18 -39.9 22 -8.2 2.8 -11.2 3.3 -22.2 3.7 -14.6 0.5 -23.3 -1.1 -33.2 -6 -9.1 -4.6 -14.8 -10.6 -20 -21.1 -5.6 -11.4 -6.5 -15 -7.6 -30.5 -0.7 -11.1 -1.1 -12.8 -3.7 -17 -3.6 -5.9 -9.7 -10.5 -23.9 -18.1 -11.4 -6.1 -18.1 -8.5 -27.3 -10 -4.4 -0.7 -5.1 -0.6 -5.1 0.9 0 1.2 1.5 1.9 6.3 2.8 7.6 1.4 30.2 12.5 36.9 18.2 5.2 4.5 8.8 11 8.8 16.1 0 1.9 -0.7 6.7 -1.7 10.8 -1.6 6.9 -1.6 8.3 -0.1 23.6 1.8 18 2.6 20.3 9 26.4 9.4 9.1 26.7 14.9 46.9 15.8 15.2 0.7 25.9 -0.7 38.9 -4.9 12.1 -3.9 18.6 -7.2 34 -17.1 6.9 -4.4 16.1 -10.1 20.5 -12.5 11.2 -6.3 17.8 -11.6 35 -28.1 8.3 -7.9 18.2 -17 22 -20 22 -17.6 32.8 -27.2 48.5 -43.4 47.9 -49.4 56.9 -57.3 78.6 -68.3 l 11.4 -5.8 0 -7.3 c 0 -4 -0.3 -7.3 -0.7 -7.3 -0.5 -0 -4.9 2.2 -9.9 4.9 z"/>
<path class="logo-component logo-component-right" data-component-index="7" data-area="4882" data-cx="714.9" data-cy="486.8" d="M 901.3 358.6 c -11.9 6.3 -29.5 17.9 -42.3 27.9 -5.8 4.6 -20.4 17.7 -32.5 29.1 -22.9 21.7 -33.3 30.5 -52 43.8 -18.7 13.4 -29.3 22 -49.4 40.4 -25.5 23.2 -46.2 34.9 -68.3 38.3 -17.2 2.7 -27.8 -0.9 -47.1 -16 -10.8 -8.5 -14.7 -12.5 -23.9 -25.1 -5.1 -6.8 -10.3 -10.2 -23.9 -15.5 -12.9 -5 -16.9 -7.1 -16.9 -8.7 0 -0.5 1 -0.6 2.1 -0.3 1.6 0.5 2 0.3 1.7 -0.6 -0.3 -0.8 -1.8 -1.5 -3.4 -1.5 -1.6 -0.1 -5.3 -0.9 -8.3 -1.8 -7.5 -2.2 -11.1 -2.1 -11.1 0.3 0 1.4 0.9 2.1 3.2 2.6 8.5 1.6 12.6 3.2 19.3 7.6 4 2.6 11.5 6.7 16.7 9.2 11.4 5.5 14.1 8.3 21 22 6.5 13 10.8 19.4 19.7 28.9 13 13.9 21.4 17.4 39.6 16.5 13.7 -0.6 20.8 -2.8 37.7 -11.3 13.7 -7 28.9 -17.8 40.8 -28.9 11.7 -11 21.8 -19.6 30.8 -26.3 31.2 -23.3 40.7 -31.6 67.7 -58.6 14.3 -14.4 30.5 -29.9 36 -34.5 12.1 -10.1 28.3 -20.9 42.8 -28.6 l 10.7 -5.7 0 -3.9 c 0 -2.1 -0.4 -3.9 -0.9 -3.9 -0.5 -0 -4.9 2.1 -9.8 4.6 z"/>
<path class="logo-component logo-component-right" data-component-index="10" data-area="3885" data-cx="718.8" data-cy="459.5" d="M 864.5 363 c -12.5 8.7 -26.8 19 -32 23 -13.7 10.6 -23.2 16.5 -37.2 23.2 -18.9 9 -25.7 13.6 -41.6 28.1 -15.6 14.3 -24.9 21.8 -38.4 30.9 -21.7 14.5 -40.3 24.7 -55.3 30.4 -6.5 2.4 -8.9 2.8 -18.5 2.8 -9.8 0.1 -12.1 -0.3 -21.2 -3.2 -7.9 -2.5 -12.7 -4.9 -21 -10.4 -13.4 -8.9 -19.4 -11.3 -33.6 -13.8 -6.1 -1.1 -12.4 -2.3 -13.9 -2.6 -1.7 -0.4 -2.8 -0.2 -2.8 0.4 0 1.3 6.9 3.6 18.7 6.1 5 1.1 10.9 2.9 13.1 4 2.2 1.1 8.5 6.2 14 11.3 9.4 8.8 10.6 9.6 22.3 14.5 16 6.7 19.5 7.5 30.4 7.6 19.8 -0 34.8 -7 69.5 -32.7 14.3 -10.6 23.3 -17.9 36.5 -30 12.6 -11.4 22.8 -18.6 36 -25.5 9 -4.7 21.6 -13.6 36.5 -26.1 11 -9.2 26.8 -21.6 37.4 -29.3 5.5 -4 6.6 -5.3 6.6 -7.7 0 -1.6 -0.3 -3.1 -0.7 -3.3 -0.5 -0.3 -2.6 0.8 -4.8 2.3 z"/>
<path class="logo-component logo-component-right" data-component-index="11" data-area="3566" data-cx="816.8" data-cy="538.2" d="M 905 474 c -3 1.7 -10 6.4 -15.5 10.6 -18.2 13.8 -27.8 20 -46.5 29.8 -20.6 10.9 -36.5 21.1 -48.5 31.2 -27.6 23.2 -55.7 39.7 -94.5 55.6 -17.7 7.3 -40.1 14.8 -44.1 14.8 -1.4 -0 -1.9 0.7 -1.9 3 0 2.6 0.3 3 2.3 2.5 1.2 -0.3 5.7 -1.2 10 -2 13.4 -2.7 27.3 -8 68.5 -26.3 19.8 -8.8 45 -22.9 71.4 -40 17.2 -11.1 29.4 -17.5 46.7 -24.6 23.9 -9.8 25.7 -10.9 54.3 -32.5 l 4.8 -3.6 0 -10.8 c 0 -5.9 -0.3 -10.7 -0.7 -10.7 -0.5 -0 -3.3 1.4 -6.3 3 z"/>
<path class="logo-component logo-component-right" data-component-index="12" data-area="3564" data-cx="824.8" data-cy="576.3" d="M 901.9 534.6 c -8.9 6.2 -29.9 18.5 -36.4 21.3 -5.3 2.3 -21.8 7.9 -31 10.5 -11.1 3.1 -61.2 19.8 -64.2 21.4 -1.2 0.7 -7.5 3.2 -14 5.6 -6.5 2.4 -17.2 6.4 -23.8 8.9 -6.6 2.5 -14.5 5.3 -17.5 6.2 -3 0.9 -8.2 2.5 -11.5 3.6 -11.3 3.5 -29 7.7 -39.5 9.4 -15.1 2.4 -16.4 3.4 -4.5 3.4 14.6 0.1 29.2 -3.2 90.5 -20.4 24 -6.8 39 -10.2 61.7 -14 45.9 -7.8 65.9 -14.4 93.6 -30.7 l 6.7 -4 0 -13.9 c 0 -7.7 -0.1 -13.9 -0.3 -13.9 -0.2 -0 -4.6 3 -9.8 6.6 z"/>
<path class="logo-component logo-component-right" data-component-index="13" data-area="3432" data-cx="750.6" data-cy="377.6" d="M 898 283.9 c -27.6 11.5 -45 22 -60.5 36.4 -11.3 10.6 -17 14.2 -39.8 25.7 -17 8.6 -24.8 13.6 -47.7 30.4 -4.7 3.5 -18.4 11.8 -30.5 18.5 -25.8 14.4 -35 20.8 -44.8 31.1 -9 9.3 -14.8 14 -21.2 17.3 -5.9 2.9 -18.5 7 -27 8.7 -3.3 0.6 -9.6 2.8 -14 4.8 -11.3 5.1 -19 5.4 -39 1.3 -18.6 -3.8 -34.5 -5.1 -34.5 -2.9 0 1.1 1.7 1.7 6.8 2.1 3.8 0.3 9.6 1.3 13 2.1 3.4 0.9 14 2.7 23.7 4.1 18.4 2.6 20.8 2.5 31.9 -1 2.7 -0.8 8.8 -2.2 13.5 -3 9 -1.5 23.1 -5.9 29.1 -9 7.4 -3.8 14.9 -9.7 25.5 -20.1 13.3 -12.9 18.2 -16.3 39 -26.4 16.3 -7.9 30.8 -16.7 44.5 -27.1 13.1 -9.8 27.1 -18.5 41 -25.5 18.2 -9 25.9 -14.2 36 -23.9 4.7 -4.5 10.5 -9.5 13 -11.2 8.6 -5.7 29.4 -16.6 42.4 -22.4 l 13.1 -5.8 0.3 -4.5 c 0.2 -3.3 -0.1 -4.6 -1 -4.6 -0.7 0.1 -6.5 2.2 -12.8 4.9 z"/>
<path class="logo-component logo-component-right" data-component-index="15" data-area="3223" data-cx="705.4" data-cy="434.6" d="M 840 358.2 c -5.8 3.3 -14.6 8.4 -19.6 11.4 -12.4 7.3 -14.9 7.9 -3.9 1 10.8 -6.9 11.8 -7.8 11.3 -10.3 -0.3 -1.8 -2.3 -0.8 -16.8 7.8 -31.7 18.9 -34.6 20.8 -49 31.1 -8 5.7 -20.1 14.4 -27 19.2 -6.9 4.9 -14.1 10.1 -16 11.6 -7.9 6 -16.3 11.1 -30.5 18.5 -8.2 4.4 -17.7 9.6 -21 11.8 -13.3 8.5 -31.7 15.7 -40.5 15.7 -4.8 -0 -20.2 -3 -30.5 -5.9 -6.4 -1.9 -13.8 -3.2 -20.5 -3.6 -5.8 -0.4 -16.3 -1.5 -23.5 -2.6 -13.4 -1.9 -31 -2.5 -33.3 -1 -0.8 0.4 4.8 1.1 13.1 1.5 10.5 0.5 16.9 1.3 23.8 3.2 5.2 1.4 14.6 3.1 21 3.9 10.4 1.2 13.2 2 26.5 7.5 16.4 6.8 24 8.4 33.3 6.9 11.2 -1.8 16.9 -4.2 42.1 -17.8 37.7 -20.2 44.2 -24.6 71.3 -47.9 19.8 -17 33.7 -26.6 49.2 -34.1 5.5 -2.7 15.6 -8.1 22.5 -12 6.9 -4 16.2 -9 20.8 -11.4 7.8 -3.9 8.2 -4.3 8.2 -7.4 0 -1.8 -0.1 -3.3 -0.2 -3.3 -0.2 0.1 -5 2.8 -10.8 6.2 z"/>
<path class="logo-component logo-component-right" data-component-index="17" data-area="2860" data-cx="831.3" data-cy="616.5" d="M 909.9 597.4 c -0.2 0.2 -6 2.1 -12.9 4.1 -22.2 6.4 -30.6 7.5 -69 8.5 -37.7 1 -41.3 1.3 -82.5 7 -15.4 2.1 -32.7 4.4 -38.5 5 -5.8 0.6 -11.8 1.5 -13.5 2 -1.6 0.4 46.8 0.8 107.8 0.9 l 110.7 0.1 0 -14 c 0 -12.3 -0.4 -15.2 -2.1 -13.6 z"/>
<path class="logo-component logo-component-right" data-component-index="23" data-area="1600" data-cx="850.1" data-cy="284.2" d="M 902.2 252.5 c -4.6 2.5 -9.6 5.3 -11.1 6.4 -3.2 2.3 -24.8 11.9 -41.6 18.6 -9.6 3.8 -12.9 5.6 -16.4 9.1 -4.5 4.5 -11.2 8.2 -28.6 15.4 -5.5 2.3 -12.2 5.7 -15 7.6 -5.8 3.8 -18.5 16.4 -16.7 16.4 0.8 -0 9.4 -3.8 19.2 -8.5 9.9 -4.7 21.9 -9.9 26.7 -11.6 10.1 -3.6 23.2 -9.9 28.1 -13.6 1.9 -1.4 9.3 -5.1 16.6 -8.3 7.2 -3.2 16.1 -7.4 19.6 -9.3 3.7 -1.9 11.4 -4.7 17.8 -6.3 l 11.2 -2.8 0 -8.8 c 0 -4.8 -0.3 -8.8 -0.7 -8.8 -0.5 -0 -4.5 2 -9.1 4.5 z"/>
<path class="logo-component logo-component-right" data-component-index="24" data-area="1581" data-cx="681.0" data-cy="398.7" d="M 792.5 326.9 c -9.3 4.3 -19.9 9.7 -23.5 12 -6 3.7 -12.5 7.8 -28.5 17.5 -3.2 2 -9.7 6.6 -14.4 10.4 -16.7 13.3 -22.8 17.4 -35.6 23.9 -18.8 9.5 -22.8 12.4 -34.1 23.8 -8.9 9.1 -11 10.7 -19.5 14.8 -15.1 7.2 -40.7 14.9 -54.1 16.2 -5.6 0.6 -6.7 1 -7.2 2.8 -0.3 1.2 -0.3 2.3 0 2.6 0.3 0.3 5.1 0.5 10.7 0.5 7 0.1 11.4 -0.4 14.2 -1.5 8.9 -3.6 24.4 -8.9 30.5 -10.4 11.9 -3 20.2 -7.9 28.6 -16.9 10.7 -11.4 17.1 -16.5 26.6 -21.5 11.9 -6.3 21.3 -12.9 29.7 -21 11.4 -11 20.3 -17.3 36.7 -25.9 8.3 -4.3 17.7 -9.7 21 -11.9 3.2 -2.2 10.2 -6.2 15.3 -8.8 12.3 -6.1 22.3 -12.4 21.5 -13.6 -0.6 -1.1 2 -2.1 -17.9 7 z"/>
<path class="logo-component logo-component-right" data-component-index="55" data-area="499" data-cx="773.0" data-cy="301.3" d="M 792 288 c -7.4 3.8 -18.8 9.4 -25.3 12.4 -13.1 6.3 -19.7 11.4 -19.7 15.4 0 1.6 -1.3 3.9 -3.2 5.9 -1.8 1.8 -2.7 3.3 -2.2 3.3 1.7 -0 15.4 -8.8 20 -12.9 4.5 -4 18.5 -11.4 28.5 -15.1 6.9 -2.5 16.7 -10.6 16.8 -13.8 0.1 -1.2 -0.2 -2.2 -0.6 -2.1 -0.5 0.1 -6.9 3.2 -14.3 6.9 z"/>
<path class="logo-component logo-component-right" data-component-index="60" data-area="430" data-cx="882.2" data-cy="335.8" d="M 894.7 325.1 c -13.4 9 -25.6 16.6 -38.9 24.3 -4 2.2 -4.8 3.2 -4.8 5.6 0 1.7 0.2 3 0.4 3 0.9 -0 22.9 -12.7 32.6 -18.7 30.1 -18.9 28 -17.4 28 -21 0 -2 -0.5 -3.3 -1.2 -3.3 -0.7 0.1 -8 4.6 -16.1 10.1 z"/>
<path class="logo-component logo-component-right" data-component-index="74" data-area="323" data-cx="851.7" data-cy="340.2" d="M 861.4 328.3 c -4.4 3.5 -10.3 9 -13.1 12.3 -2.9 3.3 -8.6 8.4 -12.7 11.4 -6.3 4.6 -7.5 6 -7.6 8.3 l 0 2.8 5.7 -4 c 6.4 -4.5 18.5 -14.2 27.8 -22.3 3.3 -2.9 7.6 -6.4 9.4 -7.8 3 -2.3 3.3 -2.8 2.2 -4.8 -0.6 -1.2 -1.7 -2.2 -2.4 -2.2 -0.7 -0 -4.9 2.9 -9.3 6.3 z"/>
<path class="logo-component logo-component-right" data-component-index="80" data-area="276" data-cx="891.2" data-cy="311.9" d="M 894.5 307.3 c -8.3 4.6 -16.9 9.6 -19.2 11.1 -4.1 2.7 -4.2 2.9 -2.6 5.2 0.8 1.3 1.8 2.4 2.2 2.4 0.4 -0 4.3 -2.4 8.8 -5.3 4.5 -2.8 12.7 -7.7 18.2 -10.7 8.9 -4.9 10 -5.8 10.1 -8.3 0 -1.6 -0.5 -2.7 -1.3 -2.7 -0.7 -0 -8 3.7 -16.2 8.3 z"/>
<path class="logo-component logo-component-right" data-component-index="90" data-area="196" data-cx="670.9" data-cy="239.4" d="M 657 235.8 c 0 2.6 0.6 3.2 4.8 5 6.9 2.9 8.5 3.3 16.8 4.1 7.2 0.7 7.4 0.6 7.4 -1.6 0 -3.1 -4.1 -5 -15.8 -7.2 -5.3 -1 -10.5 -2.1 -11.4 -2.6 -1.5 -0.6 -1.8 -0.2 -1.8 2.3 z"/>
<path class="logo-component logo-component-right" data-component-index="98" data-area="172" data-cx="900.7" data-cy="343.0" d="M 900.7 339.9 c -5.4 3.2 -10.2 6.2 -10.8 6.8 -1.2 1.2 0.5 5.3 2.2 5.3 0.5 -0 5.2 -2.3 10.4 -5.2 9.4 -5.1 9.5 -5.2 9.5 -9 0 -2.1 -0.3 -3.8 -0.7 -3.8 -0.5 0.1 -5.2 2.7 -10.6 5.9 z"/>
<path class="logo-component logo-component-right" data-component-index="103" data-area="159" data-cx="642.0" data-cy="230.0" d="M 624 222 c 0 1.4 9.2 8.4 12.6 9.7 1.6 0.6 6.3 2.1 10.4 3.3 4.1 1.3 8.1 2.5 8.8 2.8 0.8 0.3 1.2 -0.6 1.2 -2.6 0 -2.6 -0.6 -3.2 -4 -4.6 -2.2 -0.9 -6.3 -1.6 -9.1 -1.6 -4.1 -0 -6.2 -0.7 -11.6 -4 -6.9 -4.2 -8.3 -4.7 -8.3 -3 z"/>
<path class="logo-component logo-component-right" data-component-index="105" data-area="152" data-cx="879.6" data-cy="356.0" d="M 878.3 353.9 c -8.6 5.6 -9 6 -8.5 9 0.2 1.7 0.6 3.1 0.7 3.1 0.2 -0 5.1 -3 10.9 -6.6 10.5 -6.6 10.5 -6.6 8.9 -9 -0.8 -1.3 -1.9 -2.4 -2.3 -2.4 -0.4 -0 -4.8 2.6 -9.7 5.9 z"/>
</g>
<g id="component-layer-core" fill="#f7f2ea">
<path class="logo-component logo-component-core" data-component-index="16" data-area="2899" data-cx="514.0" data-cy="593.5" d="M 524.8 536.1 c -1.5 1.1 -7.9 4 -14.1 6.4 -21.5 8.1 -34.4 15.7 -47.1 27.6 -8.5 7.9 -13.6 14.9 -13.6 18.6 0 9.7 28.8 21.8 67 28.2 48 8.1 104.5 10.4 133.8 5.4 2.6 -0.4 3.2 -1 3.2 -2.9 l 0 -2.4 -8.2 0.7 c -12.5 1.2 -60.8 0.8 -73.4 -0.5 -21.4 -2.3 -54.8 -9.7 -67.7 -14.9 -17.7 -7.1 -26.7 -14.3 -26.7 -21.1 0 -8.2 9.6 -18 25.5 -25.9 9.5 -4.8 24.3 -14.2 26.5 -16.8 1 -1.2 1 -1.8 0 -3 -1.6 -1.9 -1.9 -1.9 -5.2 0.6 z"/>
<path class="logo-component logo-component-core" data-component-index="22" data-area="2095" data-cx="505.8" data-cy="237.3" d="M 524.5 206.9 c -7.7 1.9 -20.5 7.3 -24.6 10.3 -1.8 1.4 -2.5 2.6 -2.2 4.2 0.6 2.9 -3.8 6.3 -11.1 8.6 l -5.1 1.7 3.8 0.7 c 2 0.4 3.7 1.1 3.7 1.7 0 0.5 -1.7 1.7 -3.7 2.5 -11 4.7 -12.9 5.8 -10.5 6.2 4.6 0.7 1.6 5 -5 7.1 -4.6 1.5 -5.7 3 -2.9 3.8 1.2 0.3 2.1 0.9 2.1 1.3 0 0.8 -3.3 3.3 -7.5 5.6 -1.1 0.6 -2 2.2 -2 3.5 0 1.4 -0.9 2.8 -2.4 3.5 -2.2 1.1 -2.2 1.3 -0.5 2.2 1.7 0.9 1.3 1.6 -3.6 6.4 -3 3 -6.6 6.1 -8 7.1 -2.5 1.6 -2.5 1.6 1 0.5 3.4 -1.1 12.4 -9.5 18.3 -17.2 1.6 -2 3.8 -3.6 4.8 -3.6 2.3 -0 2.5 1.3 0.4 3 -2.7 2.2 -0.1 3.1 5.8 1.9 4.2 -0.9 7.1 -0.9 11.2 -0.1 4.3 0.9 20.4 6.2 30.1 9.9 0.8 0.3 1.4 0.1 1.4 -0.4 0 -1.2 -3.9 -2.9 -17.5 -7.9 -10.4 -3.8 -16.5 -6.9 -16.5 -8.5 0 -0.5 0.9 -0.9 1.9 -0.9 3.1 -0 5 -1.1 4.5 -2.4 -1.3 -3.3 6.7 -4.6 13.1 -2.2 1.4 0.5 1 -0.2 -1.3 -2.3 -1.8 -1.8 -4.3 -3.1 -5.7 -3.1 -4.2 -0 -2.8 -1.8 2.7 -3.5 6.4 -1.9 7.3 -1.9 13.1 0.1 2.6 0.9 5.2 1.4 5.9 1.1 1.5 -0.4 -10.3 -6.7 -12.7 -6.7 -1.8 -0 -2 -3 -0.2 -5.3 1.7 -2.3 14.1 -3.3 23.6 -1.8 5.3 0.8 10.9 2.8 19.3 6.8 9.4 4.3 13.3 5.7 18.4 6.1 6 0.4 6.4 0.4 6.4 -1.7 0 -1.9 -0.5 -2.1 -5.8 -2.1 -5 -0 -7.3 -0.8 -17.1 -5.6 -10 -4.9 -12.5 -5.7 -20 -6.4 -4.7 -0.5 -9.9 -1.3 -11.6 -1.9 -1.6 -0.5 -4.3 -1.3 -6 -1.8 -4.8 -1.4 -3.8 -3.7 2 -4.6 12.9 -1.9 16.8 -2.7 17.3 -3.2 0.3 -0.2 -0.3 -1.4 -1.3 -2.5 -1.7 -1.9 -1.7 -2 0.6 -3.9 5.9 -4.9 17.7 -3.7 33.4 3.4 3.3 1.5 7.8 3.3 10 4 2.2 0.7 4.8 1.6 5.8 2 1.3 0.5 1.7 0.2 1.7 -1.3 0 -1.5 -1 -2.2 -4.3 -3.1 -2.4 -0.6 -5.4 -1.9 -6.8 -2.9 -5.3 -4.2 -12.4 -6.5 -27.3 -9.2 -7.8 -1.3 -10.7 -1.2 -19.1 0.9 z"/>
<path class="logo-component logo-component-core" data-component-index="71" data-area="338" data-cx="492.4" data-cy="520.5" d="M 483 498.5 c 0 0.7 2 2.8 4.5 4.6 13.1 9.4 12.5 20.8 -1.4 27.7 -3.4 1.7 -7.9 3.3 -10.1 3.7 -4.1 0.7 -5.2 2.1 -2.4 3.2 2.2 0.8 15 -1.4 18.7 -3.3 15 -7.6 15.5 -22.3 1.2 -31.8 -7.2 -4.7 -10.5 -6.1 -10.5 -4.1 z"/>
</g>
<g id="component-layer-vortex" fill="#f7f2ea">
<path class="logo-component logo-component-vortex" data-component-index="21" data-area="2144" data-cx="465.0" data-cy="456.8" d="M 447 384.2 c -3 1.1 -7.4 2.7 -9.7 3.5 -3.7 1.3 -4.3 1.9 -4.3 4.3 0 2.3 0.6 3 3.3 3.9 5.6 2 10.6 6 12.8 10.3 1.8 3.6 2 4.7 1 7.4 -0.8 2.3 -0.8 3.9 -0.1 6 1.8 4.7 3.9 17.2 4.4 27.1 0.4 6.2 1.6 12.3 3.6 18.5 2.8 8.8 4.9 18.9 3.7 17.8 -0.2 -0.3 -1.2 -3.4 -2.1 -6.9 -3.7 -14.3 -7.8 -26.1 -9.2 -26.1 -1 -0 -0.5 2.2 2 9.2 1.9 5.1 4.1 11 5 13 0.9 2.1 1.6 4.8 1.6 6 -0.1 2.2 -0.2 2.2 -2.5 -0.7 -1.4 -1.7 -4.4 -6.2 -6.7 -10 -2.2 -3.9 -6.1 -9.6 -8.5 -12.8 -2.3 -3.3 -4.3 -6.4 -4.3 -7.1 0 -0.7 -1.4 -3.4 -3 -6 -2.6 -4 -3.3 -4.6 -4.5 -3.6 -1.1 0.9 -1.2 1.6 -0.5 2.5 0.6 0.7 2.1 3.2 3.3 5.6 2 4.1 5.8 9.5 19.4 27.5 2.9 3.9 5.3 7.5 5.3 7.9 0 0.4 -3.7 -2.8 -8.2 -7.1 -12.5 -12 -21.6 -19.2 -28.4 -22.5 -7.3 -3.4 -7.4 -3.4 -7.4 -1 0 1.3 2 2.8 6.6 5.1 8.6 4.2 19.8 12.7 30.9 23.5 9.9 9.6 7.3 8.7 -5.6 -1.8 -11.6 -9.4 -18.2 -12.9 -34.2 -18.1 -16.7 -5.5 -20.7 -6.3 -20.7 -4.5 0 0.9 4.6 2.8 12.8 5.3 7 2.1 15.2 4.9 18.3 6.1 5.6 2.3 20.6 11.2 30.6 18.3 5.9 4.1 11.9 6.4 15 5.6 1.6 -0.4 2.3 -0 2.8 1.7 0.4 1.3 2.9 4.6 5.5 7.3 2.6 2.8 5.2 6.1 5.9 7.3 1.7 3.4 1.3 8.2 -1 11.5 -2 2.7 -2 3.1 -0.6 4.5 1.4 1.4 1.9 1.4 3.2 0.3 2.4 -2 4.5 -6.5 4.5 -9.8 0 -3.4 -4.5 -10 -9.1 -13.3 -3.9 -2.7 -2.4 -3.7 2.1 -1.4 3 1.5 3.2 1.5 2.8 -0.1 -0.2 -1 -2.2 -2.4 -4.8 -3.3 -6.8 -2.4 -7.3 -2.9 -5.1 -5.2 2.8 -3.1 15.7 -5.1 26.9 -4.3 8.1 0.6 9.2 0.4 9.2 -1 0 -1.3 -1.3 -1.6 -8.2 -1.7 l -8.3 -0.1 3.5 -1.5 c 1.9 -0.9 7.4 -1.8 12.3 -2.1 7.9 -0.4 8.7 -0.6 8.7 -2.5 0 -1.8 -0.4 -1.9 -6.7 -1.3 -6.5 0.7 -14.1 3.3 -17.3 6 -1.4 1.2 -14.1 4.8 -14.7 4.2 -0.1 -0.1 4.9 -2.8 11.2 -6 12.2 -6.1 21.1 -8.6 30.8 -8.6 5 -0 5.7 -0.2 5.7 -2 0 -1.8 -0.7 -2 -7.3 -2 -9.1 -0 -15.1 1.7 -26.2 7.6 -4.7 2.6 -8.8 4.4 -9 4.2 -0.9 -0.8 9.4 -7.9 19.1 -13.2 10.9 -5.9 20.5 -8.6 30.3 -8.6 4.8 -0 6.1 -0.3 6.1 -1.5 0 -3.2 -19.1 -1.1 -27.5 3 -6.9 3.3 -22.2 13.5 -27 17.9 -2.2 2.1 -3.4 3.5 -2.7 3.1 0.6 -0.3 1.2 -0.1 1.2 0.4 0 0.6 -0.6 1.1 -1.4 1.1 -0.8 -0 -3.6 1.6 -6.4 3.5 l -5 3.4 -0.7 -6.8 c -0.7 -7.1 0.4 -15.6 2.8 -21.4 2.7 -6.3 11.1 -18.1 17.9 -25.2 6.9 -7 7.8 -10 2.1 -6.5 -3.6 2.1 -15 16 -18.8 22.9 -3.4 5.9 -5.5 13.5 -5.5 19.5 0 8.2 -1.7 8.9 -2.5 1.2 -1 -8.7 -0.2 -15.2 3.1 -25.1 5.7 -17.5 12.3 -28.5 18 -29.9 1.6 -0.4 2.4 -1.4 2.4 -2.7 0 -1.1 -0.3 -1.9 -0.7 -1.7 -11.4 5.4 -12.1 6 -15.1 11.6 -1.6 3.1 -4.5 10.9 -6.3 17.2 -3.2 10.8 -3.4 12.3 -3.3 25.5 0.2 12.7 0.1 13.6 -1 9.5 -0.7 -2.5 -2 -7 -2.9 -10 -0.9 -3.4 -1.7 -11.4 -2 -21 -0.3 -8.5 -1.1 -18.8 -1.8 -22.7 -0.9 -5.3 -0.9 -7.6 -0.1 -8.6 0.9 -1 0.7 -1.9 -0.4 -3.6 -1 -1.3 -1.4 -3.2 -1 -4.6 0.7 -2.7 -2.2 -6.5 -4.9 -6.5 -0.7 -0 -1.8 -0.7 -2.2 -1.5 -0.5 -0.8 -2.6 -2.1 -4.8 -2.8 -6.1 -2.1 -5.4 -4.7 1.9 -6.8 5.4 -1.6 9.6 -4.2 8.5 -5.3 -0.2 -0.2 -2.9 0.5 -5.9 1.6 z"/>
<path class="logo-component logo-component-vortex" data-component-index="40" data-area="807" data-cx="552.9" data-cy="418.4" d="M 638.7 375.2 c -3.7 2.4 -11.2 7.6 -16.7 11.5 -13.5 9.9 -20.9 13.8 -31 16.3 -10.4 2.6 -23.2 7.1 -30.2 10.6 -3.3 1.7 -9.4 3.4 -15.9 4.5 -7.2 1.2 -12 2.6 -14.6 4.2 -2.1 1.3 -7.1 3.4 -11.2 4.6 -15.1 4.6 -22.8 9.1 -31.2 18.6 -11.1 12.6 -17 23.7 -16.8 31.7 l 0.1 4.3 0.8 -4 c 1.6 -8 5.9 -15.6 14.1 -25.1 4.5 -5.3 14.8 -14.2 18.6 -16.2 5 -2.7 35.7 -12.2 43.9 -13.7 13.9 -2.4 15.7 -3 23.5 -7.3 4.1 -2.2 10.1 -4.9 13.4 -6 20.4 -7 31 -13.3 53.1 -31.1 9.6 -7.7 8.9 -7.1 7.8 -7.1 -0.5 -0 -4 1.9 -7.7 4.2 z"/>
<path class="logo-component logo-component-vortex" data-component-index="42" data-area="784" data-cx="555.4" data-cy="432.9" d="M 611.5 410.9 c -9.9 4.3 -20.7 9.1 -24 10.8 -5.8 2.9 -33.3 10.3 -38.5 10.3 -1.4 -0 -6.8 1.1 -12 2.4 -5.2 1.3 -12.4 2.7 -16 3.1 -9.3 1 -15.9 4.7 -27.7 15.3 -9.3 8.5 -20.3 21.5 -19.1 22.8 0.3 0.2 2.5 -2.1 4.9 -5.2 5.7 -7.4 21.9 -21 28.7 -24.2 2.9 -1.3 9.4 -3 14.5 -3.9 5.1 -0.8 12.4 -2.4 16.2 -3.5 5.3 -1.6 11.1 -2.3 24 -2.7 9.4 -0.4 17.7 -1.1 18.5 -1.6 0.8 -0.5 4.7 -3.5 8.5 -6.6 4.4 -3.5 12.7 -8.5 22 -13.2 13.4 -6.7 21.8 -11.8 19 -11.6 -0.5 0.1 -9.1 3.6 -19 7.8 z"/>
<path class="logo-component logo-component-vortex" data-component-index="43" data-area="783" data-cx="341.7" data-cy="427.7" d="M 267 401.3 c 0 1.9 1.5 2.8 11.3 6.4 6.1 2.3 15 5.4 19.7 6.8 4.7 1.5 12.3 4.7 16.9 7.1 4.6 2.4 11.6 5.4 15.5 6.5 3.9 1.2 10.6 3.9 14.8 6 9.4 4.8 15.9 6.5 29.6 8 10.3 1 16.9 2.8 31.5 8.3 l 6.7 2.5 0 -2.3 c 0 -1.9 -1 -2.8 -4.7 -4.4 -9.2 -3.8 -18.2 -6.3 -31.5 -8.7 -11.4 -2.1 -14.8 -3.2 -23.3 -7.5 -6.3 -3.1 -13.8 -5.9 -20.2 -7.5 -5.7 -1.4 -13 -3.9 -16.2 -5.5 -6.2 -3.2 -12.6 -5.3 -19.6 -6.5 -2.2 -0.4 -7.8 -2.3 -12.5 -4.2 -4.7 -1.9 -10.6 -4.4 -13.2 -5.4 l -4.8 -1.9 0 2.3 z"/>
<path class="logo-component logo-component-vortex" data-component-index="44" data-area="738" data-cx="348.1" data-cy="408.0" d="M 284 378.2 c 0 1.8 0.8 2.7 3.3 3.6 1.8 0.7 9.3 4.6 16.6 8.8 7.3 4.2 17.1 8.9 21.8 10.5 10.7 3.6 22.5 9.9 27.9 14.9 5.9 5.4 8.4 6.5 23 9.9 17.1 4 26.8 7.2 39.3 13.2 5.7 2.7 10.6 4.7 10.9 4.5 1 -1 -5.7 -5.9 -13.9 -10.1 -6.5 -3.3 -13.1 -5.5 -27.5 -9.1 -10.4 -2.6 -19.9 -5.1 -21 -5.6 -1.2 -0.6 -4.4 -3.6 -7.2 -6.8 -5.8 -6.6 -17.7 -13.3 -30.1 -17 -4 -1.2 -14.4 -5.7 -23 -9.9 -19.5 -9.8 -20.1 -10 -20.1 -6.9 z"/>
<path class="logo-component logo-component-vortex" data-component-index="59" data-area="462" data-cx="390.8" data-cy="410.9" d="M 370 390.5 c 0 2.9 -1.7 3.2 -6 1 -3 -1.5 -3 -1.5 -3 1.1 0 2.5 0.2 2.6 3.6 2 6.1 -1.2 11.5 3.9 9.3 8.7 -2.5 5.6 4.4 11.6 15.1 13.3 6.6 1 29.3 12.8 34.8 18 5.7 5.5 7.9 4.4 3.1 -1.6 -5.9 -7.4 -24.6 -18.4 -35.6 -21 -2.9 -0.6 -6.4 -2.1 -7.8 -3.2 -2.1 -1.7 -2.5 -2.7 -2.5 -7.6 0 -4.9 -0.4 -6.3 -3.1 -9.5 -3.7 -4.5 -7.9 -5.2 -7.9 -1.2 z"/>
<path class="logo-component logo-component-vortex" data-component-index="62" data-area="424" data-cx="541.4" data-cy="404.7" d="M 566 391.3 c -9.1 4.5 -18.3 9.5 -20.5 10.9 -2.2 1.5 -7.8 3.6 -12.5 4.8 -14.6 3.6 -18 5 -19 7.6 -0.6 1.5 -3.3 3.5 -7.2 5.5 -8.3 4.2 -10.9 5.9 -10.3 6.9 0.3 0.5 4.9 -0.9 10.3 -3.1 6.7 -2.8 10.7 -5.1 12.8 -7.4 2.8 -3.1 4.1 -3.7 15.3 -6 14.4 -3.1 21.8 -6.1 27.5 -11.3 2.3 -2 8.3 -6.1 13.4 -9.1 8.6 -5 11 -7.1 7.9 -7.1 -0.7 -0 -8.7 3.7 -17.7 8.3 z"/>
<path class="logo-component logo-component-vortex" data-component-index="65" data-area="401" data-cx="371.1" data-cy="483.9" d="M 336 480.6 c -7.6 0.6 -10 1.2 -10 2.8 0 1.1 5.1 1.5 27.3 1.9 28.4 0.5 49.2 2.5 69.6 6.7 5.7 1.1 10.5 1.9 10.7 1.7 0.8 -0.8 -27.4 -7.7 -42.1 -10.3 -11.8 -2.1 -18.7 -2.7 -32.5 -2.9 -9.6 -0.1 -20 -0.1 -23 0.1 z"/>
<path class="logo-component logo-component-vortex" data-component-index="66" data-area="381" data-cx="526.6" data-cy="508.9" d="M 492 488.8 c 0 0.6 1.9 1.3 4.3 1.7 2.3 0.4 7.3 1.9 11.2 3.2 11 4 17.8 8.8 23.6 16.7 4.5 6.1 3.7 15.4 -1.7 21.7 -1.2 1.4 -1.2 1.8 0.5 3.3 1.8 1.6 2 1.5 4.6 -1.6 12.1 -14.3 7.2 -28.4 -13.5 -38.7 -8.3 -4.2 -29 -8.7 -29 -6.3 z"/>
<path class="logo-component logo-component-vortex" data-component-index="67" data-area="379" data-cx="541.7" data-cy="502.1" d="M 509 484.8 c 0 1.4 1.4 2 6.5 3 3.5 0.6 9 2.3 12.2 3.8 8.1 3.5 20 12.9 22.4 17.5 2.1 4.3 2.5 9.9 0.8 13.1 -1 1.8 -0.8 2.4 1.2 3.9 2.2 1.7 2.5 1.7 3.6 0.2 0.7 -0.9 2 -3.7 2.8 -6.4 2.4 -7.1 0.9 -11.4 -6.3 -18.1 -12 -11.1 -43.2 -23.4 -43.2 -17 z"/>
<path class="logo-component logo-component-vortex" data-component-index="72" data-area="329" data-cx="512.9" data-cy="518.4" d="M 497.3 497.2 c 11.7 6.4 18.6 14.7 18.7 22.6 0 7.2 -4.8 13.7 -12.7 17 -4.9 2 -5.5 3.2 -1.5 3.2 4.9 -0 9.8 -1.9 14 -5.6 5.6 -4.7 7.2 -8.1 7.2 -14.8 0 -4.6 -0.5 -6.1 -3.3 -9.8 -4.1 -5.4 -12.2 -10.9 -20.1 -13.7 -8.4 -2.9 -9.1 -2.6 -2.3 1.1 z"/>
<path class="logo-component logo-component-vortex" data-component-index="81" data-area="261" data-cx="542.5" data-cy="449.7" d="M 550.5 446.1 c -6 1.1 -16.3 2.5 -22.7 3.3 -13.7 1.7 -20.7 4.3 -30.1 11 -7.9 5.6 -8.2 7.6 -0.4 2.4 6.8 -4.6 12.8 -7.6 19.4 -9.9 4.4 -1.5 10.1 -1.9 31.9 -2.5 25.7 -0.7 26.6 -0.8 27.4 -2.8 0.4 -1.2 0.7 -2.2 0.6 -2.2 0 -0.1 -3.5 -0.3 -7.6 -0.6 -4.8 -0.3 -11.4 0.1 -18.5 1.3 z"/>
<path class="logo-component logo-component-vortex" data-component-index="84" data-area="241" data-cx="435.3" data-cy="422.4" d="M 417 405 c 0 0.8 1.5 2.2 3.3 3 2.3 1.1 3.3 2.3 3.5 4.3 0.3 2 1.6 3.6 5.6 6.1 5.2 3.3 14.6 13.6 14.6 15.9 0 2.7 5.4 15.7 6.5 15.7 1 -0 0.9 -1.3 -0.2 -6 -2.7 -12 -5.3 -17.2 -11.5 -23.3 -3.2 -3.1 -6.3 -5.7 -6.8 -5.7 -0.6 -0 -1 -1.1 -1 -2.5 0 -1.7 -0.9 -2.9 -2.9 -3.9 -1.6 -0.9 -3.1 -2.2 -3.4 -2.9 -0.3 -0.8 -2.2 -1.7 -4.1 -1.9 -2.8 -0.3 -3.6 -0 -3.6 1.2 z"/>
<path class="logo-component logo-component-vortex" data-component-index="85" data-area="218" data-cx="346.4" data-cy="382.3" d="M 332.8 375.7 c -1 0.2 -1.8 1.3 -1.8 2.4 0 1.4 0.7 1.9 2.9 1.9 4.7 -0 7.8 1.6 13.4 6.9 5.1 4.8 9.1 7.1 12.3 7.1 2.6 -0 1.1 -4.2 -2 -6 -1.6 -0.8 -3.2 -2.2 -3.6 -3 -2.8 -6.1 -3.9 -7.6 -6 -8.7 -2.4 -1.2 -11.6 -1.6 -15.2 -0.6 z"/>
<path class="logo-component logo-component-vortex" data-component-index="87" data-area="214" data-cx="477.2" data-cy="397.4" d="M 482.1 386.4 c -3.5 1.8 -6.8 4.1 -7.4 5.1 -0.5 1 -1 4.4 -1.1 7.6 -0.1 4.2 -0.7 6.5 -2.2 8.1 -2.4 2.8 -5.7 9.8 -4.9 10.6 1.9 1.9 12.5 -13.3 12.5 -17.9 0 -1 0.9 -2.4 2 -3.2 1.1 -0.7 2.6 -3 3.5 -5 0.9 -2.1 2.8 -4.3 4.5 -5.2 1.7 -0.9 3 -2 3 -2.5 0 -1.8 -3.5 -1 -9.9 2.4 z"/>
<path class="logo-component logo-component-vortex" data-component-index="89" data-area="200" data-cx="425.3" data-cy="377.6" d="M 443 368 c -8.7 4.9 -11.1 6 -18.3 7.8 -5.3 1.4 -8.8 3 -11.2 5.1 -2 1.7 -4.7 3.4 -6 3.7 -1.4 0.3 -2.5 1.2 -2.5 1.9 0 0.9 1.3 1 5 0.4 7 -1.1 9 -1.8 12.7 -4.6 1.7 -1.4 5.9 -3.3 9.2 -4.3 3.9 -1.2 7.7 -3.3 11 -6.1 6.9 -5.9 6.9 -7.8 0.1 -3.9 z"/>
<path class="logo-component logo-component-vortex" data-component-index="106" data-area="151" data-cx="405.3" data-cy="396.7" d="M 401.5 385.7 c -2.6 0.7 -5.5 3.3 -5.5 5 0 0.7 1.5 2.2 3.3 3.3 2.2 1.4 3.4 2.9 3.7 5.1 0.6 3.9 4.1 6.5 9.8 7.3 3.6 0.5 4.2 0.4 4.2 -1.2 0 -1.2 -1.1 -2.1 -3.2 -2.7 -2.7 -0.8 -3.4 -1.6 -3.6 -4.2 -0.3 -2.7 -0.9 -3.4 -4.5 -4.6 -4.6 -1.5 -6 -4.2 -2.8 -5.2 1.2 -0.3 2.1 -1.3 2.1 -2.1 0 -1.5 -0.2 -1.5 -3.5 -0.7 z"/>
<path class="logo-component logo-component-vortex" data-component-index="107" data-area="149" data-cx="360.8" data-cy="459.3" d="M 345 458.7 c 0 1.2 0.7 2.4 1.5 2.7 2.6 0.9 36.9 0.6 35.9 -0.4 -1.5 -1.4 -12.2 -3 -25.1 -3.7 -11.9 -0.6 -12.3 -0.5 -12.3 1.4 z"/>
<path class="logo-component logo-component-vortex" data-component-index="111" data-area="127" data-cx="389.4" data-cy="370.0" d="M 392.1 363.6 c -1.7 1.4 -3.6 3.7 -4.3 5.2 -0.7 1.5 -2.8 3.3 -4.5 4.1 -3.6 1.6 -4.6 5.1 -1.5 5.1 2.4 -0.1 8.7 -2.5 11.8 -4.4 2.1 -1.4 2.3 -2 1.3 -3.2 -1 -1.2 -0.8 -1.9 1.1 -3.9 2.1 -2.3 2.2 -5.5 0.1 -5.5 -0.5 -0 -2.3 1.2 -4 2.6 z"/>
<path class="logo-component logo-component-vortex" data-component-index="117" data-area="91" data-cx="372.6" data-cy="380.5" d="M 375.1 375.4 c -4 1.4 -7.1 5 -7.1 8.1 0 4 0.9 5.2 3.6 4.7 1.9 -0.3 2.4 -1.1 2.4 -3.3 0 -2 0.9 -3.5 3 -5.1 1.7 -1.2 3 -3 3 -4 0 -2.1 -0.3 -2.1 -4.9 -0.4 z"/>
<path class="logo-component logo-component-vortex" data-component-index="119" data-area="61" data-cx="338.2" data-cy="458.1" d="M 332.6 458.5 l -1.6 2.5 7 -0 c 6.8 -0 7.1 -0.1 6.8 -2.3 -0.3 -1.9 -1 -2.2 -5.4 -2.5 -4.5 -0.3 -5.3 -0 -6.8 2.3 z"/>
</g>
</svg>
