<svg xmlns="http://www.w3.org/2000/svg" viewBox="0 0 963 846" role="img" aria-labelledby="title desc">
  <title id="title">MARLEΛU logo concept</title>
  <desc id="desc">A high contrast MARLEΛU wordmark above a mountain and vortex made from topographic contour lines.</desc>
  <rect width="963" height="846" fill="#030303"/>
  <g fill="#f7f2ea" font-family="Arial Black, Arial, Helvetica, sans-serif" font-size="104" font-weight="900" letter-spacing="22">
    <text x="113" y="192">MARLEΛU</text>
  </g>
  <g fill="none" stroke="#f7f2ea" stroke-linecap="round" stroke-linejoin="round">
    <path stroke-width="9" d="M82 377c43-7 82 23 124 3 40-19 60-74 95-103 22-18 35-20 52-2 25 27 47 75 80 91 31 15 67-8 91-29 39-34 58-88 93-93 42-5 70 64 105 93 44 37 94 40 152 46"/>
    <path stroke-width="7" d="M145 379c37-8 69 12 103-5 34-17 50-58 82-82 16-12 25-13 38 3 20 24 39 61 66 74 27 13 60-5 80-23 35-29 51-72 82-78 35-6 61 49 91 73 39 31 84 34 137 41"/>
    <path stroke-width="6" d="M200 369c28-7 54 4 80-9 28-14 44-45 68-60 12-8 22-6 34 9 19 23 34 47 57 55 24 9 51-7 69-23 30-27 45-62 70-67 30-6 50 39 77 60 31 25 65 27 107 30"/>
    <path stroke-width="5" d="M269 343c21-10 39-26 59-40 13-8 27-7 39 9 18 22 31 40 51 49 21 8 46-3 66-21 24-22 35-52 58-62 24-10 39 23 62 43 26 23 55 28 91 31"/>
    <path stroke-width="4" d="M336 316c21 16 38 33 60 39 20 5 43-4 61-20 21-19 32-45 52-54 20-8 34 17 52 33 20 17 42 21 71 25"/>
  </g>
  <g fill="none" stroke="#f7f2ea" stroke-linecap="round" opacity=".98">
    <path stroke-width="7" d="M37 401c102 20 202 55 296 89 72 26 130 56 146 98 20 52-37 92-98 119-58 26-133 43-252 48"/>
    <path stroke-width="7" d="M926 418c-114 21-211 60-298 101-67 32-121 70-129 116-9 52 58 84 130 101 62 15 142 19 286 17"/>
    <path stroke-width="7" d="M38 432c116 18 212 48 303 80 71 24 133 53 150 88 21 44-18 78-80 103-66 27-148 43-283 47"/>
    <path stroke-width="7" d="M925 449c-120 18-218 51-304 88-68 30-111 62-117 101-8 45 50 74 118 91 65 16 150 20 291 18"/>
    <path stroke-width="7" d="M38 464c125 16 225 41 313 69 76 24 132 48 148 81 18 37-15 68-78 92-67 25-157 38-294 39"/>
    <path stroke-width="7" d="M924 481c-128 16-228 44-313 79-65 27-102 55-108 88-7 39 43 64 108 78 67 14 159 17 302 15"/>
    <path stroke-width="7" d="M39 497c135 13 236 34 324 58 77 21 137 43 149 73 15 34-25 59-92 79-73 21-162 31-294 31"/>
    <path stroke-width="7" d="M923 513c-135 14-237 37-320 68-65 25-98 48-104 76-7 34 35 56 98 68 69 13 167 15 315 12"/>
    <path stroke-width="7" d="M40 531c145 10 248 26 335 48 76 19 139 37 152 63 15 30-30 52-102 69-75 18-174 25-298 22"/>
    <path stroke-width="7" d="M922 548c-145 10-247 29-329 56-64 22-94 42-100 66-7 30 31 49 91 60 73 12 177 12 327 8"/>
    <path stroke-width="7" d="M42 566c155 7 263 18 350 37 75 16 140 31 151 54 12 26-41 45-118 59-78 15-182 19-296 14"/>
    <path stroke-width="7" d="M919 584c-154 7-256 22-338 46-60 18-86 35-91 55-6 25 28 42 88 50 77 11 182 9 332 3"/>
    <path stroke-width="7" d="M44 602c170 4 279 10 365 26 76 14 137 24 148 44 12 22-47 37-129 49-84 12-194 12-300 6"/>
    <path stroke-width="7" d="M916 620c-168 5-270 14-350 35-57 15-78 28-84 44-6 22 30 35 89 42 80 8 191 5 338-3"/>
    <path stroke-width="7" d="M47 638c184 1 292 3 381 15 78 10 137 17 147 33 11 18-54 30-142 37-86 7-200 6-304-1"/>
    <path stroke-width="7" d="M912 657c-181 1-282 6-361 23-54 12-70 22-75 35-6 17 30 27 88 31 84 6 200 1 341-8"/>
    <path stroke-width="7" d="M51 674c198-3 305-5 397 3 81 7 136 10 145 22 10 14-61 21-153 24-92 4-206 0-311-8"/>
    <path stroke-width="7" d="M907 694c-198-4-294-2-371 11-48 8-60 16-65 25-5 13 31 21 86 23 89 2 210-5 343-15"/>
    <path stroke-width="8" d="M55 712c212-8 320-15 420-12 82 3 126 5 133 13 9 10-70 13-169 11-102-2-211-8-310-17"/>
    <path stroke-width="8" d="M899 732c-218-10-305-11-379-3-39 4-50 9-54 15-5 8 35 13 90 12 97-1 219-11 334-22"/>
  </g>
  <g fill="none" stroke="#030303" stroke-linecap="round" stroke-linejoin="round">
    <path stroke-width="22" d="M327 411c31 12 57 23 85 29 36 8 75-3 107-24"/>
    <path stroke-width="18" d="M378 390c28 9 53 12 83 6 27-5 52-20 75-38"/>
    <path stroke-width="15" d="M560 376c29 17 68 34 119 41"/>
    <path stroke-width="13" d="M242 398c30 11 59 11 91 0"/>
  </g>
</svg>
